SplineFontDB: 3.2
FontName: AtkinsonHyperPro-BoldItalic
FullName: Atkinson Hyperlegible Pro Bold Italic
FamilyName: Atkinson Hyperlegible Pro
Weight: Bold
Copyright: Copyright 2020 Braille Institute of America, Inc.
UComments: "Update by Jacob Perez+AAoA-https://jacobxperez.github.io/atkinson-hyperlegible-pro/"
Version: 1.3.2
ItalicAngle: -12
UnderlinePosition: -106
UnderlineWidth: 57
Ascent: 800
Descent: 200
InvalidEm: 0
sfntRevision: 0x00010000
LayerCount: 2
Layer: 0 1 "Back" 1
Layer: 1 1 "Fore" 0
XUID: [1021 466 782043844 14962]
StyleMap: 0x0021
FSType: 0
OS2Version: 4
OS2_WeightWidthSlopeOnly: 0
OS2_UseTypoMetrics: 1
CreationTime: 1618935638
ModificationTime: 1697445198
PfmFamily: 81
TTFWeight: 700
TTFWidth: 5
LineGap: 0
VLineGap: 0
Panose: 0 0 0 0 0 0 0 0 0 0
OS2TypoAscent: 950
OS2TypoAOffset: 0
OS2TypoDescent: -290
OS2TypoDOffset: 0
OS2TypoLinegap: 0
OS2WinAscent: 950
OS2WinAOffset: 0
OS2WinDescent: 290
OS2WinDOffset: 0
HheadAscent: 950
HheadAOffset: 0
HheadDescent: -290
HheadDOffset: 0
OS2SubXSize: 650
OS2SubYSize: 699
OS2SubXOff: 0
OS2SubYOff: 140
OS2SupXSize: 650
OS2SupYSize: 699
OS2SupXOff: 0
OS2SupYOff: 479
OS2StrikeYSize: 49
OS2StrikeYPos: 258
OS2CapHeight: 668
OS2XHeight: 496
OS2Vendor: 'NONE'
OS2CodePages: 20000003.00000000
OS2UnicodeRanges: 800000ef.0000204b.00000000.00000000
Lookup: 4 0 1 "'liga' Standard Ligatures lookup 0" { "'liga' Standard Ligatures lookup 0-1"  } ['liga' ('DFLT' <'dflt' > 'grek' <'dflt' > 'latn' <'MOL ' 'dflt' > ) ]
Lookup: 1 0 0 "'zero' Slashed Zero lookup 0" { "'zero' Slashed Zero lookup 0-1"  } ['zero' ('DFLT' <'dflt' > 'grek' <'dflt' > 'latn' <'MOL ' 'dflt' > ) ]
Lookup: 1 0 0 "'aalt' Access All Alternates lookup 0" { "'aalt' Access All Alternates lookup 0 subtable"  } ['aalt' ('DFLT' <'dflt' > 'grek' <'dflt' > 'latn' <'dflt' > ) ]
Lookup: 3 0 0 "'aalt' Access All Alternates lookup 1" { "'aalt' Access All Alternates lookup 1 subtable"  } ['aalt' ('DFLT' <'dflt' > 'grek' <'dflt' > 'latn' <'dflt' > ) ]

StartChar: .notdef
Encoding: 256 -1 0
Width: 676
GlyphClass: 1
Flags: W
HStem: 0 21<158 528> 680 20<157 528>
VStem: 129 21<49 650> 536 20<47 652>
DStem2: 157 680 150 650 0.513698 -0.857971<22.1432 360.147 396.696 737.787> 150 49 158 21 0.513896 0.857853<0 339.381 374.897 715.649>
LayerCount: 2
Fore
SplineSet
158 21 m 1,0,-1
 528 21 l 1,1,-1
 343 329 l 1,2,-1
 158 21 l 1,0,-1
150 49 m 1,3,-1
 330 350 l 1,4,-1
 150 650 l 1,5,-1
 150 49 l 1,3,-1
536 47 m 1,6,-1
 536 652 l 1,7,-1
 355 350 l 1,8,-1
 536 47 l 1,6,-1
342 371 m 1,9,-1
 528 680 l 1,10,-1
 157 680 l 1,11,-1
 342 371 l 1,9,-1
129 0 m 1,12,-1
 129 700 l 1,13,-1
 556 700 l 1,14,-1
 556 0 l 1,15,-1
 129 0 l 1,12,-1
EndSplineSet
EndChar

StartChar: zero
Encoding: 48 48 5
Width: 659
GlyphClass: 1
Flags: W
HStem: -12 113<250.531 377.616> 567 113<293.589 422.319>
VStem: 47 155<157.624 429.925> 470 155<240.671 512.165>
DStem2: 291 544 230 450 0.433731 -0.901042<58.2403 351.991>
LayerCount: 2
Fore
SplineSet
309.821198685 101 m 0,0,1
 352 101 352 101 385 128 c 1,2,-1
 230 450 l 1,3,4
 222 426 222 426 216.51902275 401.968022826 c 0,5,6
 209 369 209 369 205.234400104 321.930001305 c 0,7,8
 205 319 205 319 204.533773358 314.182324699 c 0,9,10
 202 288 202 288 202 266.669286231 c 0,11,12
 202 199 202 199 224.464540005 155.832844695 c 0,13,14
 253 101 253 101 309.821198685 101 c 0,0,1
444 227 m 1,15,16
 452 250 452 250 457.5 277 c 128,-1,17
 463 304 463 304 466.656020233 336.904182097 c 0,18,19
 468 349 468 349 468.849855916 362.172766702 c 0,20,21
 470 380 470 380 470 395.059734535 c 0,22,23
 470 436 470 436 463.001627721 468.110178694 c 0,24,25
 453 514 453 514 431.12326308 538.155563682 c 0,26,27
 405 567 405 567 361.681640814 567 c 0,28,29
 323 567 323 567 291 544 c 1,30,-1
 444 227 l 1,15,16
299.872251648 -12 m 0,31,32
 174 -12 174 -12 108.282154896 66.6544287853 c 0,33,34
 47 140 47 140 47 272.650400528 c 0,35,36
 47 302 47 302 50.5536657878 336.470558141 c 0,37,38
 67 496 67 496 147.426979373 585.688267906 c 0,39,40
 232 680 232 680 372.831494947 680 c 0,41,42
 498 680 498 680 563.072429991 603.655180562 c 0,43,44
 625 531 625 531 625 397.404313469 c 0,45,46
 625 368 625 368 621.640894926 334.648885341 c 0,47,48
 611 229 611 229 570.885823748 151.743067958 c 0,49,50
 530 73 530 73 463.713060643 31.5706629017 c 0,51,52
 394 -12 394 -12 299.872251648 -12 c 0,31,32
EndSplineSet
Substitution2: "'zero' Slashed Zero lookup 0-1" zero.alt1
Substitution2: "'aalt' Access All Alternates lookup 0 subtable" zero.alt1
Substitution2: "'tnum' Tabular Numbers lookup 14 subtable" zero.tf
EndChar

StartChar: one
Encoding: 49 49 6
Width: 455
GlyphClass: 1
Flags: W
HStem: 0 21G<132 291.222> 449 122<98 227.004> 648 20G<297.5 428>
VStem: 132 155<0 155>
DStem2: 132 0 287 0 0.207912 0.978148<32.2263 459.148>
LayerCount: 2
Fore
SplineSet
132 0 m 1,0,-1
 228 449 l 1,1,-1
 72 449 l 1,2,-1
 98 571 l 1,3,4
 152 571 152 571 186.528507936 577.814837093 c 0,5,6
 228 586 228 586 256.757396443 607.189660537 c 0,7,8
 285 628 285 628 310 668 c 1,9,-1
 428 668 l 1,10,-1
 287 0 l 1,11,-1
 132 0 l 1,0,-1
EndSplineSet
Substitution2: "'tnum' Tabular Numbers lookup 14 subtable" one.tf
Substitution2: "'sups' Superscript lookup 9 subtable" uni00B9
AlternateSubs2: "'aalt' Access All Alternates lookup 1 subtable" uni00B9 one.tf
EndChar

StartChar: two
Encoding: 50 50 7
Width: 587
GlyphClass: 1
Flags: W
HStem: 0 125<204 478> 568 112<262.133 393.704>
VStem: 420 158<421.227 544.223>
LayerCount: 2
Fore
SplineSet
-35 0 m 1,0,-1
 -9 125 l 1,1,2
 118 190 118 190 207.038022031 248.128449616 c 0,3,4
 311 316 311 316 363.487552233 373.784461174 c 0,5,6
 420 436 420 436 420 491.032642996 c 0,7,8
 420 528 420 528 392.606081095 549.485426592 c 0,9,10
 369 568 369 568 335.219983776 568 c 0,11,12
 301 568 301 568 269.837075673 550.837809791 c 0,13,14
 232 530 232 530 208 489 c 1,15,-1
 81 539 l 1,16,17
 108 587 108 587 154.628926454 620.229809657 c 0,18,19
 195 649 195 649 248.24997334 664.872588207 c 0,20,21
 299 680 299 680 350.632050063 680 c 0,22,23
 410 680 410 680 459.730459001 660.872900384 c 0,24,25
 514 640 514 640 544.031480068 602.929891791 c 0,26,27
 578 561 578 561 578 501.990956311 c 0,28,29
 578 447 578 447 546.73589856 391.890397463 c 0,30,31
 519 343 519 343 465.372890455 293.538102847 c 0,32,33
 416 248 416 248 343.091605227 202.094714402 c 0,34,35
 281 163 281 163 204 125 c 1,36,-1
 504 125 l 1,37,-1
 478 0 l 1,38,-1
 -35 0 l 1,0,-1
EndSplineSet
Substitution2: "'tnum' Tabular Numbers lookup 14 subtable" two.tf
Substitution2: "'sups' Superscript lookup 9 subtable" uni00B2
AlternateSubs2: "'aalt' Access All Alternates lookup 1 subtable" uni00B2 two.tf
EndChar

StartChar: three
Encoding: 51 51 8
Width: 619
GlyphClass: 1
Flags: W
HStem: -12 113<194.55 343.272> 291 106<227 331.254> 567 113<246.198 390.697>
VStem: 381 157.612<135.892 249.201> 419 160<439.476 542.491>
LayerCount: 2
Fore
SplineSet
264.893914132 -12 m 0,0,1
 211 -12 211 -12 165.734874396 -0.0180549871465 c 0,2,3
 109 15 109 15 71.3015409685 46.101228701 c 0,4,5
 29 81 29 81 6 140 c 1,6,-1
 155 190 l 1,7,8
 163 141 163 141 201.113412942 117.900961854 c 0,9,10
 229 101 229 101 267.783506978 101 c 0,11,12
 314 101 314 101 345.711738278 123.718857274 c 0,13,14
 381 149 381 149 381 193.222503454 c 0,15,16
 381 223 381 223 363.90293423 244.371332212 c 0,17,18
 349 263 349 263 320.051456345 274.470177674 c 0,19,20
 296 284 296 284 259.382317722 288.134254451 c 0,21,22
 234 291 234 291 205 291 c 1,23,-1
 227 397 l 1,24,25
 311 397 311 397 359.544892221 415.878569197 c 0,26,27
 419 439 419 439 419 491.973087351 c 0,28,29
 419 528 419 528 389.506647342 548.913468248 c 0,30,31
 364 567 364 567 324.678582165 567 c 0,32,33
 286 567 286 567 257.664212898 552.626774658 c 0,34,35
 217 532 217 532 204 485 c 1,36,-1
 77 535 l 1,37,38
 121 618 121 618 198.652979918 652.887570688 c 0,39,40
 259 680 259 680 339.624533353 680 c 0,41,42
 408 680 408 680 461.2793523 660.580422993 c 0,43,44
 515 641 515 641 545.092834881 606.205159669 c 0,45,46
 579 567 579 567 579 506.535232055 c 0,47,48
 579 465 579 465 561.83186284 430.663725681 c 0,49,50
 547 401 547 401 519.076093849 379.098897136 c 0,51,52
 496 361 496 361 465 349 c 1,53,54
 506 326 506 326 525.194257922 285.017665518 c 0,55,56
 543 247 543 247 538.611627593 195.656042841 c 0,57,58
 533 130 533 130 493.052048544 80.7135663854 c 0,59,60
 456 35 456 35 394.295890948 10.8325572878 c 0,61,62
 336 -12 336 -12 264.893914132 -12 c 0,0,1
EndSplineSet
Substitution2: "'tnum' Tabular Numbers lookup 14 subtable" three.tf
Substitution2: "'sups' Superscript lookup 9 subtable" uni00B3
AlternateSubs2: "'aalt' Access All Alternates lookup 1 subtable" uni00B3 three.tf
EndChar

StartChar: four
Encoding: 52 52 9
Width: 646
GlyphClass: 1
Flags: W
HStem: 0 21G<294 454.255> 141 134<193 324 508 572> 648 20G<401.096 592>
DStem2: 7 252 193 275 0.705401 0.708809<147.507 426.802> 294 0 450 0 0.207912 0.978148<32.4342 144.156 313.484 479.542>
LayerCount: 2
Fore
SplineSet
193 275 m 1,0,-1
 352 275 l 1,1,-1
 394 469 l 1,2,-1
 193 275 l 1,0,-1
294 0 m 1,3,-1
 324 141 l 1,4,-1
 -16 141 l 1,5,-1
 7 252 l 1,6,-1
 421 668 l 1,7,-1
 592 668 l 1,8,-1
 508 275 l 1,9,-1
 600 275 l 1,10,-1
 572 141 l 1,11,-1
 480 141 l 1,12,-1
 450 0 l 1,13,-1
 294 0 l 1,3,-1
EndSplineSet
Substitution2: "'tnum' Tabular Numbers lookup 14 subtable" four.tf
Substitution2: "'sups' Superscript lookup 9 subtable" uni2074
AlternateSubs2: "'aalt' Access All Alternates lookup 1 subtable" four.tf uni2074
EndChar

StartChar: five
Encoding: 53 53 10
Width: 616
GlyphClass: 1
Flags: W
HStem: -12 112<198.631 340.054> 337 111<231.296 346.293> 544 124<259 560>
VStem: 388 156<147.512 295.892>
LayerCount: 2
Fore
SplineSet
269.593026972 -12 m 0,0,1
 212 -12 212 -12 161.187931462 4.93735617925 c 0,2,3
 107 23 107 23 70.7126500637 55.9450940211 c 0,4,5
 31 92 31 92 17 142 c 1,6,-1
 156 189 l 1,7,8
 164 145 164 145 200.958170237 120.177348348 c 0,9,10
 231 100 231 100 270.597966698 100 c 0,11,12
 322 100 322 100 354.688138726 133.678688384 c 0,13,14
 388 168 388 168 388 223.521311669 c 0,15,16
 388 262 388 262 370.821027266 289.378987795 c 0,17,18
 356 313 356 313 329.011461855 325.700488539 c 0,19,20
 305 337 305 337 276.905110163 337 c 0,21,22
 244 337 244 337 215.839513652 322.450415387 c 0,23,24
 184 306 184 306 168 276 c 1,25,-1
 41 327 l 1,26,-1
 156 668 l 1,27,-1
 586 668 l 1,28,-1
 560 544 l 1,29,-1
 259 544 l 1,30,-1
 217 419 l 1,31,32
 242 433 242 433 272 440.5 c 128,-1,33
 302 448 302 448 332.819234517 448 c 0,34,35
 385 448 385 448 429.665207212 428.199959689 c 0,36,37
 482 405 482 405 510.718998307 362.84792184 c 0,38,39
 544 314 544 314 544 240.012222371 c 0,40,41
 544 162 544 162 505.493820641 102.679669637 c 0,42,43
 470 48 470 48 406.88741398 17.7059587104 c 0,44,45
 345 -12 345 -12 269.593026972 -12 c 0,0,1
EndSplineSet
Substitution2: "'tnum' Tabular Numbers lookup 14 subtable" five.tf
Substitution2: "'aalt' Access All Alternates lookup 0 subtable" five.tf
EndChar

StartChar: six
Encoding: 54 54 11
Width: 629
GlyphClass: 1
Flags: W
HStem: -12 113<229.136 357.799> 339 113<252.505 373.391> 570 110<288.969 417.732>
VStem: 43 149<138.773 291.569> 406.52 155.48<152.163 305.627>
LayerCount: 2
Fore
SplineSet
292.05305579 101 m 0,0,1
 341 101 341 101 373.701155152 137.222818015 c 0,2,3
 406 173 406 173 406.519651379 230.681303064 c 0,4,5
 407 284 407 284 378.917816419 312.602224017 c 0,6,7
 353 339 353 339 305.836796211 339 c 0,8,9
 250 339 250 339 219.257003179 299.77617647 c 0,10,11
 192 265 192 265 192 213.614272122 c 0,12,13
 192 162 192 162 219.722860167 131.252827815 c 0,14,15
 247 101 247 101 292.05305579 101 c 0,0,1
285.602973778 -12 m 0,16,17
 203 -12 203 -12 146.412216222 23.8216245935 c 0,18,19
 94 57 94 57 67.5154830182 120.355119054 c 0,20,21
 43 179 43 179 43 263.732367428 c 0,22,23
 43 344 43 344 64.6937840025 418.942162918 c 0,24,25
 87 496 87 496 127.044300151 552.447989369 c 0,26,27
 170 613 170 613 228.751624751 645.265236544 c 0,28,29
 292 680 292 680 372.779861538 680 c 0,30,31
 444 680 444 680 496.604594643 651.013794788 c 0,32,33
 542 626 542 626 567 583 c 1,34,-1
 429 535 l 1,35,36
 418 552 418 552 399.559307779 560.735064736 c 0,37,38
 380 570 380 570 354.83675669 570 c 0,39,40
 300 570 300 570 263.847689391 524.551380949 c 0,41,42
 230 482 230 482 220 409 c 1,43,44
 246 429 246 429 270.606828774 438.757880376 c 0,45,46
 304 452 304 452 347.38642789 452 c 0,47,48
 407 452 407 452 454.98894851 427.263428603 c 0,49,50
 504 402 504 402 531.679298244 357.140447673 c 0,51,52
 562 308 562 308 562 242.199248197 c 0,53,54
 562 171 562 171 526.065303042 112.289790886 c 0,55,56
 491 55 491 55 431.125335743 22.6483668935 c 0,57,58
 367 -12 367 -12 285.602973778 -12 c 0,16,17
EndSplineSet
Substitution2: "'tnum' Tabular Numbers lookup 14 subtable" six.tf
Substitution2: "'aalt' Access All Alternates lookup 0 subtable" six.tf
EndChar

StartChar: seven
Encoding: 55 55 12
Width: 561
GlyphClass: 1
Flags: W
HStem: 0 21G<13 207.738> 543 125<80 400>
VStem: 13 181<0 181>
LayerCount: 2
Fore
SplineSet
13 0 m 1,0,-1
 400 543 l 1,1,-1
 53 543 l 1,2,-1
 80 668 l 1,3,-1
 593 668 l 1,4,-1
 567 543 l 1,5,-1
 194 0 l 1,6,-1
 13 0 l 1,0,-1
EndSplineSet
Substitution2: "'tnum' Tabular Numbers lookup 14 subtable" seven.tf
Substitution2: "'aalt' Access All Alternates lookup 0 subtable" seven.tf
EndChar

StartChar: eight
Encoding: 56 56 13
Width: 623
GlyphClass: 1
Flags: W
HStem: -12 126<201.71 358.026> 294 123<264.084 357.806> 555 125<269.542 365.622>
VStem: 12 155<146.974 257.385> 121 125<433.568 531.331> 382 126<441.634 539.18> 402 154<154.518 265.524>
LayerCount: 2
Fore
SplineSet
279.494194656 114 m 0,0,1
 334 114 334 114 368.320110272 142.768327728 c 0,2,3
 402 171 402 171 402 212.685798067 c 0,4,5
 402 253 402 253 368.494077552 274.805441593 c 0,6,7
 339 294 339 294 290.897265204 294 c 0,8,9
 236 294 236 294 202.752328775 269.907484619 c 0,10,11
 167 244 167 244 167 201.186674627 c 0,12,13
 167 161 167 161 199.166654684 137.002654442 c 0,14,15
 230 114 230 114 279.494194656 114 c 0,0,1
306.816889443 417 m 0,16,17
 336 417 336 417 358.652743248 439.652743248 c 0,18,19
 382 463 382 463 382 493.55043633 c 0,20,21
 382 520 382 520 364.424999293 537.575000707 c 128,-1,22
 347 555 347 555 321.101001216 555 c 0,23,24
 292 555 292 555 269.801312295 533.76647263 c 0,25,26
 246 511 246 511 246 479.774719222 c 0,27,28
 246 453 246 453 263.53613021 434.962837498 c 128,-1,29
 281 417 281 417 306.816889443 417 c 0,16,17
272.440241471 -12 m 0,30,31
 193 -12 193 -12 133.3236585 13.5027100427 c 0,32,33
 76 38 76 38 44.2644404363 82.6281306365 c 0,34,35
 12 128 12 128 12 189.495106267 c 0,36,37
 12 254 12 254 50.280158581 302.52414468 c 0,38,39
 83 344 83 344 147 378 c 1,40,41
 135 400 135 400 128.587441518 422.443954686 c 0,42,43
 121 449 121 449 121 476.708226129 c 0,44,45
 121 528 121 528 146.389219007 573.407641686 c 0,46,47
 173 621 173 621 218.05234833 648.688422411 c 0,48,49
 269 680 269 680 331.083237678 680 c 0,50,51
 386 680 386 680 428.456306664 653.328730429 c 0,52,53
 464 631 464 631 485.472237703 593.911589421 c 0,54,55
 508 555 508 555 508 512.59896291 c 0,56,57
 508 478 508 478 493.531215921 438.451990185 c 0,58,59
 478 396 478 396 455 373 c 1,60,61
 499 350 499 350 522.947814268 318.909855161 c 0,62,63
 556 276 556 276 556 212.651928102 c 0,64,65
 556 147 556 147 519.89583259 95.6405505865 c 0,66,67
 485 46 485 46 423.846181777 18.071484591 c 0,68,69
 358 -12 358 -12 272.440241471 -12 c 0,30,31
EndSplineSet
Substitution2: "'tnum' Tabular Numbers lookup 14 subtable" eight.tf
Substitution2: "'aalt' Access All Alternates lookup 0 subtable" eight.tf
EndChar

StartChar: nine
Encoding: 57 57 14
Width: 576
GlyphClass: 1
Flags: W
HStem: 0 21G<106 284> 546 135<254.916 387.925>
VStem: 62 140<364.995 492.725> 417 139<386.167 517.348>
DStem2: 271 222 318.109 54.5783 0.571477 0.820618<-177.034 0 127.706 273.446>
LayerCount: 2
Fore
SplineSet
298.643052161 336 m 0,0,1
 334 336 334 336 362.972019355 354.778160693 c 0,2,3
 388 371 388 371 402.691490433 397.849965274 c 0,4,5
 417 424 417 424 417 454.499557523 c 0,6,7
 417 494 417 494 393.848049493 519.081279716 c 0,8,9
 369 546 369 546 324.981233723 546 c 0,10,11
 290 546 290 546 260.952585769 528.364069931 c 0,12,13
 234 512 234 512 218.394919342 484.691108848 c 0,14,15
 202 456 202 456 202 423.219655516 c 0,16,17
 202 380 202 380 232.953754306 356.105873869 c 0,18,19
 259 336 259 336 298.643052161 336 c 0,0,1
106 0 m 1,20,-1
 271 222 l 1,21,-1
 254 222 l 2,22,23
 194 224 194 224 148.555685711 253.591646514 c 0,24,25
 108 280 108 280 84.8819281087 324.728443442 c 0,26,27
 62 369 62 369 62 421.809763013 c 0,28,29
 62 473 62 473 83.9762687691 521.552221699 c 0,30,31
 105 568 105 568 142.573458118 604.070519793 c 128,-1,32
 180 640 180 640 226.742930817 659.757321273 c 0,33,34
 277 681 277 681 332.66499011 681 c 0,35,36
 396 681 396 681 447.670235644 652.862742966 c 0,37,38
 497 626 497 626 525.64873605 579.870679242 c 0,39,40
 556 531 556 531 556 473.744061197 c 0,41,42
 556 437 556 437 544.354505618 401.131877304 c 0,43,44
 531 360 531 360 490.129850448 301.738297447 c 0,45,46
 484 293 484 293 463.436282213 263.565658854 c 0,47,48
 433 220 433 220 417.396436991 197.709195702 c 0,49,50
 377 140 377 140 337.010608356 81.9761768304 c 0,51,52
 326 66 326 66 318.108675532 54.578346165 c 0,53,54
 288 11 288 11 280 0 c 1,55,-1
 106 0 l 1,20,-1
EndSplineSet
Substitution2: "'tnum' Tabular Numbers lookup 14 subtable" nine.tf
Substitution2: "'aalt' Access All Alternates lookup 0 subtable" nine.tf
EndChar

StartChar: A
Encoding: 65 65 15
Width: 698
GlyphClass: 2
Flags: W
HStem: 0 21G<-65 132.092 455.311 623> 119 128<255 427> 648 20G<317.204 515.323>
DStem2: -65 0 121 0 0.508034 0.861337<94.4943 230.524 375.321 578.832> 512 668 395 501 0.16392 -0.986474<145.562 401.372> 623 0 442 119 0.16392 -0.986474<-480.395 -275.787 -147.06 -27.0468>
AnchorPoint: "Anchor-2" 623 0 basechar 0
AnchorPoint: "Anchor-1" 427 668 basechar 0
AnchorPoint: "Anchor-0" 296 0 basechar 0
LayerCount: 2
Fore
SplineSet
255 247 m 1,0,-1
 427 247 l 1,1,-1
 395 501 l 1,2,-1
 255 247 l 1,0,-1
-65 0 m 1,3,-1
 329 668 l 1,4,-1
 512 668 l 1,5,-1
 623 0 l 1,6,-1
 458 0 l 1,7,-1
 442 119 l 1,8,-1
 187 119 l 1,9,-1
 121 0 l 1,10,-1
 -65 0 l 1,3,-1
EndSplineSet
Substitution2: "Single Substitution lookup 12 subtable" ordfeminine
Substitution2: "'aalt' Access All Alternates lookup 0 subtable" ordfeminine
EndChar

StartChar: B
Encoding: 66 66 16
Width: 643
GlyphClass: 1
Flags: W
HStem: 0 131<166 392.592> 282 122<224 406.39> 539 129<253 445.971>
VStem: 433 167<168.419 264.399> 464 169<434.876 524.903>
DStem2: -23 0 138.155 0 0.207912 0.978148<167.433 321.786 446.526 584.605>
AnchorPoint: "Anchor-1" 336 668 basechar 0
LayerCount: 2
Fore
SplineSet
166 131 m 1,0,-1
 313 131 l 2,1,2
 366 131 366 131 400.32313906 158.151139854 c 0,3,4
 433 184 433 184 433 219.739408171 c 0,5,6
 433 251 433 251 407.149051208 267.027588251 c 0,7,8
 383 282 383 282 339 282 c 2,9,-1
 198 282 l 1,10,-1
 166 131 l 1,0,-1
224 404 m 1,11,-1
 363 404 l 2,12,13
 407 404 407 404 434.726561513 424.916528861 c 0,14,15
 464 447 464 447 464 481.750433062 c 0,16,17
 464 509 464 509 446.555837495 523.536802088 c 0,18,19
 428 539 428 539 391 539 c 2,20,-1
 253 539 l 1,21,-1
 224 404 l 1,11,-1
-23 0 m 1,22,-1
 119 668 l 1,23,-1
 413 668 l 2,24,25
 472 668 472 668 515.607553023 657.534187275 c 0,26,27
 572 644 572 644 600.359347505 615.175745159 c 0,28,29
 633 582 633 582 633 523.067665083 c 0,30,31
 633 468 633 468 604.961681708 424.220871439 c 0,32,33
 576 379 576 379 523 355 c 1,34,35
 558 339 558 339 577.212794721 311.095702906 c 0,36,37
 600 278 600 278 600 223.835946404 c 0,38,39
 600 149 600 149 554.02454527 95.6261962335 c 0,40,41
 513 48 513 48 437.956331162 22.9854437206 c 0,42,43
 369 0 369 0 283 0 c 2,44,-1
 -23 0 l 1,22,-1
EndSplineSet
EndChar

StartChar: C
Encoding: 67 67 17
Width: 673
GlyphClass: 2
Flags: W
HStem: -12 132.399<261.846 421.228> 550 130<318.668 483.814>
VStem: 32 168<186.126 403.978>
AnchorPoint: "Anchor-1" 428 668 basechar 0
AnchorPoint: "Anchor-0" 311 0 basechar 0
LayerCount: 2
Fore
SplineSet
325.207936506 -12 m 0,0,1
 240 -12 240 -12 175.808685421 17.6641681008 c 0,2,3
 108 49 108 49 71.6205154078 107.877323748 c 0,4,5
 32 172 32 172 32 271.698220197 c 0,6,7
 32 354 32 354 58.877035787 429.156155627 c 0,8,9
 86 505 86 505 135.17202079 560.072663285 c 0,10,11
 186 617 186 617 255.433055932 647.589388278 c 0,12,13
 329 680 329 680 412.88920161 680 c 0,14,15
 469 680 469 680 515.82465146 666.816360269 c 0,16,17
 572 651 572 651 609.299497447 619.29542717 c 0,18,19
 652 583 652 583 671 525 c 1,20,-1
 525 476 l 1,21,22
 507 518 507 518 470.492338052 535.973002805 c 0,23,24
 442 550 442 550 403.173801039 550 c 0,25,26
 354 550 354 550 314.245339609 525.824868681 c 0,27,28
 280 505 280 505 253.494371617 466.261004672 c 0,29,30
 228 429 228 429 214.123073985 381.91757245 c 0,31,32
 200 334 200 334 200 284.208802282 c 0,33,34
 200 202 200 202 241.032059289 158.836405164 c 0,35,36
 277 121 277 121 336.455067396 120.399443764 c 0,37,38
 376 120 376 120 408.098082796 134.265814576 c 0,39,40
 448 152 448 152 480 194 c 1,41,-1
 616 141 l 1,42,43
 570 70 570 70 500.752923453 31.1078063227 c 0,44,45
 424 -12 424 -12 325.207936506 -12 c 0,0,1
EndSplineSet
EndChar

StartChar: D
Encoding: 68 68 18
Width: 690
GlyphClass: 2
Flags: W
HStem: 0 133<167 349.155> 537 131<253 430.542>
DStem2: -23 0 138.73 0 0.207912 0.978148<169.597 582.649>
AnchorPoint: "Anchor-1" 391 668 basechar 0
AnchorPoint: "Anchor-0" 292 0 basechar 0
LayerCount: 2
Fore
SplineSet
167 133 m 1,0,-1
 230 133 l 2,1,2
 311 133 311 133 368.27344675 162.950334539 c 0,3,4
 420 190 420 190 451.350509163 241.908220089 c 0,5,6
 481 291 481 291 489.003347189 360.923980708 c 0,7,8
 500 457 500 457 459.474380349 497.025303359 c 128,-1,9
 419 537 419 537 311 537 c 2,10,-1
 253 537 l 1,11,-1
 167 133 l 1,0,-1
-23 0 m 1,12,-1
 119 668 l 1,13,-1
 313 668 l 2,14,15
 501 668 501 668 589.920234037 579.079765963 c 0,16,17
 683 486 683 486 652.031093572 316.316200199 c 0,18,19
 635 223 635 223 586.773544597 157.433695464 c 0,20,21
 546 102 546 102 479.287380109 64.4079681564 c 0,22,23
 420 31 420 31 341.872054421 14.4111896373 c 0,24,25
 274 0 274 0 200 0 c 2,26,-1
 -23 0 l 1,12,-1
EndSplineSet
EndChar

StartChar: E
Encoding: 69 69 19
Width: 582
GlyphClass: 2
Flags: W
HStem: 0 139<168 495> 274 139<226 414> 529 139<251 607>
DStem2: -23 0 138.455 0 0.207912 0.978148<175.674 313.753 455.745 574.408>
AnchorPoint: "Anchor-2" 463 0 basechar 0
AnchorPoint: "Anchor-1" 381 668 basechar 0
AnchorPoint: "Anchor-0" 238 0 basechar 0
LayerCount: 2
Fore
SplineSet
-23 0 m 1,0,-1
 119 668 l 1,1,-1
 637 668 l 1,2,-1
 607 529 l 1,3,-1
 251 529 l 1,4,-1
 226 413 l 1,5,-1
 443 413 l 1,6,-1
 414 274 l 1,7,-1
 197 274 l 1,8,-1
 168 139 l 1,9,-1
 524 139 l 1,10,-1
 495 0 l 1,11,-1
 -23 0 l 1,0,-1
EndSplineSet
EndChar

StartChar: F
Encoding: 70 70 20
Width: 545
GlyphClass: 1
Flags: W
HStem: 0 21G<-23 142.307> 274 139<226 517> 529 139<251 571>
VStem: -23 161<0 161>
DStem2: -23 0 138 0 0.207912 0.978148<33.4738 313.753 455.745 574.408>
AnchorPoint: "Anchor-1" 350 668 basechar 0
LayerCount: 2
Fore
SplineSet
-23 0 m 1,0,-1
 119 668 l 1,1,-1
 600 668 l 1,2,-1
 571 529 l 1,3,-1
 251 529 l 1,4,-1
 226 413 l 1,5,-1
 546 413 l 1,6,-1
 517 274 l 1,7,-1
 197 274 l 1,8,-1
 138 0 l 1,9,-1
 -23 0 l 1,0,-1
EndSplineSet
EndChar

StartChar: G
Encoding: 71 71 21
Width: 733
GlyphClass: 2
Flags: W
HStem: -12 129<261.307 410.114> 0 21G<508.378 621.286> 250 128<386 509> 550 130<316.758 482.309>
VStem: 31 168<182.391 404.011>
AnchorPoint: "Anchor-1" 440 668 basechar 0
AnchorPoint: "Anchor-0" 304 0 basechar 0
LayerCount: 2
Fore
SplineSet
292.281171822 -12 m 0,0,1
 215 -12 215 -12 157.977877695 19.012031429 c 128,-1,2
 101 50 101 50 68.3108987958 106.972433527 c 0,3,4
 31 172 31 172 31 267.775329055 c 0,5,6
 31 350 31 350 58.1703405949 425.582947473 c 0,7,8
 86 503 86 503 137.072447138 559.526786153 c 0,9,10
 189 617 189 617 258.955084924 647.605349654 c 0,11,12
 333 680 333 680 420.429927227 680 c 0,13,14
 510 680 510 680 572.452426801 648.542481315 c 0,15,16
 645 612 645 612 677 535 c 1,17,-1
 529 478 l 1,18,19
 519 504 519 504 490.681632275 523.442461423 c 0,20,21
 452 550 452 550 399.956276647 550 c 0,22,23
 351 550 351 550 310.811896528 524.815455158 c 0,24,25
 276 503 276 503 249.903277784 463.087366023 c 0,26,27
 225 425 225 425 211.70088826 375.384083126 c 0,28,29
 199 328 199 328 199 280.958622407 c 0,30,31
 199 198 199 198 240.509661686 155.439460803 c 0,32,33
 278 117 278 117 341.684069804 117 c 0,34,35
 378 117 378 117 410.664083664 129.008854288 c 0,36,37
 446 142 446 142 469.18625797 164.731625461 c 0,38,39
 497 192 497 192 505 231 c 2,40,-1
 509 250 l 1,41,-1
 359 250 l 1,42,-1
 386 378 l 1,43,-1
 698 378 l 1,44,-1
 617 0 l 1,45,-1
 510 0 l 1,46,-1
 504 74 l 1,47,48
 421 -12 421 -12 292.281171822 -12 c 0,0,1
EndSplineSet
EndChar

StartChar: H
Encoding: 72 72 22
Width: 695
GlyphClass: 1
Flags: W
HStem: 0 21G<-23 142.307 414 579.251> 274 139<226 472> 648 20G<114.749 279 551.765 717>
VStem: -23 161<0 161> 119 160<508 668> 414 161<0 161> 556 161<507 668>
DStem2: -23 0 138 0 0.207912 0.978148<33.4738 313.753 455.745 682.926> 414 0 575 0 0.207912 0.978148<33.4738 280.071 422.271 682.926>
AnchorPoint: "Anchor-1" 413 668 basechar 0
LayerCount: 2
Fore
SplineSet
-23 0 m 1,0,-1
 119 668 l 1,1,-1
 279 668 l 1,2,-1
 226 413 l 1,3,-1
 502 413 l 1,4,-1
 556 668 l 1,5,-1
 717 668 l 1,6,-1
 575 0 l 1,7,-1
 414 0 l 1,8,-1
 472 274 l 1,9,-1
 197 274 l 1,10,-1
 138 0 l 1,11,-1
 -23 0 l 1,0,-1
EndSplineSet
EndChar

StartChar: I
Encoding: 73 73 23
Width: 459
GlyphClass: 2
Flags: W
HStem: 0 124<13 105 267 331> 544 124<129 195 355 447>
DStem2: 78.643 0 240.643 0 0.207912 0.978148<160.452 556.304>
AnchorPoint: "Anchor-2" 242 0 basechar 0
AnchorPoint: "Anchor-1" 301 668 basechar 0
AnchorPoint: "Anchor-0" 151 0 basechar 0
LayerCount: 2
Fore
SplineSet
-13 0 m 1,0,-1
 13 124 l 1,1,-1
 105 124 l 1,2,-1
 195 544 l 1,3,-1
 103 544 l 1,4,-1
 129 668 l 1,5,-1
 474 668 l 1,6,-1
 447 544 l 1,7,-1
 355 544 l 1,8,-1
 267 124 l 1,9,-1
 358 124 l 1,10,-1
 331 0 l 1,11,-1
 -13 0 l 1,0,-1
EndSplineSet
EndChar

StartChar: J
Encoding: 74 74 24
Width: 566
GlyphClass: 1
Flags: W
HStem: -12 125<148.721 283.497> 648 20G<421.777 588>
VStem: 426 162<506 668>
DStem2: 282.035 -12 443.035 -12 0.207912 0.978148<154.331 695.072>
AnchorPoint: "Anchor-1" 507 668 basechar 0
LayerCount: 2
Fore
SplineSet
202.260283253 -12 m 0,0,1
 127 -12 127 -12 74.4505671197 14.810935143 c 0,2,3
 29 38 29 38 1.98942189359 80.5166507231 c 128,-1,4
 -25 123 -25 123 -28 176 c 1,5,-1
 129 228 l 1,6,7
 128 221 128 221 128 209 c 0,8,9
 128 162 128 162 144.521243852 139.512751423 c 0,10,11
 164 113 164 113 213.079866316 113 c 0,12,13
 267 113 267 113 295.103993752 145.118850003 c 0,14,15
 323 177 323 177 339 256 c 2,16,-1
 426 668 l 1,17,-1
 588 668 l 1,18,-1
 500 256 l 2,19,20
 478 153 478 153 436.320606142 92.796431094 c 0,21,22
 397 36 397 36 331.333182585 9.95035342206 c 0,23,24
 276 -12 276 -12 202.260283253 -12 c 0,0,1
EndSplineSet
EndChar

StartChar: K
Encoding: 75 75 25
Width: 657
GlyphClass: 2
Flags: W
HStem: 0 21G<-23 142.264 400.819 577> 648 20G<114.749 279 478.521 715>
VStem: -23 161<0 161> 119 160<508 668> 501 214<454 668>
DStem2: -23 0 138 0 0.207912 0.978148<33.4738 234.901 469.085 682.926> 229 426 384 377 0.750574 0.660786<83.9605 364.066> 384 377 270 277 0.455693 -0.890137<37.0646 347.885>
AnchorPoint: "Anchor-1" 400 668 basechar 0
AnchorPoint: "Anchor-0" 265 0 basechar 0
LayerCount: 2
Fore
SplineSet
-23 0 m 1,0,-1
 119 668 l 1,1,-1
 279 668 l 1,2,-1
 229 426 l 1,3,-1
 501 668 l 1,4,-1
 715 668 l 1,5,-1
 384 377 l 1,6,-1
 577 0 l 1,7,-1
 411 0 l 1,8,-1
 270 277 l 1,9,-1
 180 197 l 1,10,-1
 138 0 l 1,11,-1
 -23 0 l 1,0,-1
EndSplineSet
EndChar

StartChar: L
Encoding: 76 76 26
Width: 543
GlyphClass: 2
Flags: W
HStem: 0 139<168 458> 648 20G<114.749 279>
VStem: 119 160<508 668>
DStem2: -23 0 138.455 0 0.207912 0.978148<175.674 682.926>
AnchorPoint: "Anchor-1" 216 668 basechar 0
AnchorPoint: "Anchor-0" 219 0 basechar 0
LayerCount: 2
Fore
SplineSet
-23 0 m 1,0,-1
 119 668 l 1,1,-1
 279 668 l 1,2,-1
 168 139 l 1,3,-1
 488 139 l 1,4,-1
 458 0 l 1,5,-1
 -23 0 l 1,0,-1
EndSplineSet
EndChar

StartChar: M
Encoding: 77 77 27
Width: 858
GlyphClass: 1
Flags: W
HStem: 0 21G<-23 138.24 292.236 436.353 581 741.281> 648 20G<114.749 357.6 624.853 880>
VStem: -23 157<0 157> 581 156<0 156>
DStem2: -23 0 134 0 0.207912 0.978148<32.6421 577.489> 356 668 247 533 0.0878393 -0.996135<124.904 476.502> 394 193 426 0 0.459707 0.888071<0 417.592> 581 0 737 0 0.207912 0.978148<32.4342 521.518>
AnchorPoint: "Anchor-1" 487 668 basechar 0
LayerCount: 2
Fore
SplineSet
-23 0 m 1,0,-1
 119 668 l 1,1,-1
 356 668 l 1,2,-1
 394 193 l 1,3,-1
 635 668 l 1,4,-1
 880 668 l 1,5,-1
 737 0 l 1,6,-1
 581 0 l 1,7,-1
 690 510 l 1,8,-1
 426 0 l 1,9,-1
 294 0 l 1,10,-1
 247 533 l 1,11,-1
 134 0 l 1,12,-1
 -23 0 l 1,0,-1
EndSplineSet
EndChar

StartChar: N
Encoding: 78 78 28
Width: 715
GlyphClass: 2
Flags: W
HStem: 0 21G<-23 137.247 389.402 599.251> 648 20G<114.749 324.598 577.711 737>
VStem: -23 156<0 156> 582 155<513 668>
DStem2: -23 0 133 0 0.207912 0.978148<32.4342 528.251> 318 668 236 485 0.313289 -0.949658<148.098 510.71> 439.102 0 595 0 0.207912 0.978148<187.088 683.113>
AnchorPoint: "Anchor-1" 456 668 basechar 0
AnchorPoint: "Anchor-0" 285 0 basechar 0
LayerCount: 2
Fore
SplineSet
-23 0 m 1,0,-1
 119 668 l 1,1,-1
 318 668 l 1,2,-1
 478 183 l 1,3,-1
 582 668 l 1,4,-1
 737 668 l 1,5,-1
 595 0 l 1,6,-1
 396 0 l 1,7,-1
 236 485 l 1,8,-1
 133 0 l 1,9,-1
 -23 0 l 1,0,-1
EndSplineSet
EndChar

StartChar: O
Encoding: 79 79 29
Width: 763
GlyphClass: 2
Flags: W
HStem: -12 130<269.044 438.114> 550 130<328.017 492.176>
VStem: 32 169<191.684 402.266> 564 168<264.215 475.467>
AnchorPoint: "Anchor-2" 636 10 basechar 0
AnchorPoint: "Anchor-1" 456 668 basechar 0
AnchorPoint: "Anchor-0" 329 0 basechar 0
LayerCount: 2
Fore
SplineSet
350.448178395 118 m 0,0,1
 414 118 414 118 464.427419781 156.345850458 c 0,2,3
 510 191 510 191 536.86142961 250.692065799 c 0,4,5
 564 311 564 311 564 378.193163174 c 0,6,7
 564 438 564 438 540.450940586 479.073940839 c 0,8,9
 521 513 521 513 486.190085147 531.940688964 c 0,10,11
 453 550 453 550 411.415960647 550 c 0,12,13
 365 550 365 550 323.708751856 526.479668779 c 0,14,15
 286 505 286 505 257.41658067 466.208216624 c 0,16,17
 230 429 230 429 215.308428663 381.379044633 c 0,18,19
 201 335 201 335 201 289.191609567 c 0,20,21
 201 240 201 240 217.192439156 202.708321945 c 0,22,23
 234 164 234 164 264.822527565 142.517632303 c 0,24,25
 300 118 300 118 350.448178395 118 c 0,0,1
333.451929661 -12 m 0,26,27
 239 -12 239 -12 169.669344013 24.462789445 c 0,28,29
 104 59 104 59 68.1866685852 122.170737357 c 0,30,31
 32 186 32 186 32 275.172198224 c 0,32,33
 32 355 32 355 61.0156952583 429.540320577 c 128,-1,34
 90 504 90 504 142.49469503 559.961325834 c 0,35,36
 196 617 196 617 265.980081883 647.616285824 c 0,37,38
 340 680 340 680 428.082904493 680 c 0,39,40
 517 680 517 680 584.575696655 647.445284823 c 0,41,42
 654 614 654 614 691.591068538 552.312092656 c 0,43,44
 732 486 732 486 732 388.93470493 c 0,45,46
 732 306 732 306 702.075603184 231.442604544 c 0,47,48
 673 159 673 159 619.957556607 104.470385297 c 0,49,50
 566 49 566 49 495.616112023 19.3902264373 c 0,51,52
 421 -12 421 -12 333.451929661 -12 c 0,26,27
EndSplineSet
Substitution2: "Single Substitution lookup 12 subtable" ordmasculine
Substitution2: "'aalt' Access All Alternates lookup 0 subtable" ordmasculine
EndChar

StartChar: P
Encoding: 80 80 30
Width: 628
GlyphClass: 1
Flags: W
HStem: 0 21G<-23 142.224> 232 131<216 423.275> 535 133<252 443.825>
VStem: -23 161<0 161> 470 168<404.608 510.177>
DStem2: -23 0 138 0 0.207912 0.978148<33.4738 270.592 404.758 580.485>
AnchorPoint: "Anchor-1" 348 668 basechar 0
LayerCount: 2
Fore
SplineSet
216 363 m 1,0,-1
 319 363 l 2,1,2
 388 363 388 363 426.25788957 386.327981445 c 0,3,4
 470 413 470 413 470 459.539427855 c 0,5,6
 470 535 470 535 355 535 c 2,7,-1
 252 535 l 1,8,-1
 216 363 l 1,0,-1
-23 0 m 1,9,-1
 119 668 l 1,10,-1
 379 668 l 2,11,12
 476 668 476 668 535.111409626 645.506277753 c 0,13,14
 589 625 589 625 614.751016428 582.957524199 c 0,15,16
 638 545 638 545 638 482.715234128 c 0,17,18
 638 399 638 399 594.885890439 340.487994167 c 0,19,20
 554 285 554 285 476.193301813 257.508299974 c 0,21,22
 404 232 404 232 304 232 c 2,23,-1
 187 232 l 1,24,-1
 138 0 l 1,25,-1
 -23 0 l 1,9,-1
EndSplineSet
EndChar

StartChar: Q
Encoding: 81 81 31
Width: 774
GlyphClass: 1
Flags: W
HStem: 14 131<275.207 431.843> 576 130<332.47 498.216>
VStem: 37 169<218.408 428.114> 569 168<291.62 502.516>
DStem2: 421 363 330 285 0.645035 -0.764153<0.905746 158.137 307.603 444.054>
LayerCount: 2
Fore
SplineSet
353.931914345 145 m 0,0,1
 396 145 396 145 433 162 c 1,2,-1
 330 285 l 1,3,-1
 421 363 l 1,4,-1
 524 243 l 1,5,6
 545 278 545 278 556.944614205 320.801534234 c 0,7,8
 569 364 569 364 569 406.818241857 c 0,9,10
 569 464 569 464 545.8565651 504.904675637 c 0,11,12
 526 540 526 540 490.517831972 558.784677191 c 0,13,14
 458 576 458 576 416.94048078 576 c 0,15,16
 370 576 370 576 328.598028547 552.416598539 c 0,17,18
 291 531 291 531 262.564062098 492.40836999 c 0,19,20
 235 455 235 455 220.223263355 406.593448921 c 0,21,22
 206 360 206 360 206 314.743856643 c 0,23,24
 206 266 206 266 222.23328198 229.106177319 c 0,25,26
 239 191 239 191 269.896757905 169.465896006 c 0,27,28
 305 145 305 145 353.931914345 145 c 0,0,1
617 -55 m 1,29,-1
 523 56 l 1,30,31
 483 36 483 36 437.84246415 25.3175721645 c 0,32,33
 390 14 390 14 337.548167133 14 c 0,34,35
 244 14 244 14 174.494437774 51.0696331871 c 0,36,37
 109 86 109 86 73.1555936332 149.225550119 c 0,38,39
 37 213 37 213 37 301.62656573 c 0,40,41
 37 381 37 381 66.0921742341 455.736792429 c 0,42,43
 95 530 95 530 146.665561624 585.601985367 c 0,44,45
 200 643 200 643 270.002825135 673.626235997 c 0,46,47
 344 706 344 706 432.076105506 706 c 0,48,49
 521 706 521 706 588.892984885 673.529442012 c 0,50,51
 659 640 659 640 696.820949465 577.93485216 c 0,52,53
 737 512 737 512 737 418.832092683 c 0,54,55
 737 339 737 339 708.393587475 263.847560317 c 0,56,57
 678 184 678 184 622 127 c 1,58,-1
 709 25 l 1,59,-1
 617 -55 l 1,29,-1
EndSplineSet
EndChar

StartChar: R
Encoding: 82 82 32
Width: 644
GlyphClass: 2
Flags: W
HStem: 0 21G<-23 142.286 380.841 557> 535 133<252 442.811>
VStem: -23 161<0 161> 463 167<415.794 515.332>
DStem2: -23 0 138 0 0.207912 0.978148<33.4738 291.194 426.131 580.485> 420 269 263 252 0.453827 -0.89109<0 226.542>
AnchorPoint: "Anchor-1" 380 668 basechar 0
AnchorPoint: "Anchor-0" 269 0 basechar 0
LayerCount: 2
Fore
SplineSet
220 384 m 1,0,-1
 323 384 l 2,1,2
 362 384 362 384 388.344782891 389.436225041 c 0,3,4
 425 397 425 397 443.013581958 415.487623588 c 0,5,6
 463 436 463 436 463 468.964309743 c 0,7,8
 463 511 463 511 424.21339566 525.321207756 c 0,9,10
 398 535 398 535 346 535 c 2,11,-1
 252 535 l 1,12,-1
 220 384 l 1,0,-1
-23 0 m 1,13,-1
 119 668 l 1,14,-1
 369 668 l 2,15,16
 491 668 491 668 554.935064096 630.742876318 c 0,17,18
 630 587 630 587 630 479.013226219 c 0,19,20
 630 387 630 387 573.669268289 333.770042512 c 0,21,22
 521 284 521 284 420 269 c 1,23,-1
 557 0 l 1,24,-1
 391 0 l 1,25,-1
 263 252 l 1,26,-1
 192 252 l 1,27,-1
 138 0 l 1,28,-1
 -23 0 l 1,13,-1
EndSplineSet
EndChar

StartChar: S
Encoding: 83 83 33
Width: 642
GlyphClass: 2
Flags: W
HStem: -12 126<223.472 397.649> 551 129<247.403 410.978>
VStem: 61 163<446.796 530.809> 424 164<138.705 222.467>
DStem2: 365.787 397.827 289.031 271.529 0.956363 -0.292181<-146.022 99.602>
AnchorPoint: "Anchor-1" 370 668 basechar 0
AnchorPoint: "Anchor-0" 288 0 basechar 0
LayerCount: 2
Fore
SplineSet
301.726214216 -12 m 0,0,1
 197 -12 197 -12 119.223479223 32.8710696789 c 0,2,3
 41 78 41 78 10 157 c 1,4,-1
 165 209 l 1,5,6
 173 176 173 176 197.804934996 153.352015873 c 0,7,8
 219 134 219 134 252.458105794 123.378379113 c 0,9,10
 282 114 282 114 313.964431133 114 c 0,11,12
 357 114 357 114 387.573778252 129.51505165 c 0,13,14
 424 148 424 148 424 180.338882554 c 0,15,16
 424 204 424 204 402.698355616 222.570664335 c 0,17,18
 385 238 385 238 342.2213522 253.795193034 c 0,19,20
 320 262 320 262 289.031200468 271.528861394 c 0,21,22
 242 286 242 286 212.361240086 297.547568798 c 0,23,24
 165 316 165 316 134.994595704 336.772972205 c 0,25,26
 100 361 100 361 82.0373389312 391.398349501 c 0,27,28
 61 427 61 427 61 476.58891589 c 0,29,30
 61 529 61 529 86.1273827904 570.166137763 c 0,31,32
 108 606 108 606 148.613167462 631.704536368 c 0,33,34
 187 656 187 656 238.895037457 668.45480899 c 0,35,36
 287 680 287 680 336.96756683 680 c 0,37,38
 391 680 391 680 436.907295966 667.605030089 c 0,39,40
 491 653 491 653 531.435240313 623.254535862 c 0,41,42
 578 589 578 589 606 535 c 1,43,-1
 451 483 l 1,44,45
 438 518 438 518 397.187233426 536.705851346 c 0,46,47
 366 551 366 551 323.577934257 551 c 0,48,49
 278 551 278 551 250.535303813 534.216018997 c 0,50,51
 224 518 224 518 224 489.463117477 c 0,52,53
 224 465 224 465 245.71499117 446.625776702 c 0,54,55
 263 432 263 432 301.511268692 417.780454637 c 0,56,57
 328 408 328 408 365.786731393 397.82664924 c 0,58,59
 406 387 406 387 434.104343488 377.271573408 c 0,60,61
 484 360 484 360 514.396037281 340.359483603 c 0,62,63
 549 318 549 318 566.883394675 288.65289079 c 0,64,65
 588 254 588 254 588 203.501651159 c 0,66,67
 588 134 588 134 545.425353176 82.3782407264 c 0,68,69
 508 37 508 37 442.534993073 12.1334469812 c 0,70,71
 379 -12 379 -12 301.726214216 -12 c 0,0,1
EndSplineSet
EndChar

StartChar: T
Encoding: 84 84 34
Width: 617
GlyphClass: 2
Flags: W
HStem: 0 21G<158 323.197> 529 139<87 270 430 644>
VStem: 158 161<0 161>
DStem2: 158 0 319 0 0.207912 0.978148<33.4738 540.726>
AnchorPoint: "Anchor-1" 395 668 basechar 0
AnchorPoint: "Anchor-0" 253 0 basechar 0
LayerCount: 2
Fore
SplineSet
158 0 m 1,0,-1
 270 529 l 1,1,-1
 57 529 l 1,2,-1
 87 668 l 1,3,-1
 673 668 l 1,4,-1
 644 529 l 1,5,-1
 430 529 l 1,6,-1
 319 0 l 1,7,-1
 158 0 l 1,0,-1
EndSplineSet
EndChar

StartChar: U
Encoding: 85 85 35
Width: 679
GlyphClass: 2
Flags: W
HStem: -12 129<213.247 382.827> 648 20G<115.691 281 535.733 701>
VStem: 26 162<141.947 333.125> 120 161<507 668> 540 161<507 668>
DStem2: -25.6172 -12 137.201 -12 0.207912 0.978148<214.973 695.416> 395.146 -12 556.383 -12 0.207912 0.978148<174.665 695.257>
AnchorPoint: "Anchor-2" 376 0 basechar 0
AnchorPoint: "Anchor-1" 414 668 basechar 0
AnchorPoint: "Anchor-0" 287 0 basechar 0
LayerCount: 2
Fore
SplineSet
272.847996601 -12 m 0,0,1
 176 -12 176 -12 118.940392775 16.2580911973 c 0,2,3
 71 40 71 40 47.1766064343 87.6467871314 c 0,4,5
 26 130 26 130 26 188.298989346 c 0,6,7
 26 212 26 212 29.8122753417 240.319759681 c 0,8,9
 33 264 33 264 39 292 c 2,10,-1
 120 668 l 1,11,-1
 281 668 l 1,12,-1
 198 279 l 2,13,14
 194 258 194 258 192.097184215 246.265969328 c 0,15,16
 188 221 188 221 188 203.951543961 c 0,17,18
 188 164 188 164 207.88670656 143.229439816 c 0,19,20
 233 117 233 117 294.925666202 117 c 0,21,22
 349 117 349 117 382.872118547 138.506107014 c 0,23,24
 412 157 412 157 431.272396682 197.196713079 c 0,25,26
 447 230 447 230 457 279 c 2,27,-1
 540 668 l 1,28,-1
 701 668 l 1,29,-1
 621 292 l 2,30,31
 601 198 601 198 569.761914662 137.060128602 c 0,32,33
 540 79 540 79 496.611639247 45.3102140033 c 0,34,35
 455 13 455 13 390.83120091 -0.949738932566 c 0,36,37
 340 -12 340 -12 272.847996601 -12 c 0,0,1
EndSplineSet
EndChar

StartChar: V
Encoding: 86 86 36
Width: 662
GlyphClass: 1
Flags: W
HStem: 0 21G<163.485 367.018> 648 20G<82 241.996 535.532 724>
VStem: 82 158<510 668>
DStem2: 240 668 82 668 0.124766 -0.992186<0 493.277> 289 177 356 0 0.482523 0.875883<0 554.067>
LayerCount: 2
Fore
SplineSet
166 0 m 1,0,-1
 82 668 l 1,1,-1
 240 668 l 1,2,-1
 289 177 l 1,3,-1
 546 668 l 1,4,-1
 724 668 l 1,5,-1
 356 0 l 1,6,-1
 166 0 l 1,0,-1
EndSplineSet
EndChar

StartChar: W
Encoding: 87 87 37
Width: 889
GlyphClass: 1
Flags: W
HStem: 0 21G<100.431 274.596 468 657.072> 648 20G<82 235 410.525 588 774.577 951>
VStem: 82 153<421.895 668> 468 120<205 470>
DStem2: 230 222 266 0 0.394863 0.91874<0 321.825>
AnchorPoint: "Anchor-1" 494 668 basechar 0
LayerCount: 2
Fore
SplineSet
101 0 m 1,0,-1
 82 668 l 1,1,-1
 235 668 l 1,2,-1
 230 222 l 1,3,-1
 419 668 l 1,4,-1
 588 668 l 1,5,-1
 588 205 l 1,6,-1
 783 668 l 1,7,-1
 951 668 l 1,8,-1
 648 0 l 1,9,-1
 468 0 l 1,10,-1
 468 470 l 1,11,-1
 266 0 l 1,12,-1
 101 0 l 1,0,-1
EndSplineSet
EndChar

StartChar: X
Encoding: 88 88 38
Width: 706
GlyphClass: 1
Flags: W
HStem: 0 21G<-60 169.286 438 621> 648 20G<115 296.052 539.571 768>
VStem: -60 211<0 211> 558 210<458 668>
DStem2: -60 0 151 0 0.679101 0.734045<143.29 427.827 650.302 910.026> 286 668 115 668 0.448284 -0.893891<0 213.768 434.954 669.741>
LayerCount: 2
Fore
SplineSet
-60 0 m 1,0,-1
 270 356 l 1,1,-1
 115 668 l 1,2,-1
 286 668 l 1,3,-1
 382 477 l 1,4,-1
 558 668 l 1,5,-1
 768 668 l 1,6,-1
 456 331 l 1,7,-1
 621 0 l 1,8,-1
 448 0 l 1,9,-1
 343 210 l 1,10,-1
 151 0 l 1,11,-1
 -60 0 l 1,0,-1
EndSplineSet
EndChar

StartChar: Y
Encoding: 89 89 39
Width: 700
GlyphClass: 2
Flags: W
HStem: 0 21G<191 358.149> 648 20G<82 259.209 542.188 762>
VStem: 191 163<0 163> 558 204<464 668>
DStem2: 339 391 404 241 0.642476 0.766306<0 352.969>
AnchorPoint: "Anchor-1" 403 668 basechar 0
AnchorPoint: "Anchor-0" 297 0 basechar 0
LayerCount: 2
Fore
SplineSet
191 0 m 1,0,-1
 242 241 l 1,1,-1
 82 668 l 1,2,-1
 253 668 l 1,3,-1
 339 391 l 1,4,-1
 558 668 l 1,5,-1
 762 668 l 1,6,-1
 404 241 l 1,7,-1
 354 0 l 1,8,-1
 191 0 l 1,0,-1
EndSplineSet
EndChar

StartChar: Z
Encoding: 90 90 40
Width: 632
GlyphClass: 2
Flags: W
HStem: 0 139<221 530> 529 139<130 411>
DStem2: -12 121 221 139 0.719753 0.69423<180.199 587.701>
AnchorPoint: "Anchor-1" 407 668 basechar 0
AnchorPoint: "Anchor-0" 263 0 basechar 0
LayerCount: 2
Fore
SplineSet
-38 0 m 1,0,-1
 -12 121 l 1,1,-1
 411 529 l 1,2,-1
 100 529 l 1,3,-1
 130 668 l 1,4,-1
 668 668 l 1,5,-1
 642 547 l 1,6,-1
 221 139 l 1,7,-1
 560 139 l 1,8,-1
 530 0 l 1,9,-1
 -38 0 l 1,0,-1
EndSplineSet
EndChar

StartChar: a
Encoding: 97 97 41
Width: 545
GlyphClass: 2
Flags: W
HStem: -12 103<114.936 234.013> 0 21G<295.305 441> 407 103<200.948 328.833>
VStem: -18 161<102.514 181.323> 344 150<314.535 395.9>
AnchorPoint: "Anchor-2" 446 0 basechar 0
AnchorPoint: "Anchor-1" 298 496 basechar 0
AnchorPoint: "Anchor-0" 219 0 basechar 0
LayerCount: 2
Fore
SplineSet
208.687048656 91 m 0,0,1
 249 91 249 91 275.599797331 114.894733196 c 0,2,3
 308 144 308 144 325 213 c 2,4,-1
 328 225 l 1,5,6
 244 218 244 218 199.498975484 200.816436078 c 0,7,8
 143 179 143 179 143 139.124173252 c 0,9,10
 143 116 143 116 163.132121875 102.755182977 c 0,11,12
 181 91 181 91 208.687048656 91 c 0,0,1
137.87297588 -12 m 0,13,14
 92 -12 92 -12 57.589413401 3.68717918484 c 0,15,16
 24 19 24 19 4.1912149811 46.8266265742 c 0,17,18
 -18 78 -18 78 -18 121.619747038 c 0,19,20
 -18 174 -18 174 16.6046508434 212.389534529 c 0,21,22
 46 245 46 245 104.553857985 268.200585239 c 0,23,24
 152 287 152 287 226.705308159 300.148134236 c 0,25,26
 277 309 277 309 338 315 c 1,27,28
 342 330 342 330 343.303337045 341.730033408 c 0,29,30
 344 348 344 348 344 353.624890282 c 0,31,32
 344 383 344 383 323.514768655 395.938040849 c 0,33,34
 306 407 306 407 275.229350606 407 c 0,35,36
 240 407 240 407 213.543623451 393.29937643 c 0,37,38
 184 378 184 378 170 348 c 1,39,-1
 53 394 l 1,40,41
 91 453 91 453 150.024624378 481.511894827 c 128,-1,42
 209 510 209 510 288.606788009 510 c 0,43,44
 351 510 351 510 396.034428597 492.679065924 c 0,45,46
 442 475 442 475 466.943865 441.421720192 c 0,47,48
 494 405 494 405 494 355.374500805 c 0,49,50
 494 333 494 333 487.222071892 296.029483045 c 0,51,52
 483 273 483 273 475.590511097 241.774296768 c 0,53,54
 469 214 469 214 465.300528136 196.175271929 c 0,55,56
 458 161 458 161 452.330244886 122.858011049 c 0,57,58
 447 87 447 87 444.003885892 54.5420971663 c 128,-1,59
 441 22 441 22 441 0 c 1,60,-1
 297 0 l 1,61,-1
 292 59 l 1,62,63
 258 18 258 18 216.601457389 1.44058295551 c 0,64,65
 183 -12 183 -12 137.87297588 -12 c 0,13,14
EndSplineSet
Substitution2: "Single Substitution lookup 12 subtable" ordfeminine
Substitution2: "'aalt' Access All Alternates lookup 0 subtable" ordfeminine
EndChar

StartChar: b
Encoding: 98 98 42
Width: 592
GlyphClass: 1
Flags: W
HStem: -12 117<207.043 330.736> 0 21G<-21 125.303> 392 118<286.974 398.558> 648 20G<116.749 276>
VStem: 121 155<513 668> 395 159<176.688 360.229>
DStem2: -23.5385 -12 131.775 -12 0.207912 0.978148<490.3 695.192>
AnchorPoint: "Anchor-0" 293 -12 basechar 0
AnchorPoint: "Anchor-1" 380 496 basechar 0
LayerCount: 2
Fore
SplineSet
266.123168966 105 m 0,0,1
 299 105 299 105 327.520184747 124.335718473 c 0,2,3
 358 145 358 145 375.332931315 180.602777836 c 0,4,5
 395 221 395 221 395 273.622988321 c 0,6,7
 395 328 395 328 374.978269933 358.509302959 c 0,8,9
 353 392 353 392 306.705802988 392 c 0,10,11
 264 392 264 392 231.416859657 361.046016674 c 0,12,13
 204 335 204 335 188.569266032 289.771986644 c 0,14,15
 175 250 175 250 175 211.005549536 c 0,16,17
 175 156 175 156 205.027091045 127.64108068 c 0,18,19
 229 105 229 105 266.123168966 105 c 0,0,1
298.113708513 -12 m 0,20,21
 252 -12 252 -12 216.756167584 4.69444693399 c 0,22,23
 176 24 176 24 149 66 c 1,24,-1
 115 0 l 1,25,-1
 -21 0 l 1,26,-1
 121 668 l 1,27,-1
 276 668 l 1,28,-1
 227 436 l 1,29,30
 255 474 255 474 296.980198793 493.375476366 c 0,31,32
 333 510 333 510 374.115822684 510 c 0,33,34
 423 510 423 510 462.652415372 487.272396067 c 0,35,36
 505 463 505 463 528.227951753 419.388335484 c 0,37,38
 554 371 554 371 554 300.625104955 c 0,39,40
 554 241 554 241 535.586956708 184.267920669 c 0,41,42
 517 127 517 127 483.829031281 84.072864011 c 0,43,44
 449 39 449 39 402.115325382 14.0925166091 c 0,45,46
 353 -12 353 -12 298.113708513 -12 c 0,20,21
EndSplineSet
EndChar

StartChar: c
Encoding: 99 99 43
Width: 531
GlyphClass: 2
Flags: W
HStem: -12 117<181.454 312.763> 392 118<230.324 353.563>
VStem: 2 154<129.922 302.112>
AnchorPoint: "Anchor-1" 318 496 basechar 0
AnchorPoint: "Anchor-0" 212 0 basechar 0
LayerCount: 2
Fore
SplineSet
219.050036633 -12 m 0,0,1
 118 -12 118 -12 58.6068435853 46.8811464456 c 0,2,3
 2 103 2 103 2 201.057837589 c 0,4,5
 2 284 2 284 42.3903016835 355.306335071 c 0,6,7
 83 427 83 427 152.162077517 467.425721366 c 0,8,9
 225 510 225 510 311.4889967 510 c 0,10,11
 381 510 381 510 426.649889426 485.623845452 c 0,12,13
 484 455 484 455 511 382 c 1,14,-1
 378 336 l 1,15,16
 371 368 371 368 347.437069424 381.464531757 c 0,17,18
 329 392 329 392 299.823010953 392 c 0,19,20
 251 392 251 392 216.197762398 359.407428277 c 0,21,22
 188 333 188 333 171.353481185 286.181665834 c 0,23,24
 156 243 156 243 156 200.78275633 c 0,25,26
 156 148 156 148 183.634524307 123.244071975 c 0,27,28
 204 105 204 105 240.774138931 105 c 0,29,30
 268 105 268 105 289.291287622 113.516515049 c 0,31,32
 318 125 318 125 341 154 c 1,33,-1
 464 107 l 1,34,35
 416 40 416 40 342.628115847 10.4237366203 c 0,36,37
 287 -12 287 -12 219.050036633 -12 c 0,0,1
EndSplineSet
EndChar

StartChar: d
Encoding: 100 100 44
Width: 592
GlyphClass: 2
Flags: W
HStem: -12 117<143.936 273.125> 0 21G<337.413 488.5> 392 118<224.519 347.844> 648 20G<453.709 613>
VStem: 3 159<138.089 319.255>
DStem2: 312.963 -12 467.501 -12 0.207912 0.978148<442.673 695.295>
AnchorPoint: "Anchor-1" 266 496 basechar 0
AnchorPoint: "Anchor-0" 187 -12 basechar 0
LayerCount: 2
Fore
SplineSet
250.444177085 105 m 0,0,1
 293 105 293 105 325.322041478 136.226379055 c 0,2,3
 352 162 352 162 367.63945599 206.311791972 c 0,4,5
 382 247 382 247 382 287.254267745 c 0,6,7
 382 327 382 327 366.089306821 352.570756894 c 0,8,9
 354 372 354 372 331.827001921 382.816096624 c 0,10,11
 313 392 313 392 288.621761741 392 c 0,12,13
 248 392 248 392 217.285697844 364.99259638 c 0,14,15
 190 341 190 341 175.223549815 298.253840536 c 0,16,17
 162 260 162 260 162 220.441348109 c 0,18,19
 162 170 162 170 181.843165684 140.004516989 c 0,20,21
 205 105 205 105 250.444177085 105 c 0,0,1
182.872787506 -12 m 0,22,23
 105 -12 105 -12 55.5530198317 40.8404003759 c 0,24,25
 3 97 3 97 3 196.038344074 c 0,26,27
 3 254 3 254 20.4356866787 309.697332446 c 0,28,29
 39 369 39 369 73.2120031401 413.128525789 c 0,30,31
 108 458 108 458 153.825531038 482.566264061 c 0,32,33
 205 510 205 510 261.321252025 510 c 0,34,35
 314 510 314 510 352.359629342 485.449837221 c 0,36,37
 389 462 389 462 405 421 c 1,38,-1
 458 668 l 1,39,-1
 613 668 l 1,40,41
 601 615 601 615 592.213776949 574.768347083 c 0,42,43
 582 528 582 528 570.32216246 471.734055488 c 0,44,45
 560 422 560 422 548.648415943 369.190456777 c 0,46,47
 537 315 537 315 525.515310699 259.389925488 c 0,48,49
 518 223 518 223 513.372672359 199.151465233 c 0,50,51
 505 156 505 156 499.933891357 123.703557398 c 0,52,53
 489 54 489 54 488 0 c 1,54,-1
 339 0 l 1,55,-1
 334 63 l 1,56,57
 303 23 303 23 262.763241471 4.46991383548 c 0,58,59
 227 -12 227 -12 182.872787506 -12 c 0,22,23
EndSplineSet
EndChar

StartChar: e
Encoding: 101 101 45
Width: 567
GlyphClass: 2
Flags: W
HStem: -12 118<179.708 339.515> 209 90<168 396> 399 111<227.966 367.863>
VStem: 3 149<133.779 207.479> 396 134<299 370.892>
AnchorPoint: "Anchor-2" 328 2 basechar 0
AnchorPoint: "Anchor-1" 321 496 basechar 0
AnchorPoint: "Anchor-0" 230 0 basechar 0
LayerCount: 2
Fore
SplineSet
168 299 m 1,0,-1
 395 299 l 1,1,2
 396 303 396 303 396 309 c 0,3,4
 396 357 396 357 364.371441282 380.721419039 c 0,5,6
 340 399 340 399 304.04695028 399 c 0,7,8
 262 399 262 399 226.489680957 376.806050598 c 0,9,10
 182 349 182 349 168 299 c 1,0,-1
229.040615522 -12 m 0,11,12
 124 -12 124 -12 64.1838541558 41.8839660911 c 0,13,14
 3 97 3 97 3 199.712924676 c 0,15,16
 3 262 3 262 25.6297575583 319.328719148 c 0,17,18
 48 376 48 376 88.6966635021 418.6818666 c 0,19,20
 130 462 130 462 183.91416246 485.314232415 c 0,21,22
 241 510 241 510 309.482385918 510 c 0,23,24
 414 510 414 510 472.956718505 451.551529068 c 0,25,26
 530 395 530 395 530 297.426720871 c 0,27,28
 530 277 530 277 527.714180854 256.884791518 c 0,29,30
 525 233 525 233 519 209 c 1,31,-1
 154 209 l 1,32,33
 153 203 153 203 152.527864045 198.27864045 c 0,34,35
 152 193 152 193 152 187.344002526 c 0,36,37
 152 144 152 144 187.386602861 122.311436956 c 0,38,39
 214 106 214 106 253.701441478 106 c 0,40,41
 284 106 284 106 311.678996961 115.22633232 c 0,42,43
 341 125 341 125 358 142 c 1,44,-1
 472 98 l 1,45,46
 429 45 429 45 367.765644323 16.8519494066 c 0,47,48
 305 -12 305 -12 229.040615522 -12 c 0,11,12
EndSplineSet
EndChar

StartChar: f
Encoding: 102 102 46
Width: 379
GlyphClass: 1
Flags: W
HStem: 0 21G<18 177.211> 380 116<43 99 278 360> 608 119<323.863 409>
VStem: 18 155<0 155>
DStem2: 18 0 173 0 0.207912 0.978148<32.2263 388.537 539.218 652.991>
AnchorPoint: "Anchor-1" 152 668 basechar 0
LayerCount: 2
Fore
SplineSet
18 0 m 1,0,-1
 99 380 l 1,1,-1
 19 380 l 1,2,-1
 43 496 l 1,3,-1
 124 496 l 1,4,-1
 135 547 l 2,5,6
 147 601 147 601 159.70655756 632.109158165 c 0,7,8
 176 672 176 672 201.245414565 692.093289144 c 0,9,10
 225 711 225 711 266.486195964 719.297239193 c 0,11,12
 305 727 305 727 366 727 c 2,13,-1
 434 727 l 1,14,-1
 409 608 l 1,15,-1
 368 608 l 2,16,17
 337 608 337 608 323.434571207 603.478190402 c 0,18,19
 307 598 307 598 298.618392465 577.045981163 c 0,20,21
 293 563 293 563 285 527 c 2,22,-1
 278 496 l 1,23,-1
 385 496 l 1,24,-1
 360 380 l 1,25,-1
 253 380 l 1,26,-1
 173 0 l 1,27,-1
 18 0 l 1,0,-1
EndSplineSet
EndChar

StartChar: g
Encoding: 103 103 47
Width: 594
GlyphClass: 2
Flags: W
HStem: -207 119<129.063 270.723> 17 114<163.504 273.402> 395 116<225.144 351.375> 476 20G<432.851 577>
VStem: 6 158<160.2 327.236>
AnchorPoint: "Anchor-1" 317 496 basechar 0
AnchorPoint: "Anchor-0" 191 -251 basechar 0
LayerCount: 2
Fore
SplineSet
252.995732585 131 m 0,0,1
 293 131 293 131 324.613266462 156.817500944 c 0,2,3
 353 180 353 180 368.945632884 220.121269837 c 0,4,5
 384 258 384 258 384 297.324300141 c 0,6,7
 384 348 384 348 356.819704648 373.54947763 c 0,8,9
 334 395 334 395 293.983610914 395 c 0,10,11
 253 395 253 395 222.016699877 371.368669397 c 0,12,13
 194 350 194 350 178.519852685 311.815636623 c 0,14,15
 164 276 164 276 164 235.950576119 c 0,16,17
 164 185 164 185 187.819883475 157.632474306 c 0,18,19
 211 131 211 131 252.995732585 131 c 0,0,1
192.698142836 -207 m 0,20,21
 144 -207 144 -207 99.4087287288 -192.13624291 c 0,22,23
 54 -177 54 -177 22.8866993319 -150.262007238 c 0,24,25
 -10 -122 -10 -122 -22 -85 c 1,26,-1
 112 -41 l 1,27,28
 119 -63 119 -63 144.16839147 -76.1085372239 c 0,29,30
 167 -88 167 -88 195.625055446 -88 c 0,31,32
 235 -88 235 -88 266.639810842 -68.7595744882 c 0,33,34
 309 -43 309 -43 319 6 c 2,35,-1
 337 91 l 1,36,37
 306 54 306 54 265.668905759 34.868583501 c 0,38,39
 228 17 228 17 187.008816911 17 c 0,40,41
 140 17 140 17 99.5869276514 39.884510848 c 0,42,43
 57 64 57 64 32.950880998 105.496519062 c 0,44,45
 6 152 6 152 6 217.080200865 c 0,46,47
 6 271 6 271 24.2971156588 323.418763779 c 0,48,49
 43 377 43 377 76.728814639 418.549989048 c 0,50,51
 112 462 112 462 157.209626847 485.566720378 c 0,52,53
 206 511 206 511 260.488067978 511 c 0,54,55
 310 511 310 511 348.558887081 490.756584283 c 0,56,57
 390 469 390 469 409 429 c 1,58,-1
 443 496 l 1,59,-1
 577 496 l 1,60,61
 552 377 552 377 537.330011294 306.584054212 c 0,62,63
 502 137 502 137 492.632817909 94.634790089 c 0,64,65
 458 -62 458 -62 402.126405334 -124.151526651 c 0,66,67
 369 -161 369 -161 311.122190532 -183.951545134 c 0,68,69
 253 -207 253 -207 192.698142836 -207 c 0,20,21
EndSplineSet
EndChar

StartChar: h
Encoding: 104 104 48
Width: 580
GlyphClass: 1
Flags: W
HStem: 0 21G<-21 139.252 302 462.27> 392 118<293.823 422.67> 648 20G<116.749 272>
VStem: -21 156<0 156> 121 151<517 668> 302 156<0 156> 367 161<227.164 379.794>
DStem2: -21 0 135 0 0.207912 0.978148<32.4342 402.383 473.082 682.926> 302 0 458 0 0.207912 0.978148<32.4342 334.212>
AnchorPoint: "Anchor-1" 192 668 basechar 0
LayerCount: 2
Fore
SplineSet
-21 0 m 1,0,-1
 121 668 l 1,1,-1
 272 668 l 1,2,-1
 222 432 l 1,3,4
 243 461 243 461 278.204458508 480.82779847 c 0,5,6
 330 510 330 510 390.339467695 510 c 0,7,8
 455 510 455 510 489.127008049 478.677951517 c 0,9,10
 528 443 528 443 528 366.420433634 c 0,11,12
 528 347 528 347 525.452534433 325.601289241 c 0,13,14
 523 305 523 305 518 281 c 2,15,-1
 458 0 l 1,16,-1
 302 0 l 1,17,-1
 358 263 l 2,18,19
 367 302 367 302 367 328.699665924 c 0,20,21
 367 362 367 362 352.634787711 377.391298881 c 0,22,23
 339 392 339 392 308.804863614 392 c 0,24,25
 216 392 216 392 189 254 c 2,26,-1
 135 0 l 1,27,-1
 -21 0 l 1,0,-1
EndSplineSet
EndChar

StartChar: i
Encoding: 105 105 49
Width: 338
GlyphClass: 1
Flags: W
HStem: 0 21G<48 208.234> 380 116<51 129> 578 179<207.987 325.096>
VStem: 48 156<0 156> 177 179<608.887 725.956>
DStem2: 48 0 204 0 0.207912 0.978148<32.4342 388.537>
AnchorPoint: "Anchor-2" 204 0 basechar 0
LayerCount: 2
Fore
SplineSet
48 0 m 1,0,-1
 129 380 l 1,1,-1
 26 380 l 1,2,-1
 51 496 l 1,3,-1
 309 496 l 1,4,-1
 204 0 l 1,5,-1
 48 0 l 1,0,-1
266.5 578 m 128,-1,7
 229 578 229 578 202.788941737 604.715117076 c 0,8,9
 177 631 177 631 177 667.924605641 c 128,-1,10
 177 705 177 705 203.013231478 731.013231478 c 128,-1,11
 229 757 229 757 266.49522782 757 c 128,-1,12
 304 757 304 757 330.08807642 730.91192358 c 128,-1,13
 356 705 356 705 356 668.031388067 c 128,-1,14
 356 631 356 631 330.205546835 604.709499659 c 0,15,6
 304 578 304 578 266.5 578 c 128,-1,7
EndSplineSet
Substitution2: "Single Substitution lookup 4 subtable" dotlessi
Substitution2: "Single Substitution lookup 3 subtable" dotlessi
EndChar

StartChar: j
Encoding: 106 106 50
Width: 263
GlyphClass: 1
Flags: W
HStem: -162 120<-148 -42.4831> 476 20G<88.7549 249> 578 180<147.737 264.201>
VStem: 93 156<340 496> 116 180<609.565 726.399>
DStem2: -46.7239 -162 108.677 -162 0.207912 0.978148<124.818 672.671>
LayerCount: 2
Fore
SplineSet
-86.5440117988 -162 m 0,0,1
 -105 -162 -105 -162 -126.735670157 -161.527485431 c 0,2,3
 -151 -161 -151 -161 -174 -160 c 1,4,-1
 -148 -42 l 1,5,-1
 -87 -42 l 2,6,7
 -57 -42 -57 -42 -42.011033941 -35.7143045559 c 0,8,9
 -26 -29 -26 -29 -17.3667726058 -8.85580274681 c 0,10,11
 -11 6 -11 6 -4 39 c 2,12,-1
 93 496 l 1,13,-1
 249 496 l 1,14,-1
 148 23 l 2,15,16
 135 -38 135 -38 118.861609229 -73.7000765532 c 0,17,18
 102 -111 102 -111 76.8561933661 -130.499278614 c 0,19,20
 53 -149 53 -149 14.8170030165 -155.799711792 c 0,21,22
 -20 -162 -20 -162 -86.5440117988 -162 c 0,0,1
206 578 m 128,-1,24
 169 578 169 578 142.5 604.5 c 128,-1,25
 116 631 116 631 116 668.5 c 128,-1,26
 116 706 116 706 142.715117076 732.211058263 c 0,27,28
 169 758 169 758 205.924605641 758 c 128,-1,29
 243 758 243 758 269.210626004 732.283914109 c 0,30,31
 296 706 296 706 296 668.398182283 c 0,32,33
 296 631 296 631 269.42908492 604.42908492 c 128,-1,23
 243 578 243 578 206 578 c 128,-1,24
EndSplineSet
EndChar

StartChar: k
Encoding: 107 107 51
Width: 562
GlyphClass: 2
Flags: W
HStem: 0 21G<-21 139.194 313.674 487> 476 20G<366.107 586> 648 20G<116.749 276>
VStem: 121 155<513 668> 388 198<298 496>
DStem2: -21 0 135 0 0.207912 0.978148<32.4342 159.13 366.426 682.926> 203 327 342 283 0.752467 0.65863<75.6132 250.515> 342 283 229 184 0.455997 -0.889981<36.5804 243.657>
AnchorPoint: "Anchor-1" 397 796 basechar 0
AnchorPoint: "Anchor-0" 218 0 basechar 0
LayerCount: 2
Fore
SplineSet
-21 0 m 1,0,-1
 121 668 l 1,1,-1
 276 668 l 1,2,-1
 203 327 l 1,3,-1
 388 496 l 1,4,-1
 586 496 l 1,5,-1
 342 283 l 1,6,-1
 487 0 l 1,7,-1
 324 0 l 1,8,-1
 229 184 l 1,9,-1
 161 124 l 1,10,-1
 135 0 l 1,11,-1
 -21 0 l 1,0,-1
EndSplineSet
EndChar

StartChar: l
Encoding: 108 108 52
Width: 317
GlyphClass: 2
Flags: W
HStem: 0 124<182.928 244> 648 20G<116.758 277>
VStem: 4 168<70.9199 189.191> 121 156<512 668>
DStem2: -20.7579 0 135.764 0 0.207912 0.978148<196.714 682.876>
AnchorPoint: "Anchor-1" 198 668 basechar 0
AnchorPoint: "Anchor-0" 108 0 basechar 0
LayerCount: 2
Fore
SplineSet
147 0 m 2,0,1
 81 0 81 0 46.1207255533 19.9310139695 c 0,2,3
 4 44 4 44 4 97.8398218708 c 0,4,5
 4 108 4 108 5.94377576308 121.606430342 c 0,6,7
 7 129 7 129 9 140 c 2,8,-1
 121 668 l 1,9,-1
 277 668 l 1,10,-1
 179 204 l 2,11,12
 176 191 176 191 174.370813947 181.632180193 c 0,13,14
 172 168 172 168 172 159.881140419 c 0,15,16
 172 142 172 142 182.533790862 133.756163673 c 0,17,18
 195 124 195 124 227 124 c 2,19,-1
 270 124 l 1,20,-1
 244 0 l 1,21,-1
 147 0 l 2,0,1
EndSplineSet
EndChar

StartChar: m
Encoding: 109 109 53
Width: 895
GlyphClass: 1
Flags: W
HStem: 0 21G<-20 140.264 298 458.215 617 777.276> 392 118<295.588 417.199 599.202 738.75> 476 20G<80.7661 222.562>
VStem: -20 156<0 156> 298 156<0 156> 617 156<0 156> 684 161<234.93 381.752>
DStem2: -20 0 136 0 0.207912 0.978148<32.4342 402.594> 298 0 454 0 0.207912 0.978148<32.4342 339.101> 617 0 773 0 0.207912 0.978148<32.4342 344.407>
AnchorPoint: "Anchor-1" 514 496 basechar 0
LayerCount: 2
Fore
SplineSet
-20 0 m 1,0,-1
 85 496 l 1,1,-1
 221 496 l 1,2,-1
 226 432 l 1,3,4
 249 460 249 460 279.109679254 479.056759021 c 0,5,6
 328 510 328 510 391.397799963 510 c 0,7,8
 443 510 443 510 475.685133783 489.695598711 c 0,9,10
 509 469 509 469 523 427 c 1,11,12
 559 471 559 471 606.600276418 491.626786448 c 0,13,14
 649 510 649 510 701.499196466 510 c 0,15,16
 776 510 776 510 812.147103026 471.233541682 c 0,17,18
 845 436 845 436 845 370.161873043 c 0,19,20
 845 352 845 352 842.49440454 331.955236319 c 128,-1,21
 840 312 840 312 835 290 c 2,22,-1
 773 0 l 1,23,-1
 617 0 l 1,24,-1
 673 263 l 2,25,26
 678 286 678 286 680.642033731 302.732880299 c 0,27,28
 684 324 684 324 684 338.309168884 c 0,29,30
 684 367 684 367 670.276450954 379.706989857 c 0,31,32
 657 392 657 392 628.860207323 392 c 0,33,34
 537 392 537 392 509 261 c 2,35,-1
 454 0 l 1,36,-1
 298 0 l 1,37,-1
 354 263 l 2,38,39
 363 307 363 307 363 333.699665924 c 0,40,41
 363 367 363 367 347.740615092 380.624450811 c 0,42,43
 335 392 335 392 308.737000771 392 c 0,44,45
 263 392 263 392 233.143213349 356.480719329 c 0,46,47
 205 323 205 323 191 258 c 2,48,-1
 136 0 l 1,49,-1
 -20 0 l 1,0,-1
EndSplineSet
EndChar

StartChar: n
Encoding: 110 110 54
Width: 579
GlyphClass: 2
Flags: W
HStem: 0 21G<-20 140.252 303 463.27> 392 118<295.614 423.764> 476 20G<80.7661 222.562>
VStem: -20 156<0 156> 303 156<0 156> 368 161<227.164 379.792>
DStem2: -20 0 136 0 0.207912 0.978148<32.4342 400.087> 303 0 459 0 0.207912 0.978148<32.4342 334.212>
AnchorPoint: "Anchor-1" 344 496 basechar 0
AnchorPoint: "Anchor-0" 218 0 basechar 0
LayerCount: 2
Fore
SplineSet
-20 0 m 1,0,-1
 85 496 l 1,1,-1
 221 496 l 1,2,-1
 226 432 l 1,3,4
 247 461 247 461 280.385227039 480.474715773 c 0,5,6
 331 510 331 510 391.527242257 510 c 0,7,8
 456 510 456 510 490.100583866 478.702203849 c 0,9,10
 529 443 529 443 529 366.415170642 c 0,11,12
 529 347 529 347 526.452703772 325.602711687 c 0,13,14
 524 305 524 305 519 281 c 2,15,-1
 459 0 l 1,16,-1
 303 0 l 1,17,-1
 359 263 l 2,18,19
 368 302 368 302 368 328.699665924 c 0,20,21
 368 362 368 362 353.634787711 377.391298881 c 0,22,23
 340 392 340 392 310.295841441 392 c 0,24,25
 219 392 219 392 190 254 c 2,26,-1
 136 0 l 1,27,-1
 -20 0 l 1,0,-1
EndSplineSet
EndChar

StartChar: o
Encoding: 111 111 55
Width: 576
GlyphClass: 2
Flags: W
HStem: -13 118<188.616 315.03> 392 118<224.606 355.435>
VStem: 5 154<130.683 314.38> 381 155<184.057 366.99>
AnchorPoint: "Anchor-2" 467 10 basechar 0
AnchorPoint: "Anchor-1" 317 496 basechar 0
AnchorPoint: "Anchor-0" 235 0 basechar 0
LayerCount: 2
Fore
SplineSet
245.015305226 105 m 0,0,1
 291 105 291 105 323.457305164 133.670619562 c 0,2,3
 351 158 351 158 366.343988734 201.474634747 c 0,4,5
 381 243 381 243 381 288.620653576 c 0,6,7
 381 347 381 347 354.501513237 371.84233134 c 0,8,9
 333 392 333 392 292.871015623 392 c 0,10,11
 246 392 246 392 213.599739444 361.796367278 c 0,12,13
 187 337 187 337 172.315009996 292.42056606 c 0,14,15
 159 252 159 252 159 211.440527796 c 0,16,17
 159 181 159 181 165.833848559 159.587274515 c 0,18,19
 174 134 174 134 190.981948047 120.689824503 c 0,20,21
 211 105 211 105 245.015305226 105 c 0,0,1
241.242980144 -13 m 0,22,23
 169 -13 169 -13 115.391472037 13.8042639816 c 0,24,25
 63 40 63 40 34.4150154399 88.2987670153 c 0,26,27
 5 138 5 138 5 210.588642515 c 0,28,29
 5 292 5 292 41.6068867032 360.266896825 c 0,30,31
 79 430 79 430 144.090780031 468.860167183 c 0,32,33
 213 510 213 510 300.878908192 510 c 0,34,35
 368 510 368 510 419.529762651 486.665767856 c 0,36,37
 474 462 474 462 503.654186282 416.083840595 c 0,38,39
 536 366 536 366 536 288.900719482 c 0,40,41
 536 207 536 207 500.10696031 138.164033471 c 0,42,43
 463 67 463 67 397.978505319 27.8893265075 c 0,44,45
 330 -13 330 -13 241.242980144 -13 c 0,22,23
EndSplineSet
Substitution2: "Single Substitution lookup 12 subtable" ordmasculine
Substitution2: "'aalt' Access All Alternates lookup 0 subtable" ordmasculine
EndChar

StartChar: p
Encoding: 112 112 56
Width: 590
GlyphClass: 1
Flags: W
HStem: -161 21G<-55 105.242> -13 118<207.283 330.808> 392 118<288.39 402.801> 476 20G<80.7382 220.765>
VStem: -55 156<-161 -5> 394 158<178.494 361.875>
DStem2: -55 -161 101 -161 0.207912 0.978148<32.4342 268.574>
AnchorPoint: "Anchor-1" 373 496 basechar 0
LayerCount: 2
Fore
SplineSet
266.089930967 105 m 0,0,1
 306 105 306 105 336.83669958 131.132796254 c 0,2,3
 365 155 365 155 380.133870323 197.270465385 c 0,4,5
 394 236 394 236 394 279.707969141 c 0,6,7
 394 336 394 336 370.166826164 365.014298583 c 0,8,9
 348 392 348 392 306.198226517 392 c 0,10,11
 264 392 264 392 231.514726567 362.221832686 c 0,12,13
 204 337 204 337 188.453801431 293.988850625 c 0,14,15
 174 254 174 254 174 212.767272456 c 0,16,17
 174 158 174 158 201.084460408 129.85340389 c 0,18,19
 225 105 225 105 266.089930967 105 c 0,0,1
-55 -161 m 1,20,-1
 85 496 l 1,21,-1
 219 496 l 1,22,-1
 225 428 l 1,23,24
 251 472 251 472 298.767803249 493.609244327 c 0,25,26
 335 510 335 510 376.602710992 510 c 0,27,28
 429 510 429 510 469.389198004 483.414705111 c 0,29,30
 508 458 508 458 529.462239598 413.124408114 c 0,31,32
 552 366 552 366 552 300.942450413 c 0,33,34
 552 242 552 242 533.718743422 185.673966219 c 0,35,36
 515 128 515 128 481.396462007 84.6563060664 c 0,37,38
 446 39 446 39 399.276515147 14.2079468128 c 0,39,40
 348 -13 348 -13 293.621967818 -13 c 0,41,42
 247 -13 247 -13 211.91977239 6.22204252617 c 0,43,44
 174 27 174 27 150 70 c 1,45,-1
 101 -161 l 1,46,-1
 -55 -161 l 1,20,-1
EndSplineSet
EndChar

StartChar: q
Encoding: 113 113 57
Width: 601
GlyphClass: 1
Flags: W
HStem: -173 139<443.457 579.624> -12 118<140.777 270.655> 393 117<220.959 347.59> 476 20G<429.565 575>
VStem: 4 157.883<136.799 323.183> 308 165<-23.4206 54.7561>
LayerCount: 2
Fore
SplineSet
248.298262976 106 m 0,0,1
 280 106 280 106 306.968688515 123.505990791 c 0,2,3
 337 143 337 143 355.360419247 178.34380705 c 0,4,5
 377 220 377 220 380.152319792 272.238442276 c 0,6,7
 384 336 384 336 354.489457351 367.737753415 c 0,8,9
 331 393 331 393 289.802736619 393 c 0,10,11
 237 393 237 393 203.319944824 355.223721897 c 0,12,13
 163 310 163 310 161.882856344 226.214225792 c 0,14,15
 161 160 161 160 188.334844421 129.87588574 c 0,16,17
 210 106 210 106 248.298262976 106 c 0,0,1
180.55404814 -12 m 0,18,19
 101 -12 101 -12 52.5651193455 44.9234679857 c 128,-1,20
 4 102 4 102 4 198.463216066 c 0,21,22
 4 258 4 258 22.4766721519 314.428755491 c 128,-1,23
 41 371 41 371 74.0123934036 413.721920875 c 0,24,25
 109 459 109 459 155.277572546 483.584960415 c 0,26,27
 205 510 205 510 258.568297519 510 c 0,28,29
 304 510 304 510 338.605587156 492.921918027 c 0,30,31
 381 472 381 472 404 427 c 1,32,-1
 440 496 l 1,33,-1
 575 496 l 1,34,35
 552 387 552 387 531.051414222 289.388504564 c 0,36,37
 505 168 505 168 483.556765857 67.9315740002 c 0,38,39
 478 42 478 42 475.846331047 29.5087200733 c 0,40,41
 473 13 473 13 473 3.25876377782 c 0,42,43
 473 -15 473 -15 482.152293359 -23.6946786911 c 0,44,45
 493 -34 493 -34 520.788792078 -34 c 0,46,47
 552 -34 552 -34 608 -21 c 1,48,-1
 580 -151 l 1,49,50
 556 -161 556 -161 526.127186623 -166.781834847 c 0,51,52
 494 -173 494 -173 463.914411346 -173 c 0,53,54
 423 -173 423 -173 391.300963972 -162.731298188 c 0,55,56
 352 -150 352 -150 331.40454025 -124.255675312 c 0,57,58
 308 -95 308 -95 308 -45.7593094136 c 0,59,60
 308 -23 308 -23 314.165928104 1.04711960506 c 0,61,62
 318 16 318 16 326 56 c 1,63,64
 298 22 298 22 260.471641537 4.75724070615 c 0,65,66
 224 -12 224 -12 180.55404814 -12 c 0,18,19
EndSplineSet
EndChar

StartChar: r
Encoding: 114 114 58
Width: 391
GlyphClass: 2
Flags: W
HStem: 0 21G<-20 140.242> 361 149<287.995 371.859> 476 20G<80.7661 209.609>
VStem: -20 156<0 156>
DStem2: -20 0 136 0 0.207912 0.978148<32.4342 368.826>
AnchorPoint: "Anchor-1" 249 496 basechar 0
AnchorPoint: "Anchor-0" 57 0 basechar 0
LayerCount: 2
Fore
SplineSet
-20 0 m 1,0,-1
 85 496 l 1,1,-1
 208 496 l 1,2,-1
 215 409 l 1,3,4
 241 455 241 455 271.09722774 477.890849267 c 0,5,6
 312 509 312 509 377 510 c 2,7,-1
 403 510 l 1,8,-1
 371 358 l 1,9,10
 346 361 346 361 326.304599203 361 c 0,11,12
 260 361 260 361 225.750605727 323.436148217 c 0,13,14
 198 293 198 293 185 231 c 2,15,-1
 136 0 l 1,16,-1
 -20 0 l 1,0,-1
EndSplineSet
EndChar

StartChar: s
Encoding: 115 115 59
Width: 515
GlyphClass: 2
Flags: W
HStem: -13 109<148.795 295.426> 399 111<183.376 323.822>
VStem: 30 144<329.884 386.631> 306 148<110.597 168.741>
DStem2: 264.25 305.652 187.806 201.775 0.954841 -0.297116<-100.254 87.197>
AnchorPoint: "Anchor-1" 274 496 basechar 0
AnchorPoint: "Anchor-0" 215 0 basechar 0
LayerCount: 2
Fore
SplineSet
234.547907373 -13 m 0,0,1
 191 -13 191 -13 154.373830993 -5.91106406311 c 0,2,3
 98 5 98 5 60.0256009028 30.6212813186 c 0,4,5
 15 61 15 61 -10 116 c 1,6,-1
 120 160 l 1,7,8
 128 126 128 126 163.653817806 108.748152674 c 0,9,10
 190 96 190 96 223.498919696 96 c 0,11,12
 256 96 256 96 279.76890391 107.409073877 c 0,13,14
 306 120 306 120 306 139.752442852 c 0,15,16
 306 157 306 157 282.397693637 169.9812685 c 0,17,18
 266 179 266 179 223.442941126 191.159159678 c 0,19,20
 203 197 203 197 187.806360061 201.775143981 c 0,21,22
 133 219 133 219 103.875407993 235.180328893 c 0,23,24
 70 254 70 254 51.9712079289 280.141748503 c 0,25,26
 30 312 30 312 30 353.805802119 c 0,27,28
 30 401 30 401 59.1993214167 436.977735317 c 0,29,30
 86 470 86 470 133.059789318 489.406098688 c 0,31,32
 183 510 183 510 246.475760822 510 c 0,33,34
 315 510 315 510 366.921656789 489.402979125 c 0,35,36
 436 462 436 462 471 400 c 1,37,-1
 339 355 l 1,38,39
 329 381 329 381 298.278450511 391.433733789 c 0,40,41
 276 399 276 399 245.017771734 399 c 0,42,43
 206 399 206 399 186.798250606 384.598687955 c 0,44,45
 174 375 174 375 174 360.778317749 c 0,46,47
 174 343 174 343 196.525132054 329.484920768 c 0,48,49
 214 319 214 319 264.250036153 305.652334147 c 0,50,51
 278 302 278 302 287.570023335 299.341660185 c 0,52,53
 350 282 350 282 380.613730404 266.693134798 c 0,54,55
 414 250 414 250 432.017535226 226.126765826 c 0,56,57
 454 197 454 197 454 152.621975071 c 0,58,59
 454 79 454 79 393.751444667 33.1911810694 c 0,60,61
 333 -13 333 -13 234.547907373 -13 c 0,0,1
EndSplineSet
EndChar

StartChar: t
Encoding: 116 116 60
Width: 391
GlyphClass: 2
Flags: W
HStem: 0 124<227.779 289> 380 116<53 106 286 370>
VStem: 50 167<134.696 218.281>
DStem2: 25.1165 0 180.551 0 0.207912 0.978148<197.51 388.513 539.402 633.872>
AnchorPoint: "Anchor-1" 230 620 basechar 0
AnchorPoint: "Anchor-0" 143 0 basechar 0
LayerCount: 2
Fore
SplineSet
193 0 m 2,0,1
 128 0 128 0 93.1615292268 19.2058236314 c 0,2,3
 50 43 50 43 50 95.0418365642 c 0,4,5
 50 116 50 116 57 150 c 2,6,-1
 106 380 l 1,7,-1
 28 380 l 1,8,-1
 53 496 l 1,9,-1
 131 496 l 1,10,-1
 157 620 l 1,11,-1
 312 620 l 1,12,-1
 286 496 l 1,13,-1
 394 496 l 1,14,-1
 370 380 l 1,15,-1
 261 380 l 1,16,-1
 224 205 l 2,17,18
 221 192 221 192 219.370813947 182.632180193 c 0,19,20
 217 169 217 169 217 160.881140419 c 0,21,22
 217 143 217 143 227.379629347 134.425523583 c 0,23,24
 240 124 240 124 272 124 c 2,25,-1
 315 124 l 1,26,-1
 289 0 l 1,27,-1
 193 0 l 2,0,1
EndSplineSet
EndChar

StartChar: u
Encoding: 117 117 61
Width: 578
GlyphClass: 2
Flags: W
HStem: -12 118<131.412 256.445> 0 21G<319.438 460.234> 476 20G<81.7246 241 401.725 561>
VStem: 17 162<124.127 275.922> 86 155<341 496> 406 155<341 496>
DStem2: -22.3131 -12 134.234 -12 0.207912 0.978148<226.503 519.419> 298.021 -12 453.021 -12 0.207912 0.978148<153.205 519.349>
AnchorPoint: "Anchor-2" 456 0 basechar 0
AnchorPoint: "Anchor-1" 322 496 basechar 0
AnchorPoint: "Anchor-0" 236 0 basechar 0
LayerCount: 2
Fore
SplineSet
158.823070043 -12 m 0,0,1
 104 -12 104 -12 70.4505114804 9.64483130296 c 0,2,3
 42 28 42 28 28.2695566282 64.7975882364 c 0,4,5
 17 95 17 95 17 135.238806912 c 0,6,7
 17 156 17 156 20.7320788614 182.746565173 c 0,8,9
 23 199 23 199 27 220 c 2,10,-1
 86 496 l 1,11,-1
 241 496 l 1,12,-1
 186 235 l 2,13,14
 184 225 184 225 182.487088563 215.014784516 c 0,15,16
 179 192 179 192 179 176.279341771 c 0,17,18
 179 149 179 149 187.315459533 131.97310667 c 0,19,20
 200 106 200 106 233.739357872 106 c 0,21,22
 270 106 270 106 298.759504769 132.145004336 c 0,23,24
 336 166 336 166 350 234 c 2,25,-1
 406 496 l 1,26,-1
 561 496 l 1,27,-1
 456 0 l 1,28,-1
 321 0 l 1,29,-1
 316 64 l 1,30,31
 295 30 295 30 257.494184783 10.3094470108 c 0,32,33
 215 -12 215 -12 158.823070043 -12 c 0,0,1
EndSplineSet
EndChar

StartChar: v
Encoding: 118 118 62
Width: 533
GlyphClass: 1
Flags: W
HStem: 0 21G<104.097 296.411> 476 20G<35 187.947 387.44 568>
VStem: 35 151<345 496>
DStem2: 219 157 285 0 0.495573 0.868566<0 383.152>
LayerCount: 2
Fore
SplineSet
107 0 m 1,0,-1
 35 496 l 1,1,-1
 186 496 l 1,2,-1
 219 157 l 1,3,-1
 398 496 l 1,4,-1
 568 496 l 1,5,-1
 285 0 l 1,6,-1
 107 0 l 1,0,-1
EndSplineSet
EndChar

StartChar: w
Encoding: 119 119 63
Width: 727
GlyphClass: 1
Flags: W
HStem: 0 21G<53.2339 222.315 359 542.234> 476 20G<35 181.249 305.025 463 595.157 762>
VStem: 35 146<313.263 496> 359 96<159 356> 362 101<201.125 356>
DStem2: 185 175 214 0 0.383879 0.923384<0 235.079> 455 159 533 0 0.419174 0.907906<0 368.421>
LayerCount: 2
Fore
SplineSet
54 0 m 1,0,-1
 35 496 l 1,1,-1
 181 496 l 1,2,-1
 185 175 l 1,3,-1
 313 496 l 1,4,-1
 463 496 l 1,5,-1
 455 159 l 1,6,-1
 604 496 l 1,7,-1
 762 496 l 1,8,-1
 533 0 l 1,9,-1
 359 0 l 1,10,-1
 362 356 l 1,11,-1
 214 0 l 1,12,-1
 54 0 l 1,0,-1
EndSplineSet
EndChar

StartChar: x
Encoding: 120 120 64
Width: 536
GlyphClass: 1
Flags: W
HStem: 0 21G<-71 131.298 302.929 464> 476 20G<66 226 368.5 571>
VStem: -71 184<0 184>
DStem2: -71 0 113 0 0.678403 0.73469<124.826 315.931 511.649 675.115> 216 496 66 496 0.447214 -0.894427<0 134.164 329.149 487.016>
LayerCount: 2
Fore
SplineSet
-71 0 m 1,0,-1
 179 270 l 1,1,-1
 66 496 l 1,2,-1
 216 496 l 1,3,-1
 276 376 l 1,4,-1
 387 496 l 1,5,-1
 571 496 l 1,6,-1
 340 246 l 1,7,-1
 464 0 l 1,8,-1
 313 0 l 1,9,-1
 242 141 l 1,10,-1
 113 0 l 1,11,-1
 -71 0 l 1,0,-1
EndSplineSet
EndChar

StartChar: y
Encoding: 121 121 65
Width: 527
GlyphClass: 2
Flags: W
HStem: -161 110<-21 103.123> 476 20G<35 191.899 375.494 562>
DStem2: 121 0 266 0 0.512458 0.858713<-67.6604 0 205.302 379.361>
AnchorPoint: "Anchor-1" 302 496 basechar 0
AnchorPoint: "Anchor-0" 211 0 basechar 0
LayerCount: 2
Fore
SplineSet
-44 -161 m 1,0,-1
 -21 -51 l 1,1,-1
 10 -51 l 2,2,3
 52 -51 52 -51 72.3926672148 -46.5235608553 c 0,4,5
 93 -42 93 -42 104.656522665 -27.8894725636 c 0,6,7
 112 -19 112 -19 121 0 c 1,8,-1
 35 496 l 1,9,-1
 190 496 l 1,10,-1
 220 180 l 1,11,-1
 386 496 l 1,12,-1
 562 496 l 1,13,-1
 266 0 l 2,14,15
 233 -56 233 -56 211.889604355 -84.586994102 c 0,16,17
 185 -121 185 -121 159.36014524 -136.896709951 c 0,18,19
 135 -152 135 -152 94.4457860471 -157.069276744 c 0,20,21
 63 -161 63 -161 5 -161 c 2,22,-1
 -44 -161 l 1,0,-1
EndSplineSet
EndChar

StartChar: z
Encoding: 122 122 66
Width: 528
GlyphClass: 2
Flags: W
HStem: 0 121<203 437> 375 121<91 296>
DStem2: -14 121 203 121 0.773512 0.633781<167.852 400.769>
AnchorPoint: "Anchor-1" 317 496 basechar 0
AnchorPoint: "Anchor-0" 211 0 basechar 0
LayerCount: 2
Fore
SplineSet
-40 0 m 1,0,-1
 -14 121 l 1,1,-1
 296 375 l 1,2,-1
 65 375 l 1,3,-1
 91 496 l 1,4,-1
 539 496 l 1,5,-1
 513 375 l 1,6,-1
 203 121 l 1,7,-1
 462 121 l 1,8,-1
 437 0 l 1,9,-1
 -40 0 l 1,0,-1
EndSplineSet
EndChar

StartChar: circumflex
Encoding: 258 710 67
Width: 480
GlyphClass: 1
Flags: W
HStem: 574 152
LayerCount: 2
Fore
SplineSet
89 574 m 1,0,-1
 278 711 l 2,1,2
 298 726 298 726 322.880025367 726 c 0,3,4
 355 726 355 726 377 701 c 2,5,-1
 495 574 l 1,6,-1
 379 574 l 1,7,-1
 320 635 l 1,8,-1
 236 574 l 1,9,-1
 89 574 l 1,0,-1
EndSplineSet
EndChar

StartChar: caron
Encoding: 259 711 68
Width: 476
GlyphClass: 1
Flags: W
HStem: 568 152
LayerCount: 2
Fore
SplineSet
288.119974633 568 m 0,0,1
 256 568 256 568 234 593 c 2,2,-1
 120 720 l 1,3,-1
 235 720 l 1,4,-1
 291 659 l 1,5,-1
 375 720 l 1,6,-1
 522 720 l 1,7,-1
 332 583 l 2,8,9
 313 568 313 568 288.119974633 568 c 0,0,1
EndSplineSet
EndChar

StartChar: breve
Encoding: 260 728 69
Width: 385
GlyphClass: 1
Flags: W
HStem: 577 74<236.419 331.311>
VStem: 136 299
LayerCount: 2
Fore
SplineSet
278.785333361 577 m 0,0,1
 219 577 219 577 179.473982354 608.41811659 c 0,2,3
 141 639 141 639 136 688 c 1,4,-1
 229 688 l 1,5,6
 233 672 233 672 247.971698012 661.519811391 c 128,-1,7
 263 651 263 651 283.009425106 651 c 128,-1,8
 303 651 303 651 319.335734614 661.72032584 c 0,9,10
 335 672 335 672 341 688 c 1,11,-1
 435 688 l 1,12,13
 421 642 421 642 383.991537481 612.301851065 c 0,14,15
 340 577 340 577 278.785333361 577 c 0,0,1
EndSplineSet
EndChar

StartChar: dotaccent
Encoding: 261 729 70
Width: 204
GlyphClass: 1
Flags: W
HStem: 578 141<120.781 218.85>
VStem: 99 141<599.135 697.22>
LayerCount: 2
Fore
SplineSet
170 578 m 128,-1,1
 141 578 141 578 120.126510615 598.376501542 c 0,2,3
 99 619 99 619 99 648.043545217 c 128,-1,4
 99 677 99 677 119.99211089 697.99211089 c 128,-1,5
 141 719 141 719 170.00272311 719 c 128,-1,6
 199 719 199 719 219.623017213 697.873982367 c 0,7,8
 240 677 240 677 240 648.043637116 c 128,-1,9
 240 619 240 619 219.492294065 598.492294065 c 128,-1,0
 199 578 199 578 170 578 c 128,-1,1
EndSplineSet
EndChar

StartChar: ring
Encoding: 262 730 71
Width: 301
GlyphClass: 1
Flags: W
HStem: 535 86<186.334 258.547> 715 85<185.869 258.539>
VStem: 90 85<632.276 704.516> 269 86<632.336 704.376>
LayerCount: 2
Fore
SplineSet
222.5 621 m 128,-1,1
 242 621 242 621 255.71039103 635.218183291 c 0,2,3
 269 649 269 649 269 668.423427618 c 128,-1,4
 269 688 269 688 255.572219953 701.427780047 c 128,-1,5
 242 715 242 715 222.473990098 715 c 128,-1,6
 203 715 203 715 189.220552395 701.712675523 c 0,7,8
 175 688 175 688 175 668.423799554 c 128,-1,9
 175 649 175 649 188.986296208 635.013703792 c 128,-1,0
 203 621 203 621 222.5 621 c 128,-1,1
222.5 535 m 128,-1,11
 186 535 186 535 155.206175342 553.476294795 c 0,12,13
 126 571 126 571 108.534856004 600.593716215 c 0,14,15
 90 632 90 632 90 668.76718718 c 0,16,17
 90 705 90 705 108.677451826 735.61026827 c 0,18,19
 126 764 126 764 154.631955467 781.17917328 c 0,20,21
 186 800 186 800 222.906887909 800 c 0,22,23
 259 800 259 800 290.100153173 781.339908096 c 0,24,25
 319 764 319 764 336.060669748 736.039457912 c 0,26,27
 355 705 355 705 355 668.035845692 c 0,28,29
 355 632 355 632 336.581261025 600.79047007 c 0,30,31
 319 571 319 571 289.970207583 553.58212455 c 0,32,10
 259 535 259 535 222.5 535 c 128,-1,11
EndSplineSet
EndChar

StartChar: ogonek
Encoding: 263 731 72
Width: 296
GlyphClass: 1
Flags: W
HStem: -173 76<46.6667 155.092> -29.4699 29.4699<100.18 136.124>
VStem: -52 128<-104.909 -45.9051>
LayerCount: 2
Fore
SplineSet
69.3333333333 -173 m 0,0,1
 24 -173 24 -173 -6.14822033316 -159.600790963 c 0,2,3
 -30 -149 -30 -149 -42.1457965211 -129.677141898 c 0,4,5
 -52 -114 -52 -114 -52 -95.8173580612 c 0,6,7
 -52 -66 -52 -66 -25.5737062711 -38.0778783241 c 128,-1,8
 1 -10 1 -10 39 0 c 1,9,-1
 183 0 l 1,10,11
 142 -19 142 -19 122.805198884 -29.4698915179 c 0,12,13
 76 -55 76 -55 76 -76.9792808804 c 0,14,15
 76 -89 76 -89 93.5317867361 -94.0090819246 c 0,16,17
 104 -97 104 -97 117.930506246 -97 c 0,18,19
 133 -97 133 -97 155.677069374 -91.7086838126 c 0,20,21
 163 -90 163 -90 170 -88 c 1,22,-1
 154 -164 l 1,23,24
 141 -167 141 -167 120.616696015 -169.495914774 c 0,25,26
 92 -173 92 -173 69.3333333333 -173 c 0,0,1
EndSplineSet
EndChar

StartChar: quoteleft
Encoding: 264 8216 73
Width: 281
GlyphClass: 1
Flags: W
HStem: 340 328<193 202.385>
VStem: 67 194<376.019 496.438> 193 99<569 668>
DStem2: 81 488 203 526 0.528302 0.849057<96.717 212>
LayerCount: 2
Fore
SplineSet
162.037705384 340 m 0,0,1
 121 340 121 340 93.3449007126 369.703625161 c 0,2,3
 67 398 67 398 67 436.751166644 c 0,4,5
 67 465 67 465 81 488 c 2,6,-1
 193 668 l 1,7,-1
 292 668 l 1,8,-1
 203 526 l 1,9,10
 229 515 229 515 244.859638322 491.210542518 c 0,11,12
 261 467 261 467 261 436.386850944 c 0,13,14
 261 395 261 395 230.724099599 366.776703016 c 0,15,16
 202 340 202 340 162.037705384 340 c 0,0,1
EndSplineSet
EndChar

StartChar: quoteright
Encoding: 265 8217 74
Width: 282
GlyphClass: 1
Flags: W
HStem: 351 329<155.476 165>
VStem: 66 99<351 450> 97 196<522.562 643.142>
DStem2: 66 351 165 351 0.53169 0.846939<52.6373 167.586>
LayerCount: 2
Fore
SplineSet
66 351 m 1,0,-1
 155 493 l 1,1,2
 130 505 130 505 114.218138033 527.955435589 c 0,3,4
 97 553 97 553 97 584.183214565 c 0,5,6
 97 625 97 625 127.353315014 653.295463149 c 0,7,8
 156 680 156 680 195.175493208 680 c 0,9,10
 236 680 236 680 265.134648069 650.354217755 c 0,11,12
 293 622 293 622 293 585.73859582 c 0,13,14
 293 572 293 572 289.104346738 557.391300269 c 0,15,16
 285 542 285 542 278 531 c 2,17,-1
 165 351 l 1,18,-1
 66 351 l 1,0,-1
EndSplineSet
EndChar

StartChar: quotesinglbase
Encoding: 266 8218 75
Width: 282
GlyphClass: 1
Flags: W
HStem: -145 329<49.4594 59>
VStem: -40 99<-145 -46> -9 196<26.5625 147.178>
DStem2: -40 -145 59 -145 0.53169 0.846939<52.6373 167.586>
LayerCount: 2
Fore
SplineSet
-40 -145 m 1,0,-1
 49 -3 l 1,1,2
 24 9 24 9 8.21813803283 31.9554355886 c 0,3,4
 -9 57 -9 57 -9 87.7501143629 c 0,5,6
 -9 128 -9 128 21.1174279337 156.586033293 c 0,7,8
 50 184 50 184 89.4376049362 184 c 0,9,10
 130 184 130 184 159.088776025 154.400894571 c 0,11,12
 187 126 187 126 187 89.7304030107 c 0,13,14
 187 76 187 76 183.104942843 61.3935356626 c 0,15,16
 179 46 179 46 172 35 c 2,17,-1
 59 -145 l 1,18,-1
 -40 -145 l 1,0,-1
EndSplineSet
EndChar

StartChar: quotedblleft
Encoding: 267 8220 76
Width: 505
GlyphClass: 1
Flags: W
HStem: 340 328<193 202.38 417 426.351>
VStem: 67 194<375.922 499.01> 193 99<569 668> 291 194<375.27 496.438> 417 99<569 668>
DStem2: 92 506 203 526 0.529057 0.848586<75.697 190.906> 305 488 427 526 0.528302 0.849057<96.717 212>
LayerCount: 2
Fore
SplineSet
385.868212251 340 m 0,0,1
 345 340 345 340 316.313264135 369.749207564 c 0,2,3
 291 396 291 396 291 434.63415046 c 0,4,5
 291 449 291 449 294.352772356 462.411089424 c 0,6,7
 298 477 298 477 305 488 c 2,8,-1
 417 668 l 1,9,-1
 516 668 l 1,10,-1
 427 526 l 1,11,12
 453 514 453 514 468.83276501 489.756078578 c 0,13,14
 485 465 485 465 485 434.797598883 c 0,15,16
 485 394 485 394 454.725744638 366.291359499 c 0,17,18
 426 340 426 340 385.868212251 340 c 0,0,1
162 340 m 128,-1,20
 122 340 122 340 94.5 367.5 c 128,-1,21
 67 395 67 395 67 435.077014326 c 0,22,23
 67 453 67 453 72.7280991049 468.622088468 c 0,24,25
 78 483 78 483 92 506 c 2,26,-1
 193 668 l 1,27,-1
 292 668 l 1,28,-1
 203 526 l 1,29,30
 229 515 229 515 244.859638322 491.210542518 c 0,31,32
 261 467 261 467 261 436.386850944 c 0,33,34
 261 395 261 395 230.73105004 366.78318224 c 0,35,19
 202 340 202 340 162 340 c 128,-1,20
EndSplineSet
EndChar

StartChar: quotedblright
Encoding: 268 8221 77
Width: 505
GlyphClass: 1
Flags: W
HStem: 350 328<155.599 165 379.565 389>
VStem: 66 99<350 449> 97 194<521.562 642.746> 290 99<350 449> 321 194<519.651 642.454>
DStem2: 66 350 165 350 0.528302 0.849057<52.3019 167.585> 290 350 389 350 0.529057 0.848586<52.3766 167.585>
LayerCount: 2
Fore
SplineSet
66 350 m 1,0,-1
 155 492 l 1,1,2
 129 504 129 504 113.16723499 528.243921422 c 0,3,4
 97 553 97 553 97 583.202401117 c 0,5,6
 97 624 97 624 127.298496549 651.73082735 c 0,7,8
 156 678 156 678 195.853994734 678 c 0,9,10
 237 678 237 678 265.732279008 648.20356251 c 0,11,12
 291 622 291 622 291 584.104048713 c 0,13,14
 291 570 291 570 287.713157002 556.383079007 c 0,15,16
 284 541 284 541 277 530 c 2,17,-1
 165 350 l 1,18,-1
 66 350 l 1,0,-1
290 350 m 1,19,-1
 379 492 l 1,20,21
 353 503 353 503 336.885582708 527.675201478 c 0,22,23
 321 552 321 552 321 582.473239307 c 0,24,25
 321 624 321 624 351.429031175 651.850299719 c 0,26,27
 380 678 380 678 419.49654383 678 c 0,28,29
 460 678 460 678 487.585991215 650.414008785 c 128,-1,30
 515 623 515 623 515 582.942384651 c 0,31,32
 515 565 515 565 509.270416041 549.37386193 c 0,33,34
 504 535 504 535 490 512 c 2,35,-1
 389 350 l 1,36,-1
 290 350 l 1,19,-1
EndSplineSet
EndChar

StartChar: dagger
Encoding: 270 8224 79
Width: 594
GlyphClass: 1
Flags: W
HStem: 1 21G<155 304.222> 380 116<77 236 405 564> 648 20G<292.698 442>
VStem: 155 145<1 146> 297 145<523 668>
DStem2: 155 1 300 1 0.207912 0.978148<30.1472 387.559 536.161 681.948>
LayerCount: 2
Fore
SplineSet
155 1 m 1,0,-1
 236 380 l 1,1,-1
 52 380 l 1,2,-1
 77 496 l 1,3,-1
 260 496 l 1,4,-1
 297 668 l 1,5,-1
 442 668 l 1,6,-1
 405 496 l 1,7,-1
 588 496 l 1,8,-1
 564 380 l 1,9,-1
 380 380 l 1,10,-1
 300 1 l 1,11,-1
 155 1 l 1,0,-1
EndSplineSet
EndChar

StartChar: daggerdbl
Encoding: 271 8225 80
Width: 595
GlyphClass: 1
Flags: W
HStem: 1 21G<155 305.07> 173 115<33 192 361 520> 380 116<77 236 405 564> 648 20G<292.698 442>
VStem: 155 146<1 147> 297 145<523 668>
DStem2: 155 1 301 1 0.207912 0.978148<30.3551 175.934 323.558 387.559 536.161 681.948>
LayerCount: 2
Fore
SplineSet
155 1 m 1,0,-1
 192 173 l 1,1,-1
 8 173 l 1,2,-1
 33 288 l 1,3,-1
 216 288 l 1,4,-1
 236 380 l 1,5,-1
 52 380 l 1,6,-1
 77 496 l 1,7,-1
 260 496 l 1,8,-1
 297 668 l 1,9,-1
 442 668 l 1,10,-1
 405 496 l 1,11,-1
 589 496 l 1,12,-1
 564 380 l 1,13,-1
 381 380 l 1,14,-1
 361 288 l 1,15,-1
 544 288 l 1,16,-1
 520 173 l 1,17,-1
 336 173 l 1,18,-1
 301 1 l 1,19,-1
 155 1 l 1,0,-1
EndSplineSet
EndChar

StartChar: bullet
Encoding: 272 8226 81
Width: 446
GlyphClass: 1
Flags: W
HStem: 88 332<125.584 289.285>
VStem: 41 332<172.512 335.435>
LayerCount: 2
Fore
SplineSet
207 88 m 128,-1,1
 161 88 161 88 122.383367808 111.169979315 c 0,2,3
 86 133 86 133 64.2163431034 169.790176092 c 0,4,5
 41 209 41 209 41 254.856498463 c 0,6,7
 41 300 41 300 64.1802313688 338.633718948 c 0,8,9
 86 375 86 375 121.902895993 396.541737596 c 0,10,11
 161 420 161 420 207.479618466 420 c 0,12,13
 253 420 253 420 291.711584883 396.77304907 c 0,14,15
 328 375 328 375 349.529702818 339.117161971 c 0,16,17
 373 300 373 300 373 254.019761208 c 0,18,19
 373 209 373 209 349.95109324 170.072957473 c 0,20,21
 328 133 328 133 291.847928594 111.308757156 c 0,22,0
 253 88 253 88 207 88 c 128,-1,1
EndSplineSet
EndChar

StartChar: ellipsis
Encoding: 273 8230 82
Width: 807
GlyphClass: 1
Flags: W
HStem: -12 196<28.5319 149.135 291.11 412.182 554.546 675.914>
VStem: -9 195<25.4168 147.366> 255 194<24.6915 148.173> 517 195<25.5695 147.209>
LayerCount: 2
Fore
SplineSet
351.5 -12 m 128,-1,1
 311 -12 311 -12 282.667418763 17.344459138 c 0,2,3
 255 46 255 46 255 86.379016662 c 0,4,5
 255 127 255 127 282.983940132 155.483653348 c 128,-1,6
 311 184 311 184 351.505805698 184 c 128,-1,7
 392 184 392 184 420.411554428 155.588445572 c 128,-1,8
 449 127 449 127 449 86.4686272084 c 128,-1,9
 449 46 449 46 420.629436703 17.1317075225 c 0,10,0
 392 -12 392 -12 351.5 -12 c 128,-1,1
89 -12 m 128,-1,12
 49 -12 49 -12 20 17 c 128,-1,13
 -9 46 -9 46 -9 86.5 c 128,-1,14
 -9 127 -9 127 20.2161494019 155.712422688 c 0,15,16
 49 184 49 184 88.9251866548 184 c 128,-1,17
 129 184 129 184 157.337380581 155.662619419 c 0,18,19
 186 127 186 127 186 86.44239155 c 128,-1,20
 186 46 186 46 157.545547708 17.0463467904 c 128,-1,11
 129 -12 129 -12 89 -12 c 128,-1,12
615.5 -12 m 128,-1,22
 575 -12 575 -12 545.90993702 17.0900629804 c 128,-1,23
 517 46 517 46 517 86.4685066752 c 128,-1,24
 517 127 517 127 546.221784584 155.717960712 c 0,25,26
 575 184 575 184 615.422269071 184 c 128,-1,27
 656 184 656 184 684.051428433 155.447653202 c 128,-1,28
 712 127 712 127 712 86.518613987 c 128,-1,29
 712 46 712 46 684.242416688 17.2510744272 c 0,30,21
 656 -12 656 -12 615.5 -12 c 128,-1,22
EndSplineSet
EndChar

StartChar: perthousand
Encoding: 274 8240 83
Width: 1472
GlyphClass: 1
Flags: W
HStem: -12 119<730.418 838.823 1159.42 1267.82> 0 21G<226 366.012> 263 119<742.4 848.992 1171.4 1277.99> 286 119<195.326 302.99> 561 119<206.264 313.831> 648 20G<679.018 820>
VStem: 56 119<424.122 529.833> 226 126<0 126> 334 119<435.712 541.159> 592 119<126.963 232.258> 693 127<541 668> 869 119<137.406 242.688> 1021 119<126.963 232.258> 1298 119<137.406 242.688>
DStem2: 226 0 352 0 0.573791 0.819001<72.2977 815.054>
LayerCount: 2
Fore
SplineSet
1210.68883707 107 m 0,0,1
 1245 107 1245 107 1270.98234716 131.511648263 c 0,2,3
 1298 157 1298 157 1298 191.939065614 c 0,4,5
 1298 222 1298 222 1278.27724898 242.215819791 c 0,6,7
 1258 263 1258 263 1227.16000552 263 c 0,8,9
 1193 263 1193 263 1166.91574301 237.900054599 c 0,10,11
 1140 212 1140 212 1140 177.091468821 c 0,12,13
 1140 147 1140 147 1159.90171443 127.098285567 c 128,-1,14
 1180 107 1180 107 1210.68883707 107 c 0,0,1
781.688837075 107 m 0,15,16
 816 107 816 107 841.982347158 131.511648263 c 0,17,18
 869 157 869 157 869 191.939065614 c 0,19,20
 869 222 869 222 849.277248985 242.215819791 c 0,21,22
 829 263 829 263 798.160005521 263 c 0,23,24
 764 263 764 263 737.915743015 237.900054599 c 0,25,26
 711 212 711 212 711 177.091468821 c 0,27,28
 711 147 711 147 730.901714433 127.098285567 c 128,-1,29
 751 107 751 107 781.688837075 107 c 0,15,16
1198.40514649 -12 m 0,30,31
 1147 -12 1147 -12 1105.68860678 12.2704435172 c 0,32,33
 1067 35 1067 35 1044.6627865 73.8473278265 c 0,34,35
 1021 115 1021 115 1021 166.046295174 c 0,36,37
 1021 224 1021 224 1052.3781718 274.925229646 c 0,38,39
 1082 323 1082 323 1130.60187507 351.675106291 c 0,40,41
 1182 382 1182 382 1239.96924889 382 c 0,42,43
 1291 382 1291 382 1332.2383687 357.772458389 c 0,44,45
 1371 335 1371 335 1393.3480475 296.133830427 c 0,46,47
 1417 255 1417 255 1417 203.959919357 c 0,48,49
 1417 146 1417 146 1385.62101127 95.0734445214 c 0,50,51
 1356 47 1356 47 1307.3109113 18.2734376643 c 0,52,53
 1256 -12 1256 -12 1198.40514649 -12 c 0,30,31
769.405146493 -12 m 0,54,55
 718 -12 718 -12 676.688606779 12.2704435172 c 0,56,57
 638 35 638 35 615.6627865 73.8473278265 c 0,58,59
 592 115 592 115 592 166.046295174 c 0,60,61
 592 224 592 224 623.378171802 274.925229646 c 0,62,63
 653 323 653 323 701.601875069 351.675106291 c 0,64,65
 753 382 753 382 810.969248886 382 c 0,66,67
 862 382 862 382 903.238368699 357.772458389 c 0,68,69
 942 335 942 335 964.348047505 296.133830427 c 0,70,71
 988 255 988 255 988 203.959919357 c 0,72,73
 988 146 988 146 956.621011271 95.0734445214 c 0,74,75
 927 47 927 47 878.310911295 18.2734376643 c 0,76,77
 827 -12 827 -12 769.405146493 -12 c 0,54,55
246.323617144 405 m 0,78,79
 281 405 281 405 306.99704818 430.016027494 c 0,80,81
 334 456 334 456 334 490.735076911 c 0,82,83
 334 521 334 521 313.328395336 541.167419184 c 0,84,85
 293 561 293 561 262.696655749 561 c 0,86,87
 228 561 228 561 201.683860345 535.180391282 c 0,88,89
 175 509 175 509 175 474.361069853 c 0,90,91
 175 444 175 444 195.762615022 424.250195467 c 0,92,93
 216 405 216 405 246.323617144 405 c 0,78,79
226 0 m 1,94,-1
 693 668 l 1,95,-1
 820 668 l 1,96,-1
 352 0 l 1,97,-1
 226 0 l 1,94,-1
234.405146493 286 m 0,98,99
 183 286 183 286 141.384763912 310.448951201 c 0,100,101
 103 333 103 333 80.4096552555 370.971004996 c 0,102,103
 56 412 56 412 56 463.468192828 c 0,104,105
 56 521 56 521 87.3966211186 571.955171979 c 0,106,107
 117 620 117 620 165.262731241 648.957638744 c 0,108,109
 217 680 217 680 275.286440692 680 c 0,110,111
 326 680 326 680 367.501568187 655.918843151 c 0,112,113
 407 633 407 633 429.492328862 593.882906327 c 0,114,115
 453 553 453 553 453 502.04294483 c 0,116,117
 453 444 453 444 421.61010573 393.055745365 c 0,118,119
 392 345 392 345 343.315511081 316.276151538 c 0,120,121
 292 286 292 286 234.405146493 286 c 0,98,99
EndSplineSet
EndChar

StartChar: guilsinglleft
Encoding: 275 8249 84
Width: 401
GlyphClass: 1
Flags: W
VStem: 217 171<289 460>
DStem2: 24 250 191 244 0.673864 0.738856<108.102 285.215>
LayerCount: 2
Fore
SplineSet
127 40 m 1,0,-1
 24 250 l 1,1,-1
 217 460 l 1,2,-1
 388 460 l 1,3,-1
 191 244 l 1,4,-1
 291 40 l 1,5,-1
 127 40 l 1,0,-1
EndSplineSet
EndChar

StartChar: guilsinglright
Encoding: 276 8250 85
Width: 402
GlyphClass: 1
Flags: W
VStem: -20 171<40 211>
DStem2: -20 40 151 40 0.673864 0.738856<115.231 292.344>
LayerCount: 2
Fore
SplineSet
-20 40 m 1,0,-1
 177 256 l 1,1,-1
 77 460 l 1,2,-1
 241 460 l 1,3,-1
 344 250 l 1,4,-1
 151 40 l 1,5,-1
 -20 40 l 1,0,-1
EndSplineSet
EndChar

StartChar: fraction
Encoding: 277 8260 86
Width: 482
GlyphClass: 1
Flags: W
HStem: 0 21G<-55 85.982> 648 20G<398.988 539>
VStem: -55 127<0 127> 413 126<542 668>
DStem2: -55 0 72 0 0.573791 0.819001<72.8715 815.627>
LayerCount: 2
Fore
SplineSet
-55 0 m 1,0,-1
 413 668 l 1,1,-1
 539 668 l 1,2,-1
 72 0 l 1,3,-1
 -55 0 l 1,0,-1
EndSplineSet
EndChar

StartChar: ordfeminine
Encoding: 170 170 87
Width: 395
GlyphClass: 1
Flags: W
HStem: 396 68<154.242 250.844> 625 67<188.348 288.701>
VStem: 86 106.42<470.899 515.431> 272 86<403 435>
LayerCount: 2
Fore
SplineSet
222.868491809 464 m 0,0,1
 239 464 239 464 252.540849827 473.609635361 c 0,2,3
 270 486 270 486 277 510 c 2,4,-1
 282 528 l 1,5,-1
 256 525 l 2,6,7
 225 521 225 521 210.411136661 514.16147031 c 0,8,9
 193 506 193 506 192.420252837 489.767079433 c 0,10,11
 192 478 192 478 201.425466613 470.669081523 c 0,12,13
 210 464 210 464 222.868491809 464 c 0,0,1
177.4830587 396 m 0,14,15
 131 396 131 396 106.501584655 421.587233805 c 0,16,17
 86 443 86 443 86 478.007207263 c 0,18,19
 86 520 86 520 119.315851097 543.716368577 c 0,20,21
 145 562 145 562 201.435515624 572.206423038 c 0,22,23
 239 579 239 579 247.510221226 579.981948603 c 0,24,25
 291 585 291 585 293.542527959 594.322602515 c 0,26,27
 294 596 294 596 294 598.642990786 c 0,28,29
 294 611 294 611 284.311983419 617.781611607 c 0,30,31
 274 625 274 625 256.737944525 625 c 0,32,33
 241 625 241 625 228.835069806 619.786458488 c 0,34,35
 213 613 213 613 207 599 c 1,36,-1
 127 631 l 1,37,38
 148 662 148 662 180.201145037 676.636884108 c 0,39,40
 214 692 214 692 262.170016669 692 c 0,41,42
 298 692 298 692 323.154307307 684.225032287 c 0,43,44
 353 675 353 675 369.057820771 655.730615074 c 0,45,46
 388 633 388 633 388 595.887327727 c 0,47,48
 388 575 388 575 379.251687067 537.090643957 c 0,49,50
 373 510 373 510 367.586212182 476.040785507 c 0,51,52
 362 441 362 441 358 403 c 1,53,-1
 272 403 l 1,54,-1
 270 435 l 1,55,56
 256 419 256 419 236.375927247 409.187963624 c 0,57,58
 210 396 210 396 177.4830587 396 c 0,14,15
EndSplineSet
EndChar

StartChar: guillemotleft
Encoding: 171 171 88
Width: 665
GlyphClass: 1
Flags: W
VStem: 229 171<289 460> 469 171<289 460>
DStem2: 36 250 203 244 0.673864 0.738856<108.102 285.215> 276 250 443 244 0.673864 0.738856<108.102 285.215>
LayerCount: 2
Fore
SplineSet
139 40 m 1,0,-1
 36 250 l 1,1,-1
 229 460 l 1,2,-1
 400 460 l 1,3,-1
 203 244 l 1,4,-1
 303 40 l 1,5,-1
 139 40 l 1,0,-1
379 40 m 1,6,-1
 276 250 l 1,7,-1
 469 460 l 1,8,-1
 640 460 l 1,9,-1
 443 244 l 1,10,-1
 543 40 l 1,11,-1
 379 40 l 1,6,-1
EndSplineSet
EndChar

StartChar: logicalnot
Encoding: 172 172 89
Width: 696
GlyphClass: 1
Flags: W
HStem: 295 127<73 457>
VStem: 457 128<56 295>
LayerCount: 2
Fore
SplineSet
457 56 m 1,0,-1
 457 295 l 1,1,-1
 73 295 l 1,2,-1
 73 422 l 1,3,-1
 585 422 l 1,4,-1
 585 56 l 1,5,-1
 457 56 l 1,0,-1
EndSplineSet
EndChar

StartChar: registered
Encoding: 174 174 90
Width: 814
GlyphClass: 1
Flags: W
HStem: -12 69<300.155 514.653> 300 75<347 379> 453 76<347 443.514> 610 69<300.289 514.613>
VStem: 62 70<226.446 440.87> 250 97<161 300 375 453> 467 101<381.914 446.285> 480 108<161 269> 684 70<226.447 440.872>
DStem2: 481 310 379 300 0.583299 -0.812258<0 120.443>
LayerCount: 2
Fore
SplineSet
347 375 m 1,0,-1
 399 375 l 2,1,2
 428 375 428 375 443.809471461 381.080565947 c 0,3,4
 467 390 467 390 467 415.039326432 c 0,5,6
 467 438 467 438 444.017990085 446.839234583 c 0,7,8
 428 453 428 453 399 453 c 2,9,-1
 347 453 l 1,10,-1
 347 375 l 1,0,-1
250 161 m 1,11,-1
 250 529 l 1,12,-1
 401 529 l 2,13,14
 449 529 449 529 482.369143806 520.546483569 c 0,15,16
 524 510 524 510 544.625306393 487.03090879 c 0,17,18
 568 461 568 461 568 419.718866764 c 0,19,20
 568 384 568 384 553.716758345 359.514442878 c 0,21,22
 533 324 533 324 481 310 c 1,23,-1
 588 161 l 1,24,-1
 480 161 l 1,25,-1
 379 300 l 1,26,-1
 347 300 l 1,27,-1
 347 161 l 1,28,-1
 250 161 l 1,11,-1
407 57 m 128,-1,30
 464 57 464 57 515.840740295 79.0708102246 c 0,31,32
 565 100 565 100 602.744376805 137.744376805 c 0,33,34
 641 176 641 176 661.965202101 225.243846795 c 0,35,36
 684 277 684 277 684 334.350117973 c 0,37,38
 684 391 684 391 661.868873686 442.467735614 c 0,39,40
 641 491 641 491 603.448245508 528.551754492 c 0,41,42
 565 567 565 567 515.692781388 587.992182182 c 0,43,44
 464 610 464 610 406.667340228 610 c 0,45,46
 350 610 350 610 298.824319321 587.772179099 c 0,47,48
 251 567 251 567 213.495282611 529.495282611 c 0,49,50
 175 491 175 491 154.094669497 442.382952318 c 0,51,52
 132 391 132 391 132 333.611216937 c 0,53,54
 132 277 132 277 154.034047358 225.245609693 c 0,55,56
 175 176 175 176 213.094412743 137.905587257 c 128,-1,57
 251 100 251 100 298.721226758 79.2725984788 c 0,58,29
 350 57 350 57 407 57 c 128,-1,30
407.5 -12 m 128,-1,60
 336 -12 336 -12 271.387181819 15.9127374543 c 0,61,62
 211 42 211 42 163.908367577 89.0916324231 c 0,63,64
 116 137 116 137 89.9020049578 197.412025561 c 0,65,66
 62 262 62 262 62 334.08738936 c 0,67,68
 62 405 62 405 89.8571154118 469.484063453 c 0,69,70
 116 530 116 530 163.116923033 577.116923033 c 0,71,72
 211 625 211 625 271.622098175 651.188746412 c 0,73,74
 336 679 336 679 408.02915966 679 c 0,75,76
 479 679 479 679 543.792768477 651.231670653 c 0,77,78
 605 625 605 625 652.323263531 577.676736469 c 0,79,80
 700 530 700 530 726.159623344 469.445316333 c 0,81,82
 754 405 754 405 754 332.952133059 c 0,83,84
 754 262 754 262 726.139127399 197.50723935 c 0,85,86
 700 137 700 137 653.050853967 90.0508539665 c 0,87,88
 605 42 605 42 543.728214948 15.7406635489 c 0,89,59
 479 -12 479 -12 407.5 -12 c 128,-1,60
EndSplineSet
EndChar

StartChar: macron
Encoding: 175 175 91
Width: 405
GlyphClass: 1
Flags: W
HStem: 570 98<125 403>
VStem: 104 320
LayerCount: 2
Fore
SplineSet
104 570 m 1,0,-1
 125 668 l 1,1,-1
 424 668 l 1,2,-1
 403 570 l 1,3,-1
 104 570 l 1,0,-1
EndSplineSet
EndChar

StartChar: degree
Encoding: 176 176 92
Width: 411
GlyphClass: 1
Flags: W
HStem: 354 90<193.898 296.929> 590 89<193.863 296.985>
VStem: 83 89<466.126 567.831> 318 89<465.61 568.299>
LayerCount: 2
Fore
SplineSet
245.5 444 m 128,-1,1
 276 444 276 444 297.210306915 465.715314223 c 0,2,3
 318 487 318 487 318 516.92451192 c 128,-1,4
 318 547 318 547 297.282470822 568.210803682 c 0,5,6
 276 590 276 590 245.398120237 590 c 0,7,8
 215 590 215 590 193.429139532 568.429139532 c 128,-1,9
 172 547 172 547 172 517.024759586 c 128,-1,10
 172 487 172 487 193.415589699 465.584410301 c 128,-1,0
 215 444 215 444 245.5 444 c 128,-1,1
245.5 354 m 128,-1,12
 201 354 201 354 163.06646619 376.555074157 c 0,13,14
 127 398 127 398 105.756895456 433.72703946 c 0,15,16
 83 472 83 472 83 517.380530539 c 0,17,18
 83 562 83 562 105.685906164 599.637980681 c 0,19,20
 127 635 127 635 162.682950658 656.21688958 c 0,21,22
 201 679 201 679 245.88910962 679 c 0,23,24
 290 679 290 679 327.931021255 656.446419794 c 0,25,26
 364 635 364 635 384.838421721 599.623144519 c 0,27,28
 407 562 407 562 407 516.65905113 c 0,29,30
 407 472 407 472 385.128250874 434.36024569 c 0,31,32
 364 398 364 398 327.980576652 376.583045577 c 0,33,11
 290 354 290 354 245.5 354 c 128,-1,12
EndSplineSet
EndChar

StartChar: plusminus
Encoding: 177 177 93
Width: 701
GlyphClass: 1
Flags: W
HStem: 0 128<56 568> 283 108<56 248 376 568> 475 20G<248 376>
VStem: 248 128<180 283 391 495>
LayerCount: 2
Fore
SplineSet
56 0 m 1,0,-1
 56 128 l 1,1,-1
 568 128 l 1,2,-1
 568 0 l 1,3,-1
 56 0 l 1,0,-1
248 180 m 1,4,-1
 248 283 l 1,5,-1
 56 283 l 1,6,-1
 56 391 l 1,7,-1
 248 391 l 1,8,-1
 248 495 l 1,9,-1
 376 495 l 1,10,-1
 376 391 l 1,11,-1
 568 391 l 1,12,-1
 568 283 l 1,13,-1
 376 283 l 1,14,-1
 376 180 l 1,15,-1
 248 180 l 1,4,-1
EndSplineSet
EndChar

StartChar: uni00B2
Encoding: 178 178 94
Width: 407
GlyphClass: 1
Flags: W
HStem: 403 88<240 370> 667 21G<165.091 224> 711 77<229.269 311.115>
VStem: 321 106<625.972 704.67>
LayerCount: 2
Fore
SplineSet
70 403 m 1,0,-1
 87 484 l 1,1,2
 127 506 127 506 153.154374429 520.990921929 c 0,3,4
 209 553 209 553 240.19704279 574.702290636 c 0,5,6
 278 601 278 601 297.854197839 624.086276557 c 0,7,8
 321 651 321 651 321 674.813384378 c 0,9,10
 321 693 321 693 305.911231763 703.059178825 c 0,11,12
 294 711 294 711 275.514226193 711 c 0,13,14
 232 711 232 711 216 667 c 1,15,-1
 132 700 l 1,16,17
 175 788 175 788 289.236384142 788 c 0,18,19
 347 788 347 788 381.947243998 768.342175251 c 0,20,21
 427 743 427 743 427 690.996717839 c 0,22,23
 427 650 427 650 395.873239489 607.756539307 c 0,24,25
 371 574 371 574 327.613237656 541.842752616 c 0,26,27
 286 511 286 511 240 491 c 1,28,-1
 388 491 l 1,29,-1
 370 403 l 1,30,-1
 70 403 l 1,0,-1
EndSplineSet
EndChar

StartChar: uni00B3
Encoding: 179 179 95
Width: 425
GlyphClass: 1
Flags: W
HStem: 396 76<205.218 294.755> 491 20G<136.606 203> 552 84<236 284.895> 676 21G<166.697 222.5> 713 75<226.472 316.696>
VStem: 305 105<483.165 543.975> 324 104<645.89 705.034>
LayerCount: 2
Fore
SplineSet
253.793332601 396 m 0,0,1
 203 396 203 396 162.833191739 416.573243256 c 0,2,3
 121 438 121 438 98 478 c 1,4,-1
 196 511 l 1,5,6
 210 472 210 472 252.476297946 472 c 0,7,8
 277 472 277 472 292.232105963 486.144098395 c 0,9,10
 305 498 305 498 305 514.789775908 c 0,11,12
 305 535 305 535 285.444127524 543.985130597 c 0,13,14
 268 552 268 552 233 552 c 2,15,-1
 218 552 l 1,16,-1
 236 636 l 1,17,-1
 251 636 l 2,18,19
 283 636 283 636 301.76774995 645.612749974 c 0,20,21
 324 657 324 657 324 677.939820151 c 0,22,23
 324 693 324 693 313.314209977 702.291991325 c 0,24,25
 301 713 301 713 278.329620027 713 c 0,26,27
 260 713 260 713 247.230571733 707.413375133 c 0,28,29
 228 699 228 699 217 676 c 1,30,-1
 134 709 l 1,31,32
 157 748 157 748 192.960052845 767.437866403 c 0,33,34
 231 788 231 788 285.217412818 788 c 0,35,36
 345 788 345 788 383.103306515 765.046200895 c 0,37,38
 428 738 428 738 428 686.840279677 c 0,39,40
 428 654 428 654 408.604288322 629.886412508 c 0,41,42
 391 608 391 608 362 599 c 1,43,44
 382 589 382 589 394.825116963 570.220364446 c 0,45,46
 410 548 410 548 410 517.410587625 c 0,47,48
 410 481 410 481 387.761140544 452.037764429 c 0,49,50
 367 425 367 425 330.845992118 410.23287002 c 0,51,52
 296 396 296 396 253.793332601 396 c 0,0,1
EndSplineSet
EndChar

StartChar: acute
Encoding: 180 180 96
Width: 320
GlyphClass: 1
Flags: W
HStem: 574 153<237.858 265.42>
VStem: 105 234
LayerCount: 2
Fore
SplineSet
105 574 m 1,0,1
 134 602 134 602 176 644 c 2,2,-1
 197 665 l 1,3,-1
 218 686 l 2,4,5
 247 715 247 715 253.554278852 719.915709139 c 0,6,7
 263 727 263 727 280.26851887 727 c 0,8,9
 310 727 310 727 326.557296087 707.017056447 c 0,10,11
 339 692 339 692 339 671.557475537 c 0,12,13
 339 645 339 645 321.602016651 630.627752885 c 0,14,15
 316 626 316 626 297.480520695 614.756030422 c 0,16,17
 288 609 288 609 270.159319849 598.505482264 c 0,18,19
 254 589 254 589 228.000000688 574.000000397 c 0,20,21
 228.000000688 574 228.000000688 574 105 574 c 1,0,1
EndSplineSet
EndChar

StartChar: uni03BC
Encoding: 278 956 97
Width: 577
GlyphClass: 1
Flags: W
HStem: -161 21G<-55 105.179> -5 111<189.087 286.035> 0 21G<312.14 459.242> 475 20G<80.7317 240 399.758 560>
VStem: -55 156<-161 -5> 85 155<340 495> 404 156<339 495>
DStem2: -55 -161 101 -161 0.207912 0.978148<32.4342 237.774 337.832 670.772> 264.563 -161 420.563 -161 0.207912 0.978148<299.569 670.655>
LayerCount: 2
Fore
SplineSet
-55 -161 m 1,0,-1
 85 495 l 1,1,-1
 240 495 l 1,2,-1
 184 231 l 2,3,4
 172 175 172 175 180.484779017 145.72751239 c 0,5,6
 192 106 192 106 241.612151455 106 c 0,7,8
 284 106 284 106 308.801086026 134.76925979 c 0,9,10
 334 164 334 164 348 231 c 2,11,-1
 404 495 l 1,12,-1
 560 495 l 1,13,-1
 455 0 l 1,14,-1
 314 0 l 1,15,-1
 310 43 l 1,16,17
 297 20 297 20 268.64147697 6.62333819332 c 0,18,19
 244 -5 244 -5 217.641744513 -5 c 0,20,21
 192 -5 192 -5 173.071427439 5.15679503276 c 0,22,23
 151 17 151 17 143 40 c 1,24,-1
 101 -161 l 1,25,-1
 -55 -161 l 1,0,-1
EndSplineSet
EndChar

StartChar: paragraph
Encoding: 182 182 98
Width: 530
GlyphClass: 1
Flags: W
HStem: -161 21G<62 162.258 252 351.258> 600 68<320 413 509 557>
VStem: 62 96<-161 -65> 252 95<-161 -66>
DStem2: 62 -161 158 -161 0.207912 0.978148<19.9595 470.011> 252 -161 347 -161 0.207912 0.978148<19.7516 777.844>
LayerCount: 2
Fore
SplineSet
62 -161 m 1,0,-1
 159 296 l 1,1,2
 110 310 110 310 80.9203837077 347.458488783 c 0,3,4
 51 386 51 386 51 438.417240766 c 0,5,6
 51 448 51 448 51.9893455226 457.893455226 c 0,7,8
 53 468 53 468 55.7155955994 480.220180197 c 0,9,10
 67 531 67 531 101.925131455 574.529873987 c 0,11,12
 136 617 136 617 183.197308574 641.815079766 c 0,13,14
 233 668 233 668 285 668 c 2,15,-1
 572 668 l 1,16,-1
 557 600 l 1,17,-1
 509 600 l 1,18,-1
 347 -161 l 1,19,-1
 252 -161 l 1,20,-1
 413 600 l 1,21,-1
 320 600 l 1,22,-1
 158 -161 l 1,23,-1
 62 -161 l 1,0,-1
EndSplineSet
EndChar

StartChar: periodcentered
Encoding: 183 183 99
Width: 305
GlyphClass: 1
Flags: W
HStem: 151 194<74.6778 196.978>
VStem: 38 195<187.699 309.08>
LayerCount: 2
Fore
SplineSet
136 151 m 128,-1,1
 96 151 96 151 67.1260893401 179.376084614 c 0,2,3
 38 208 38 208 38 248.543927128 c 128,-1,4
 38 289 38 289 67.3365924571 317.324985821 c 0,5,6
 96 345 96 345 135.883255139 345 c 0,7,8
 176 345 176 345 204.218729672 317.276335761 c 0,9,10
 233 289 233 289 233 248.400565081 c 128,-1,11
 233 208 233 208 204.429004382 179.429004382 c 128,-1,0
 176 151 176 151 136 151 c 128,-1,1
EndSplineSet
EndChar

StartChar: cedilla
Encoding: 184 184 100
Width: 322
GlyphClass: 1
Flags: W
HStem: -195 54<-17.5264 100.97>
VStem: 103 91<-135.954 -89.019>
DStem2: 22 -57 87 -47 0.639273 0.76898<49.2425 107.935>
LayerCount: 2
Fore
SplineSet
57.6512897693 -195 m 0,0,1
 30 -195 30 -195 0.207400106187 -188.697719253 c 0,2,3
 -22 -184 -22 -184 -35 -178 c 1,4,-1
 -9 -128 l 1,5,6
 20 -141 20 -141 49.1403941173 -141 c 0,7,8
 72 -141 72 -141 86.3218903985 -133.608056568 c 0,9,10
 103 -125 103 -125 103 -110.100366378 c 0,11,12
 103 -98 103 -98 91.6920598264 -90.8040380713 c 0,13,14
 81 -84 81 -84 62.3219002983 -84 c 0,15,16
 51 -84 51 -84 45.2128764137 -86.8935617932 c 0,17,18
 41 -89 41 -89 35.7189062939 -89 c 0,19,20
 28 -89 28 -89 22.6591794937 -84.9943846203 c 0,21,22
 16 -80 16 -80 16 -71.7915735602 c 0,23,24
 16 -64 16 -64 22 -57 c 2,25,-1
 91 26 l 1,26,-1
 127 1 l 1,27,-1
 87 -47 l 1,28,29
 102 -44 102 -44 116.348884052 -44 c 0,30,31
 150 -44 150 -44 171.836474858 -60.3773561436 c 0,32,33
 194 -77 194 -77 194 -108.604601882 c 0,34,35
 194 -139 194 -139 171.903097448 -160.55795371 c 0,36,37
 153 -179 153 -179 118.489392474 -187.905963233 c 0,38,39
 91 -195 91 -195 57.6512897693 -195 c 0,0,1
EndSplineSet
EndChar

StartChar: uni00B9
Encoding: 185 185 101
Width: 294
GlyphClass: 1
Flags: W
HStem: 647 88<140 204.589>
VStem: 153 104<403 507>
DStem2: 153 403 257 403 0.207912 0.978148<21.6228 249.479>
LayerCount: 2
Fore
SplineSet
153 403 m 1,0,-1
 205 647 l 1,1,-1
 121 647 l 1,2,-1
 140 735 l 1,3,4
 180 735 180 735 200.443617313 739.921611575 c 0,5,6
 234 748 234 748 255 779 c 1,7,-1
 337 779 l 1,8,-1
 257 403 l 1,9,-1
 153 403 l 1,0,-1
EndSplineSet
EndChar

StartChar: ordmasculine
Encoding: 186 186 102
Width: 412
GlyphClass: 1
Flags: W
HStem: 396 77<215.513 286.827> 612 77<223.328 294.526>
VStem: 102 103<482.428 594.899> 305 103<490.065 602.855>
LayerCount: 2
Fore
SplineSet
247.814828558 473 m 0,0,1
 271 473 271 473 286.177508941 491.302290193 c 0,2,3
 305 514 305 514 305 553.478264291 c 0,4,5
 305 585 305 585 291.677822099 599.987450139 c 0,6,7
 281 612 281 612 263.098570618 612 c 0,8,9
 240 612 240 612 224.723057798 594.540637483 c 0,10,11
 205 572 205 572 205 531.5509249 c 0,12,13
 205 500 205 500 218.193564153 485.157240328 c 0,14,15
 229 473 229 473 247.814828558 473 c 0,0,1
240.250628012 396 m 0,16,17
 182 396 182 396 145.642689494 423.722449261 c 0,18,19
 102 457 102 457 102 525.890303796 c 0,20,21
 102 597 102 597 147.852544197 642.359506087 c 0,22,23
 195 689 195 689 269.3614629 689 c 0,24,25
 329 689 329 689 365.094839474 661.586197868 c 0,26,27
 408 629 408 629 408 558.888315164 c 0,28,29
 408 507 408 507 383.347423524 467.66078222 c 0,30,31
 361 432 361 432 321.40479812 413.244378057 c 0,32,33
 285 396 285 396 240.250628012 396 c 0,16,17
EndSplineSet
EndChar

StartChar: guillemotright
Encoding: 187 187 103
Width: 666
GlyphClass: 1
Flags: W
VStem: -8 171<40 211> 232 171<40 211>
DStem2: -8 40 163 40 0.673864 0.738856<115.231 292.344> 232 40 403 40 0.673864 0.738856<115.231 292.344>
LayerCount: 2
Fore
SplineSet
-8 40 m 1,0,-1
 189 256 l 1,1,-1
 89 460 l 1,2,-1
 253 460 l 1,3,-1
 356 250 l 1,4,-1
 163 40 l 1,5,-1
 -8 40 l 1,0,-1
232 40 m 1,6,-1
 429 256 l 1,7,-1
 329 460 l 1,8,-1
 493 460 l 1,9,-1
 596 250 l 1,10,-1
 403 40 l 1,11,-1
 232 40 l 1,6,-1
EndSplineSet
EndChar

StartChar: onequarter
Encoding: 188 188 104
Width: 930
GlyphClass: 1
Flags: W
HStem: 0 21G<129 270.033 646 753.267> 75 86<602 662 784 822> 536 87<116 180.079> 647 20G<220.5 313 582.967 724>
VStem: 129 127<0 127> 129 104<292 396> 597 127<540 667>
DStem2: 66.9335 0 170.933 0 0.207912 0.978148<320.146 548.003> 129 0 256 0 0.574368 0.818597<72.9447 814.809> 487 152 602 161 0.714902 0.699224<88.5068 225.693>
LayerCount: 2
Fore
SplineSet
602 161 m 1,0,-1
 680 161 l 1,1,-1
 700 257 l 1,2,-1
 602 161 l 1,0,-1
646 0 m 1,3,-1
 662 75 l 1,4,-1
 470 75 l 1,5,-1
 487 152 l 1,6,-1
 715 375 l 1,7,-1
 829 375 l 1,8,-1
 784 161 l 1,9,-1
 841 161 l 1,10,-1
 822 75 l 1,11,-1
 765 75 l 1,12,-1
 749 0 l 1,13,-1
 646 0 l 1,3,-1
129 0 m 1,14,-1
 597 667 l 1,15,-1
 724 667 l 1,16,-1
 256 0 l 1,17,-1
 129 0 l 1,14,-1
129 292 m 1,18,-1
 181 536 l 1,19,-1
 97 536 l 1,20,-1
 116 623 l 1,21,22
 156 623 156 623 177.013272814 628.447885544 c 0,23,24
 210 637 210 637 231 668 c 1,25,-1
 313 668 l 1,26,-1
 233 292 l 1,27,-1
 129 292 l 1,18,-1
EndSplineSet
Ligature2: "'frac' Diagonal Fractions lookup 10 subtable" one slash four
EndChar

StartChar: onehalf
Encoding: 189 189 105
Width: 919
GlyphClass: 1
Flags: W
HStem: 0 88<666 796> 308 76<654.387 737.3> 536 87<116 180.079> 647 20G<220.5 313 582.967 724>
VStem: 129 127<0 127> 129 104<292 396> 597 127<540 667> 747 107<222.022 301.414>
DStem2: 66.9335 0 170.933 0 0.207912 0.978148<320.146 548.003> 129 0 256 0 0.574368 0.818597<72.9447 814.809>
LayerCount: 2
Fore
SplineSet
496 0 m 1,0,-1
 513 81 l 1,1,2
 552 102 552 102 582.30475715 119.36979983 c 0,3,4
 634 149 634 149 664.071512014 169.620465381 c 0,5,6
 704 197 704 197 724.040974872 220.303459153 c 0,7,8
 747 247 747 247 747 271.14529329 c 0,9,10
 747 290 747 290 731.102904243 300.219561558 c 0,11,12
 719 308 719 308 700.646314816 308 c 0,13,14
 657 308 657 308 642 264 c 1,15,-1
 558 297 l 1,16,17
 599 384 599 384 714.342728863 384 c 0,18,19
 773 384 773 384 808.599659776 364.222411236 c 0,20,21
 854 339 854 339 854 287.468768226 c 0,22,23
 854 247 854 247 823.140017869 205.118595679 c 0,24,25
 798 171 798 171 753.532479813 138.424956142 c 0,26,27
 712 108 712 108 666 88 c 1,28,-1
 815 88 l 1,29,-1
 796 0 l 1,30,-1
 496 0 l 1,0,-1
129 0 m 1,31,-1
 597 667 l 1,32,-1
 724 667 l 1,33,-1
 256 0 l 1,34,-1
 129 0 l 1,31,-1
129 292 m 1,35,-1
 181 536 l 1,36,-1
 97 536 l 1,37,-1
 116 623 l 1,38,39
 156 623 156 623 177.013272814 628.447885544 c 0,40,41
 210 637 210 637 231 668 c 1,42,-1
 313 668 l 1,43,-1
 233 292 l 1,44,-1
 129 292 l 1,35,-1
EndSplineSet
Ligature2: "'frac' Diagonal Fractions lookup 10 subtable" one slash two
EndChar

StartChar: threequarters
Encoding: 190 190 106
Width: 958
GlyphClass: 1
Flags: W
HStem: 0 21G<198 339.033 674 782.267> 75 86<630 690 812 851> 287 76<182.218 271.755> 443 84<213 261.895> 604 75<203.472 293.696> 647 20G<651.967 793>
VStem: 198 127<0 127> 282 105<374.165 434.975> 301 104<536.89 596.034> 666 127<540 667>
DStem2: 198 0 325 0 0.574368 0.818597<72.9447 814.809> 515 152 630 161 0.71643 0.697659<88.6684 226.57>
LayerCount: 2
Fore
SplineSet
630 161 m 1,0,-1
 709 161 l 1,1,-1
 729 257 l 1,2,-1
 630 161 l 1,0,-1
674 0 m 1,3,-1
 690 75 l 1,4,-1
 499 75 l 1,5,-1
 515 152 l 1,6,-1
 744 375 l 1,7,-1
 858 375 l 1,8,-1
 812 161 l 1,9,-1
 869 161 l 1,10,-1
 851 75 l 1,11,-1
 794 75 l 1,12,-1
 778 0 l 1,13,-1
 674 0 l 1,3,-1
198 0 m 1,14,-1
 666 667 l 1,15,-1
 793 667 l 1,16,-1
 325 0 l 1,17,-1
 198 0 l 1,14,-1
230.793332601 287 m 0,18,19
 180 287 180 287 139.833191739 307.573243256 c 0,20,21
 98 329 98 329 75 369 c 1,22,-1
 173 402 l 1,23,24
 187 363 187 363 229.476297946 363 c 0,25,26
 254 363 254 363 269.232105963 377.144098395 c 0,27,28
 282 389 282 389 282 405.789775908 c 0,29,30
 282 426 282 426 262.444127524 434.985130597 c 0,31,32
 245 443 245 443 210 443 c 2,33,-1
 195 443 l 1,34,-1
 213 527 l 1,35,-1
 228 527 l 2,36,37
 260 527 260 527 278.76774995 536.612749974 c 0,38,39
 301 548 301 548 301 568.939820151 c 0,40,41
 301 584 301 584 290.314209977 593.291991325 c 0,42,43
 278 604 278 604 255.329620027 604 c 0,44,45
 237 604 237 604 224.230571733 598.413375133 c 0,46,47
 205 590 205 590 194 567 c 1,48,-1
 111 600 l 1,49,50
 134 639 134 639 169.960052845 658.437866403 c 0,51,52
 208 679 208 679 262.217412818 679 c 0,53,54
 322 679 322 679 360.103306515 656.046200895 c 0,55,56
 405 629 405 629 405 577.840279677 c 0,57,58
 405 545 405 545 385.604288322 520.886412508 c 0,59,60
 368 499 368 499 339 490 c 1,61,62
 359 480 359 480 371.825116963 461.220364446 c 0,63,64
 387 439 387 439 387 408.410587625 c 0,65,66
 387 372 387 372 364.761140544 343.037764429 c 0,67,68
 344 316 344 316 307.845992118 301.23287002 c 0,69,70
 273 287 273 287 230.793332601 287 c 0,18,19
EndSplineSet
Ligature2: "'frac' Diagonal Fractions lookup 10 subtable" three slash four
EndChar

StartChar: less
Encoding: 60 60 107
Width: 640
GlyphClass: 1
Flags: W
HStem: 490 20G<480.27 527>
LayerCount: 2
Fore
SplineSet
527 -12 m 1,0,-1
 34 200 l 1,1,-1
 34 299 l 1,2,-1
 527 510 l 1,3,-1
 527 368 l 1,4,-1
 203 250 l 1,5,-1
 527 130 l 1,6,-1
 527 -12 l 1,0,-1
EndSplineSet
EndChar

StartChar: equal
Encoding: 61 61 108
Width: 685
GlyphClass: 1
Flags: W
HStem: 96 129<60 572> 283 127<60 572>
LayerCount: 2
Fore
SplineSet
60 96 m 1,0,-1
 60 225 l 1,1,-1
 572 225 l 1,2,-1
 572 96 l 1,3,-1
 60 96 l 1,0,-1
60 283 m 1,4,-1
 60 410 l 1,5,-1
 572 410 l 1,6,-1
 572 283 l 1,7,-1
 60 283 l 1,4,-1
EndSplineSet
EndChar

StartChar: greater
Encoding: 62 62 109
Width: 638
GlyphClass: 1
Flags: W
HStem: 490 20G<78 124.73>
LayerCount: 2
Fore
SplineSet
78 -12 m 1,0,-1
 78 130 l 1,1,-1
 403 250 l 1,2,-1
 78 368 l 1,3,-1
 78 510 l 1,4,-1
 571 299 l 1,5,-1
 571 200 l 1,6,-1
 78 -12 l 1,0,-1
EndSplineSet
EndChar

StartChar: question
Encoding: 63 63 110
Width: 634
GlyphClass: 1
Flags: W
HStem: -12 195<176.92 298.098> 552 128<263.27 430.796>
VStem: 140 195<24.594 147.953>
LayerCount: 2
Fore
SplineSet
237.5 -12 m 128,-1,1
 197 -12 197 -12 168.287577312 17.2161494019 c 0,2,3
 140 46 140 46 140 86.424251488 c 128,-1,4
 140 127 140 127 168.727928763 155.223930012 c 0,5,6
 197 183 197 183 237.418699883 183 c 128,-1,7
 278 183 278 183 306.300757811 155.195746712 c 0,8,9
 335 127 335 127 335 86.4294629368 c 128,-1,10
 335 46 335 46 306.636335244 17.1387270903 c 0,11,0
 278 -12 278 -12 237.5 -12 c 128,-1,1
185 243 m 1,12,13
 188 266 188 266 195.452119318 286.088321641 c 0,14,15
 211 328 211 328 248.235596316 361.458072052 c 0,16,17
 280 390 280 390 338.316238462 417.104730553 c 0,18,19
 351 423 351 423 362.812123672 428.062338717 c 0,20,21
 407 447 407 447 425.482718261 460.862038695 c 0,22,23
 447 477 447 477 448.420995475 500.209592757 c 0,24,25
 450 526 450 526 424.832333229 539.354272164 c 0,26,27
 401 552 401 552 357.933506144 552 c 0,28,29
 308 552 308 552 272.999314339 535.239108275 c 0,30,31
 237 518 237 518 223 486 c 1,32,-1
 85 541 l 1,33,34
 128 617 128 617 207.335181616 651.233674259 c 0,35,36
 274 680 274 680 365.661748723 680 c 0,37,38
 414 680 414 680 456.305508668 672.479020681 c 0,39,40
 504 664 504 664 538.548886592 647.659310396 c 0,41,42
 578 629 578 629 599.005664291 601.926032691 c 0,43,44
 623 571 623 571 623 523.984326363 c 0,45,46
 623 480 623 480 600.572692395 443.155137505 c 0,47,48
 581 411 581 411 541.740467239 384.079177536 c 0,49,50
 511 363 511 363 463.449393441 343.283894841 c 0,51,52
 429 329 429 329 408.58011988 316.748071928 c 0,53,54
 379 299 379 299 363.440711697 275.661067545 c 0,55,56
 359 269 359 269 355.443177878 262.676760672 c 0,57,58
 350 253 350 253 346 243 c 1,59,-1
 185 243 l 1,12,13
EndSplineSet
EndChar

StartChar: at
Encoding: 64 64 111
Width: 753
GlyphClass: 1
Flags: W
HStem: -12 68<267.621 491.449> 153 97<292.637 374.467> 153 78<513.315 607.984> 428 90<333.982 430.337> 610 70<282.558 494.055>
VStem: 41 69<209.348 433.007> 181 101<258.865 373.064> 648 72<275.7 463.058>
LayerCount: 2
Fore
SplineSet
325.148771351 250 m 0,0,1
 350 250 350 250 372.632190319 269.585549314 c 0,2,3
 402 295 402 295 419.152913424 376.952808579 c 0,4,5
 420 381 420 381 422.39531087 393.318741615 c 0,6,7
 427 417 427 417 429 425 c 1,8,9
 416 428 416 428 401.213038085 428 c 0,10,11
 364 428 364 428 335.291933922 407.416858284 c 0,12,13
 311 390 311 390 296.611016963 360.725862097 c 0,14,15
 282 331 282 331 282 301.388727496 c 0,16,17
 282 274 282 274 295.907600387 260.648703629 c 0,18,19
 307 250 307 250 325.148771351 250 c 0,0,1
380.238274499 -12 m 0,20,21
 285 -12 285 -12 207.198820453 29.8929428331 c 0,22,23
 129 72 129 72 85.9081038252 145.941776391 c 0,24,25
 41 223 41 223 41 319.88018765 c 0,26,27
 41 395 41 395 69.2305992318 461.916975957 c 0,28,29
 95 523 95 523 141.388630692 571.830137571 c 0,30,31
 190 623 190 623 250.781442 650.716337552 c 0,32,33
 315 680 315 680 385.175078922 680 c 0,34,35
 446 680 446 680 504.848101707 658.056640041 c 0,36,37
 564 636 564 636 610.648275302 596.565375518 c 0,38,39
 661 554 661 554 688.696147221 500.015984229 c 0,40,41
 720 439 720 439 720 367.739479503 c 0,42,43
 720 308 720 308 698.077834392 259.17335842 c 0,44,45
 676 210 676 210 637.584353368 182.628851775 c 0,46,47
 596 153 596 153 543.49144289 153 c 0,48,49
 502 153 502 153 471.961351809 170.92629005 c 0,50,51
 440 190 440 190 430 224 c 1,52,53
 402 188 402 188 365.482545655 169.476653593 c 0,54,55
 333 153 333 153 299.159865785 153 c 0,56,57
 252 153 252 153 219.402650582 182.383526236 c 0,58,59
 181 217 181 217 181 284.692379749 c 0,60,61
 181 346 181 346 211.992514312 399.621969206 c 0,62,63
 244 455 244 455 298.875510001 485.867474376 c 0,64,65
 356 518 356 518 428.857308096 518 c 0,66,67
 459 518 459 518 490.995824027 512.134098928 c 0,68,69
 519 507 519 507 545 498 c 1,70,-1
 509 330 l 2,71,72
 505 308 505 308 503.666666667 301.333333333 c 0,73,74
 501 288 501 288 501 277.445640135 c 0,75,76
 501 252 501 252 519.115817854 239.727994357 c 0,77,78
 532 231 532 231 552.766400341 231 c 0,79,80
 583 231 583 231 605.769957855 250.592754434 c 0,81,82
 626 268 626 268 637.209113638 298.570309921 c 0,83,84
 648 328 648 328 648 365.687295456 c 0,85,86
 648 435 648 435 610.267867298 492.890395379 c 0,87,88
 575 547 575 547 515.263595197 578.361612522 c 0,89,90
 455 610 455 610 386.787917024 610 c 0,91,92
 328 610 328 610 275.233729753 585.199852984 c 0,93,94
 228 563 228 563 190.626065744 523.659016573 c 0,95,96
 152 483 152 483 131.277345255 432.180156219 c 0,97,98
 110 380 110 380 110 319.345848459 c 0,99,100
 110 241 110 241 146.110915109 179.967467421 c 0,101,102
 181 121 181 121 243.206220619 88.6527652781 c 0,103,104
 306 56 306 56 382.653805715 56 c 0,105,106
 424 56 424 56 458.659151641 65.8287146444 c 0,107,108
 491 75 491 75 522 94 c 1,109,-1
 522 16 l 1,110,111
 458 -12 458 -12 380.238274499 -12 c 0,20,21
EndSplineSet
EndChar

StartChar: colon
Encoding: 58 58 112
Width: 247
GlyphClass: 1
Flags: W
HStem: -12 195<11.3738 132.047> 316 195<80.5923 203.843>
VStem: -26 195<25.4214 147.08> 44 195<352.844 474.209>
LayerCount: 2
Fore
SplineSet
72 -12 m 128,-1,1
 32 -12 32 -12 3 17 c 128,-1,2
 -26 46 -26 46 -26 86.5 c 128,-1,3
 -26 127 -26 127 3.34445913796 155.332581237 c 0,4,5
 32 183 32 183 71.8805102834 183 c 0,6,7
 112 183 112 183 140.219217112 155.275856872 c 0,8,9
 169 127 169 127 169 86.4007365586 c 128,-1,10
 169 46 169 46 140.552890099 17.053817996 c 128,-1,0
 112 -12 112 -12 72 -12 c 128,-1,1
142.5 316 m 128,-1,12
 102 316 102 316 73.0360268461 344.464594306 c 128,-1,13
 44 373 44 373 44 413.512570532 c 128,-1,14
 44 454 44 454 73.213898896 482.710210984 c 0,15,16
 102 511 102 511 142.425043092 511 c 128,-1,17
 183 511 183 511 211.050949876 482.448140305 c 128,-1,18
 239 454 239 454 239 413.518440621 c 128,-1,19
 239 373 239 373 211.12070975 344.622865281 c 0,20,11
 183 316 183 316 142.5 316 c 128,-1,12
EndSplineSet
EndChar

StartChar: bracketleft
Encoding: 91 91 114
Width: 340
GlyphClass: 1
Flags: W
HStem: -161 115<99 202> 552 116<226 353>
DStem2: -57 -161 74.556 -161 0.207912 0.978148<144.921 756.258>
LayerCount: 2
Fore
SplineSet
-57 -161 m 1,0,-1
 119 668 l 1,1,-1
 378 668 l 1,2,-1
 353 552 l 1,3,-1
 226 552 l 1,4,-1
 99 -46 l 1,5,-1
 227 -46 l 1,6,-1
 202 -161 l 1,7,-1
 -57 -161 l 1,0,-1
EndSplineSet
EndChar

StartChar: backslash
Encoding: 92 92 115
Width: 584
GlyphClass: 1
Flags: W
HStem: 0 21G<340.186 499> 648 20G<87 247.754>
DStem2: 240 668 87 668 0.363926 -0.931428<0 661.498>
LayerCount: 2
Fore
SplineSet
348 0 m 1,0,-1
 87 668 l 1,1,-1
 240 668 l 1,2,-1
 499 0 l 1,3,-1
 348 0 l 1,0,-1
EndSplineSet
EndChar

StartChar: bracketright
Encoding: 93 93 116
Width: 342
GlyphClass: 1
Flags: W
HStem: -161 115<-46 82> 552 116<105 209>
DStem2: 57.556 -161 188 -161 0.207912 0.978148<117.569 728.906>
LayerCount: 2
Fore
SplineSet
-71 -161 m 1,0,-1
 -46 -46 l 1,1,-1
 82 -46 l 1,2,-1
 209 552 l 1,3,-1
 81 552 l 1,4,-1
 105 668 l 1,5,-1
 364 668 l 1,6,-1
 188 -161 l 1,7,-1
 -71 -161 l 1,0,-1
EndSplineSet
EndChar

StartChar: asciicircum
Encoding: 94 94 117
Width: 589
GlyphClass: 1
Flags: W
HStem: 648 20G<223.607 357.393>
DStem2: 49 312 192 312 0.461117 0.887339<65.9398 283.734> 347 668 291 506 0.461117 -0.887339<117.926 335.26>
LayerCount: 2
Fore
SplineSet
49 312 m 1,0,-1
 234 668 l 1,1,-1
 347 668 l 1,2,-1
 532 312 l 1,3,-1
 389 312 l 1,4,-1
 291 506 l 1,5,-1
 192 312 l 1,6,-1
 49 312 l 1,0,-1
EndSplineSet
EndChar

StartChar: underscore
Encoding: 95 95 118
Width: 457
GlyphClass: 1
Flags: W
HStem: -128 128<-30 380>
LayerCount: 2
Fore
SplineSet
-30 -128 m 1,0,-1
 -30 0 l 1,1,-1
 380 0 l 1,2,-1
 380 -128 l 1,3,-1
 -30 -128 l 1,0,-1
EndSplineSet
EndChar

StartChar: grave
Encoding: 96 96 119
Width: 315
GlyphClass: 1
Flags: W
HStem: 574 153<180.751 225.301>
VStem: 127 187
LayerCount: 2
Fore
SplineSet
206 574 m 1,0,1
 180 596 180 596 164.661680255 609.900352269 c 0,2,3
 148 625 148 625 139.843325077 635.487153472 c 0,4,5
 127 652 127 652 127 671.309199275 c 0,6,7
 127 696 127 696 145.772878172 712.627406381 c 0,8,9
 162 727 162 727 183.731595726 727 c 0,10,11
 210 727 210 727 230.346572587 700.142524186 c 0,12,13
 235 694 235 694 244.835593203 679.902316409 c 0,14,15
 265 651 265 651 286.597984929 616.741127355 c 0,16,17
 294 605 294 605 313.999999218 574.000001212 c 0,18,19
 313.999999218 574 313.999999218 574 206 574 c 1,0,1
EndSplineSet
EndChar

StartChar: exclam
Encoding: 33 33 120
Width: 298
GlyphClass: 1
Flags: W
HStem: -12 196<36.5319 157.135> 648 20G<115.698 318>
VStem: -1 195<25.4168 147.366>
LayerCount: 2
Fore
SplineSet
97 -12 m 128,-1,1
 57 -12 57 -12 28 17 c 128,-1,2
 -1 46 -1 46 -1 86.5 c 128,-1,3
 -1 127 -1 127 28.2161494019 155.712422688 c 0,4,5
 57 184 57 184 96.9251866548 184 c 128,-1,6
 137 184 137 184 165.337380581 155.662619419 c 0,7,8
 194 127 194 127 194 86.44239155 c 128,-1,9
 194 46 194 46 165.545547708 17.0463467904 c 128,-1,0
 137 -12 137 -12 97 -12 c 128,-1,1
71 243 m 1,10,-1
 83 496 l 1,11,-1
 120 668 l 1,12,-1
 318 668 l 1,13,-1
 281 496 l 1,14,-1
 186 243 l 1,15,-1
 71 243 l 1,10,-1
EndSplineSet
EndChar

StartChar: quotedbl
Encoding: 34 34 121
Width: 444
GlyphClass: 1
Flags: W
HStem: 434 234<116 230 305 418>
VStem: 116 114<434 551> 305 113<434 543.2>
LayerCount: 2
Fore
SplineSet
116 434 m 1,0,-1
 102 668 l 1,1,-1
 244 668 l 1,2,-1
 230 434 l 1,3,-1
 116 434 l 1,0,-1
305 434 m 1,4,-1
 290 668 l 1,5,-1
 432 668 l 1,6,-1
 418 434 l 1,7,-1
 305 434 l 1,4,-1
EndSplineSet
EndChar

StartChar: numbersign
Encoding: 35 35 122
Width: 750
GlyphClass: 1
Flags: W
HStem: 0 21G<118 261.835 395 538.835> 127 140<28 136 297 413 575 683> 401 140<68 176 336 453 614 722> 648 20G<212.008 355 489.008 633>
DStem2: 118 0 259 0 0.143702 0.989621<20.262 128.269 289.952 405.173 566.712 675.006> 395 0 536 0 0.143702 0.989621<20.262 128.269 290.095 405.173 566.856 675.006>
LayerCount: 2
Fore
SplineSet
297 267 m 1,0,-1
 434 267 l 1,1,-1
 453 401 l 1,2,-1
 316 401 l 1,3,-1
 297 267 l 1,0,-1
118 0 m 1,4,-1
 136 127 l 1,5,-1
 8 127 l 1,6,-1
 28 266 l 1,7,-1
 156 266 l 1,8,-1
 176 401 l 1,9,-1
 48 401 l 1,10,-1
 68 541 l 1,11,-1
 196 541 l 1,12,-1
 215 668 l 1,13,-1
 355 668 l 1,14,-1
 336 541 l 1,15,-1
 473 541 l 1,16,-1
 492 668 l 1,17,-1
 633 668 l 1,18,-1
 614 541 l 1,19,-1
 743 541 l 1,20,-1
 722 402 l 1,21,-1
 594 402 l 1,22,-1
 575 267 l 1,23,-1
 703 267 l 1,24,-1
 683 127 l 1,25,-1
 554 127 l 1,26,-1
 536 0 l 1,27,-1
 395 0 l 1,28,-1
 413 127 l 1,29,-1
 277 127 l 1,30,-1
 259 0 l 1,31,-1
 118 0 l 1,4,-1
EndSplineSet
EndChar

StartChar: dollar
Encoding: 36 36 123
Width: 643
GlyphClass: 1
Flags: W
HStem: -12 126<307 399.283> 552 127.598<249.034 324>
VStem: 61 163<448.608 531.228> 188 76<-86 -10> 425 164<139.299 222.031>
DStem2: 188 -86 264 -86 0.207912 0.978148<15.8013 88.2723 221.349 365.505 518.375 652.334 788.633 851.805>
LayerCount: 2
Fore
SplineSet
328.080296567 114.270235403 m 0,0,1
 367 116 367 116 394.173226513 132.397636689 c 0,2,3
 425 151 425 151 425 180.991379226 c 0,4,5
 425 208 425 208 395.753522411 228.472534312 c 0,6,7
 375 243 375 243 337 256 c 1,8,-1
 307 115 l 1,9,10
 312 114 312 114 318.579632561 114 c 0,11,12
 322 114 322 114 328.080296567 114.270235403 c 0,0,1
296 421 m 1,13,-1
 324 552 l 1,14,15
 275 551 275 551 248.19059027 533.652734881 c 0,16,17
 224 518 224 518 224 490.92461141 c 0,18,19
 224 466 224 466 247.82552171 446.823360575 c 0,20,21
 265 433 265 433 296 421 c 1,13,-1
188 -86 m 1,22,-1
 207 -1 l 1,23,24
 135 16 135 16 84.4853222216 56.1145970593 c 0,25,26
 33 97 33 97 10 157 c 1,27,-1
 165 210 l 1,28,29
 171 181 171 181 192.660253651 158.78435523 c 0,30,31
 210 141 210 141 235 130 c 1,32,-1
 266 280 l 1,33,34
 229 292 229 292 202.008227193 303.246572003 c 0,35,36
 157 322 157 322 129.07356705 342.479384163 c 0,37,38
 97 366 97 366 80.4240758084 395.468309674 c 0,39,40
 61 430 61 430 61 476.451122901 c 0,41,42
 61 564 61 564 128.170321885 618.028302386 c 0,43,44
 199 675 199 675 324.05314678 679.597542161 c 0,45,46
 335 680 335 680 347 680 c 2,47,-1
 352 680 l 1,48,-1
 366 747 l 1,49,-1
 441 747 l 1,50,-1
 425 671 l 1,51,52
 480 658 480 658 522.553726217 629.630849189 c 0,53,54
 576 594 576 594 607 536 c 1,55,-1
 452 484 l 1,56,57
 445 503 445 503 429.583050652 517.353711462 c 0,58,59
 416 530 416 530 397 538 c 1,60,-1
 367 398 l 1,61,62
 432 381 432 381 474.880303469 361.275060404 c 0,63,64
 532 335 532 335 558.8311135 301.108067158 c 0,65,66
 589 263 589 263 589 203.366284367 c 0,67,68
 589 136 589 136 548.571122591 85.0701154716 c 0,69,70
 512 39 512 39 447.988695865 13.4954960088 c 128,-1,71
 384 -12 384 -12 299 -12 c 0,72,73
 286 -12 286 -12 280 -11 c 1,74,-1
 264 -86 l 1,75,-1
 188 -86 l 1,22,-1
EndSplineSet
EndChar

StartChar: percent
Encoding: 37 37 124
Width: 1043
GlyphClass: 1
Flags: W
HStem: -12 119<730.418 838.823> 0 21G<226 366.012> 263 119<742.4 848.992> 286 119<195.326 302.99> 561 119<206.264 313.831> 648 20G<679.018 820>
VStem: 56 119<424.122 529.833> 226 126<0 126> 334 119<435.712 541.159> 592 119<126.963 232.258> 693 127<541 668> 869 119<137.406 242.688>
DStem2: 226 0 352 0 0.573791 0.819001<72.2977 815.054>
LayerCount: 2
Fore
SplineSet
781.688837075 107 m 0,0,1
 816 107 816 107 841.982347158 131.511648263 c 0,2,3
 869 157 869 157 869 191.939065614 c 0,4,5
 869 222 869 222 849.277248985 242.215819791 c 0,6,7
 829 263 829 263 798.160005521 263 c 0,8,9
 764 263 764 263 737.915743015 237.900054599 c 0,10,11
 711 212 711 212 711 177.091468821 c 0,12,13
 711 147 711 147 730.901714433 127.098285567 c 128,-1,14
 751 107 751 107 781.688837075 107 c 0,0,1
769.405146493 -12 m 0,15,16
 718 -12 718 -12 676.688606779 12.2704435172 c 0,17,18
 638 35 638 35 615.6627865 73.8473278265 c 0,19,20
 592 115 592 115 592 166.046295174 c 0,21,22
 592 224 592 224 623.378171802 274.925229646 c 0,23,24
 653 323 653 323 701.601875069 351.675106291 c 0,25,26
 753 382 753 382 810.969248886 382 c 0,27,28
 862 382 862 382 903.238368699 357.772458389 c 0,29,30
 942 335 942 335 964.348047505 296.133830427 c 0,31,32
 988 255 988 255 988 203.959919357 c 0,33,34
 988 146 988 146 956.621011271 95.0734445214 c 0,35,36
 927 47 927 47 878.310911295 18.2734376643 c 0,37,38
 827 -12 827 -12 769.405146493 -12 c 0,15,16
246.323617144 405 m 0,39,40
 281 405 281 405 306.99704818 430.016027494 c 0,41,42
 334 456 334 456 334 490.735076911 c 0,43,44
 334 521 334 521 313.328395336 541.167419184 c 0,45,46
 293 561 293 561 262.696655749 561 c 0,47,48
 228 561 228 561 201.683860345 535.180391282 c 0,49,50
 175 509 175 509 175 474.361069853 c 0,51,52
 175 444 175 444 195.762615022 424.250195467 c 0,53,54
 216 405 216 405 246.323617144 405 c 0,39,40
226 0 m 1,55,-1
 693 668 l 1,56,-1
 820 668 l 1,57,-1
 352 0 l 1,58,-1
 226 0 l 1,55,-1
234.405146493 286 m 0,59,60
 183 286 183 286 141.384763912 310.448951201 c 0,61,62
 103 333 103 333 80.4096552555 370.971004996 c 0,63,64
 56 412 56 412 56 463.468192828 c 0,65,66
 56 521 56 521 87.3966211186 571.955171979 c 0,67,68
 117 620 117 620 165.262731241 648.957638744 c 0,69,70
 217 680 217 680 275.286440692 680 c 0,71,72
 326 680 326 680 367.501568187 655.918843151 c 0,73,74
 407 633 407 633 429.492328862 593.882906327 c 0,75,76
 453 553 453 553 453 502.04294483 c 0,77,78
 453 444 453 444 421.61010573 393.055745365 c 0,79,80
 392 345 392 345 343.315511081 316.276151538 c 0,81,82
 292 286 292 286 234.405146493 286 c 0,59,60
EndSplineSet
EndChar

StartChar: ampersand
Encoding: 38 38 125
Width: 683
GlyphClass: 1
Flags: W
HStem: -10 126<183.801 319.301> 0 21G<428.792 608> 592 114<296.971 393.458>
VStem: -7 164<142.827 248.627> 139 139<470.934 576.6> 408 126<481.896 576.7>
LayerCount: 2
Fore
SplineSet
243.751779881 116 m 0,0,1
 265 116 265 116 287.299216205 122.642319721 c 0,2,3
 312 130 312 130 343 147 c 1,4,-1
 247 290 l 1,5,6
 199 275 199 275 175.072960965 244.806355503 c 0,7,8
 157 222 157 222 157 195.368224359 c 0,9,10
 157 165 157 165 178.676953652 142.400622789 c 0,11,12
 204 116 204 116 243.751779881 116 c 0,0,1
326 437 m 1,13,14
 371 459 371 459 392.181939412 488.769212146 c 0,15,16
 408 511 408 511 408 534.252037094 c 0,17,18
 408 558 408 558 391.835036082 574.65481131 c 0,19,20
 375 592 375 592 346.434991649 592 c 0,21,22
 319 592 319 592 300.051505196 577.210930884 c 0,23,24
 278 560 278 560 278 532.127927614 c 0,25,26
 278 512 278 512 288.85753222 489.340802322 c 0,27,28
 301 464 301 464 326 437 c 1,13,14
197.308691563 -10 m 0,29,30
 136 -10 136 -10 87.4203864649 16.1180717931 c 0,31,32
 43 40 43 40 17.7437006967 81.4203308574 c 0,33,34
 -7 122 -7 122 -7 167.985402935 c 0,35,36
 -7 230 -7 230 33.3666160193 284.270672648 c 0,37,38
 83 351 83 351 181 389 c 1,39,40
 139 452 139 452 139 519.986842406 c 0,41,42
 139 575 139 575 167.078514233 617.883549011 c 0,43,44
 194 659 194 659 241.678032002 682.101726846 c 0,45,46
 291 706 291 706 349.506633051 706 c 0,47,48
 405 706 405 706 447.675206503 683.345260746 c 0,49,50
 486 663 486 663 508.845137355 628.256353606 c 0,51,52
 534 590 534 590 534 545.379511544 c 0,53,54
 534 492 534 492 501.4382127 444.061813142 c 0,55,56
 462 386 462 386 383 348 c 1,57,-1
 451 244 l 1,58,59
 481 273 481 273 505.237871057 308.387291744 c 0,60,61
 531 346 531 346 549 389 c 1,62,-1
 676 389 l 1,63,64
 648 315 648 315 604.827658734 250.755444545 c 0,65,66
 564 190 564 190 515 146 c 1,67,-1
 608 0 l 1,68,-1
 442 0 l 1,69,-1
 407 53 l 1,70,71
 349 19 349 19 292.147010849 3.2977458534 c 0,72,73
 244 -10 244 -10 197.308691563 -10 c 0,29,30
EndSplineSet
EndChar

StartChar: quotesingle
Encoding: 39 39 126
Width: 258
GlyphClass: 1
Flags: W
HStem: 434 234<103 217>
VStem: 103 114<434 551>
LayerCount: 2
Fore
SplineSet
103 434 m 1,0,-1
 89 668 l 1,1,-1
 231 668 l 1,2,-1
 217 434 l 1,3,-1
 103 434 l 1,0,-1
EndSplineSet
EndChar

StartChar: parenleft
Encoding: 40 40 127
Width: 377
GlyphClass: 1
Flags: W
HStem: -161 21G<69.5 238> 649 20G<203 387>
VStem: 14 145<-1.52561 309.824>
LayerCount: 2
Fore
SplineSet
89 -161 m 1,0,1
 50 -68 50 -68 31.3371304288 17.5381522012 c 0,2,3
 14 97 14 97 14 172.302576677 c 0,4,5
 14 268 14 268 43.7337663592 358.794179418 c 0,6,7
 70 439 70 439 123.786969198 522.907671949 c 0,8,9
 170 595 170 595 236 669 c 1,10,-1
 387 669 l 1,11,12
 278 537 278 537 223.326918791 422.600023353 c 0,13,14
 159 288 159 288 159 155.659458668 c 0,15,16
 159 9 159 9 238 -161 c 1,17,-1
 89 -161 l 1,0,1
EndSplineSet
EndChar

StartChar: parenright
Encoding: 41 41 128
Width: 378
GlyphClass: 1
Flags: W
HStem: -161 21G<-42 142.5> 649 20G<107 275.5>
VStem: 186 145<198.058 509.526>
LayerCount: 2
Fore
SplineSet
-42 -161 m 1,0,1
 67 -29 67 -29 121.673081209 85.3999766472 c 0,2,3
 186 220 186 220 186 352.340541332 c 0,4,5
 186 499 186 499 107 669 c 1,6,-1
 256 669 l 1,7,8
 295 576 295 576 313.662869571 490.461847799 c 0,9,10
 331 411 331 411 331 335.697423323 c 0,11,12
 331 240 331 240 301.122238812 148.766122088 c 0,13,14
 275 69 275 69 223.015195152 -12.9154500641 c 0,15,16
 176 -87 176 -87 109 -161 c 1,17,-1
 -42 -161 l 1,0,1
EndSplineSet
EndChar

StartChar: asterisk
Encoding: 42 42 129
Width: 443
GlyphClass: 1
Flags: W
HStem: 336 332
VStem: 76 326
LayerCount: 2
Fore
SplineSet
263 336 m 1,0,-1
 222 428 l 1,1,-1
 148 361 l 1,2,-1
 89 426 l 1,3,-1
 164 494 l 1,4,-1
 76 544 l 1,5,-1
 120 619 l 1,6,-1
 207 569 l 1,7,-1
 228 668 l 1,8,-1
 314 650 l 1,9,-1
 293 551 l 1,10,-1
 392 562 l 1,11,-1
 402 475 l 1,12,-1
 302 464 l 1,13,-1
 343 372 l 1,14,-1
 263 336 l 1,0,-1
EndSplineSet
EndChar

StartChar: plus
Encoding: 43 43 130
Width: 645
GlyphClass: 1
Flags: W
HStem: 0 21G<231 359> 184 128<39 231 359 551> 476 20G<231 359>
VStem: 231 128<0 184 312 496>
LayerCount: 2
Fore
SplineSet
231 0 m 1,0,-1
 231 184 l 1,1,-1
 39 184 l 1,2,-1
 39 312 l 1,3,-1
 231 312 l 1,4,-1
 231 496 l 1,5,-1
 359 496 l 1,6,-1
 359 312 l 1,7,-1
 551 312 l 1,8,-1
 551 184 l 1,9,-1
 359 184 l 1,10,-1
 359 0 l 1,11,-1
 231 0 l 1,0,-1
EndSplineSet
EndChar

StartChar: comma
Encoding: 44 44 131
Width: 282
GlyphClass: 1
Flags: W
HStem: -145 328<51.7782 59>
VStem: -40 99<-145 -46> -9 196<25.34 147.482>
DStem2: -40 -145 59 -145 0.536538 0.843876<53.1173 168.655>
LayerCount: 2
Fore
SplineSet
-40 -145 m 1,0,-1
 51 -3 l 1,1,2
 24 8 24 8 7.34234229534 32.7340978039 c 0,3,4
 -9 57 -9 57 -9 87.7226207157 c 0,5,6
 -9 129 -9 129 21.3846504197 156.809680045 c 0,7,8
 50 183 50 183 90.005963695 183 c 0,9,10
 131 183 131 183 159.045700443 155.455115636 c 128,-1,11
 187 128 187 128 187 87.8216848155 c 0,12,13
 187 70 187 70 181.279681499 54.3991313606 c 0,14,15
 176 40 176 40 162 17 c 2,16,-1
 59 -145 l 1,17,-1
 -40 -145 l 1,0,-1
EndSplineSet
EndChar

StartChar: hyphen
Encoding: 45 45 132
Width: 376
GlyphClass: 1
Flags: W
HStem: 184 129<38 336>
LayerCount: 2
Fore
SplineSet
10 184 m 1,0,-1
 38 313 l 1,1,-1
 364 313 l 1,2,-1
 336 184 l 1,3,-1
 10 184 l 1,0,-1
EndSplineSet
EndChar

StartChar: period
Encoding: 46 46 133
Width: 247
GlyphClass: 1
Flags: W
HStem: -12 195<21.3738 142.047>
VStem: -16 195<25.4214 147.08>
LayerCount: 2
Fore
SplineSet
82 -12 m 128,-1,1
 42 -12 42 -12 13 17 c 128,-1,2
 -16 46 -16 46 -16 86.5 c 128,-1,3
 -16 127 -16 127 13.344459138 155.332581237 c 0,4,5
 42 183 42 183 81.8805102834 183 c 0,6,7
 122 183 122 183 150.219217112 155.275856872 c 0,8,9
 179 127 179 127 179 86.4007365586 c 128,-1,10
 179 46 179 46 150.552890099 17.053817996 c 128,-1,0
 122 -12 122 -12 82 -12 c 128,-1,1
EndSplineSet
EndChar

StartChar: slash
Encoding: 47 47 134
Width: 442
GlyphClass: 1
Flags: W
HStem: 0 21G<-55 110.006> 648 20G<335.934 499>
VStem: -55 153<0 153> 348 151<517 668>
DStem2: -55 0 98 0 0.516568 0.856246<79.0349 780.149>
LayerCount: 2
Fore
SplineSet
-55 0 m 1,0,-1
 348 668 l 1,1,-1
 499 668 l 1,2,-1
 98 0 l 1,3,-1
 -55 0 l 1,0,-1
EndSplineSet
EndChar

StartChar: braceleft
Encoding: 123 123 135
Width: 373
GlyphClass: 1
Flags: W
HStem: -162 120<175.164 234> 548 119<303.778 384>
DStem2: -11.6467 -162 134.803 -162 0.207912 0.978148<168.378 342.927 497.154 752.274>
LayerCount: 2
Fore
SplineSet
180 -162 m 2,0,1
 89 -162 89 -162 48.2359447074 -120.241699456 c 0,2,3
 7 -78 7 -78 23 1 c 2,4,-1
 44 97 l 2,5,6
 55 144 55 144 47.483099401 165.224189927 c 0,7,8
 38 192 38 192 -6 192 c 1,9,-1
 20 315 l 1,10,11
 67 315 67 315 87.645234441 345.967851661 c 0,12,13
 101 366 101 366 110 409 c 2,14,-1
 131 505 l 2,15,16
 144 563 144 563 164.790902794 597.304989609 c 0,17,18
 184 629 184 629 214.474034408 645.325375576 c 0,19,20
 240 659 240 659 282.322843034 663.768771046 c 0,21,22
 311 667 311 667 355 667 c 2,23,-1
 410 667 l 1,24,-1
 384 548 l 1,25,-1
 351 548 l 2,26,27
 319 548 319 548 303.283043053 540.578103664 c 0,28,29
 283 531 283 531 277 503 c 2,30,-1
 251 380 l 2,31,32
 237 317 237 317 194.598070993 284.574995465 c 0,33,34
 169 265 169 265 131 255 c 1,35,-1
 130 252 l 1,36,37
 177 239 177 239 192.956277399 207.087445203 c 0,38,39
 208 177 208 177 197 127 c 2,40,-1
 172 13 l 2,41,42
 165 -18 165 -18 174.840254086 -29.8083049026 c 0,43,44
 185 -42 185 -42 220 -42 c 2,45,-1
 260 -42 l 1,46,-1
 234 -162 l 1,47,-1
 180 -162 l 2,0,1
EndSplineSet
EndChar

StartChar: bar
Encoding: 124 124 136
Width: 299
GlyphClass: 1
Flags: W
HStem: -161 21G<59 205> 648 20G<59 205>
VStem: 59 146<-161 668>
LayerCount: 2
Fore
SplineSet
59 -161 m 1,0,-1
 59 668 l 1,1,-1
 205 668 l 1,2,-1
 205 -161 l 1,3,-1
 59 -161 l 1,0,-1
EndSplineSet
EndChar

StartChar: braceright
Encoding: 125 125 137
Width: 373
GlyphClass: 1
Flags: W
HStem: -162 120<-45 36.6889> 548 119<106 164.47>
DStem2: -69.9152 -162 174.225 -162 0.207912 0.978148<97.7941 725.862 733.97 819.262> 28.7837 -162 175.353 -162 0.207912 0.978148<126.838 381.638 536.356 712.411>
LayerCount: 2
Fore
SplineSet
-70 -162 m 1,0,-1
 -45 -42 l 1,1,-1
 -11 -42 l 2,2,3
 21 -42 21 -42 37.1989839986 -34.5572235682 c 0,4,5
 58 -25 58 -25 64 2 c 2,6,-1
 90 126 l 2,7,8
 104 190 104 190 146.552926672 222.540473337 c 0,9,10
 172 242 172 242 210 252 c 1,11,-1
 211 255 l 1,12,13
 165 269 165 269 149.195145747 299.59004049 c 0,14,15
 134 329 134 329 144 379 c 2,16,-1
 170 498 l 2,17,18
 176 527 176 527 164.813884489 537.677655715 c 0,19,20
 154 548 154 548 120 548 c 2,21,-1
 81 548 l 1,22,-1
 106 667 l 1,23,-1
 161 667 l 2,24,25
 249 667 249 667 289.121421158 629.266758672 c 0,26,27
 333 588 333 588 316 505 c 2,28,-1
 296 409 l 2,29,30
 286 361 286 361 293.572204624 340.510505134 c 0,31,32
 303 315 303 315 346 315 c 1,33,-1
 320 192 l 1,34,35
 274 192 274 192 252.468142688 160.898428328 c 0,36,37
 238 140 238 140 229 97 c 2,38,-1
 210 1 l 2,39,40
 198 -57 198 -57 177.040464061 -91.5832342994 c 0,41,42
 158 -123 158 -123 127.355710533 -139.666192517 c 0,43,44
 101 -154 101 -154 57.6815549216 -158.813160564 c 0,45,46
 29 -162 29 -162 -16 -162 c 2,47,-1
 -70 -162 l 1,0,-1
EndSplineSet
EndChar

StartChar: asciitilde
Encoding: 126 126 138
Width: 533
GlyphClass: 1
Flags: W
HStem: 167 123<282.501 372.537> 227 123<129.953 226.176>
DStem2: 235.183 338.88 271.666 178.561 0.895192 -0.445681<-10.9501 113.008>
LayerCount: 2
Fore
SplineSet
328.090482291 167 m 0,0,1
 298 167 298 167 271.666194442 178.561182928 c 0,2,3
 257 185 257 185 238.518826102 197.320782599 c 0,4,5
 221 209 221 209 208.570549419 215.214725291 c 0,6,7
 185 227 185 227 166.674423771 227 c 0,8,9
 146 227 146 227 133.190290767 214.990897595 c 0,10,11
 114 197 114 197 106 146 c 1,12,-1
 9 184 l 1,13,14
 31 261 31 261 65.6758060694 300.565983848 c 0,15,16
 109 350 109 350 178.391587135 350 c 0,17,18
 208 350 208 350 235.18251848 338.879878804 c 0,19,20
 252 332 252 332 273.435099359 317.709933761 c 0,21,22
 288 308 288 308 297.826563992 302.640056005 c 0,23,24
 321 290 321 290 337.608407374 290 c 0,25,26
 356 290 356 290 368.855391911 302.076277249 c 0,27,28
 389 321 389 321 396 370 c 1,29,-1
 494 333 l 1,30,31
 472 256 472 256 437.386805732 215.99254169 c 0,32,33
 395 167 395 167 328.090482291 167 c 0,0,1
EndSplineSet
EndChar

StartChar: exclamdown
Encoding: 161 161 139
Width: 297
GlyphClass: 1
Flags: W
HStem: -162 21G<-55 147.277> 324 194<104.878 227.803>
VStem: 69 194<359.193 482.154>
LayerCount: 2
Fore
SplineSet
-55 -162 m 1,0,-1
 -18 11 l 1,1,-1
 77 264 l 1,2,-1
 192 264 l 1,3,-1
 180 11 l 1,4,-1
 143 -162 l 1,5,-1
 -55 -162 l 1,0,-1
166.5 324 m 128,-1,7
 126 324 126 324 97.53759901 351.963060622 c 128,-1,8
 69 380 69 380 69 420.513348739 c 128,-1,9
 69 461 69 461 97.5861614161 489.586161416 c 128,-1,10
 126 518 126 518 166.469343665 518 c 128,-1,11
 207 518 207 518 235.043302978 489.455923754 c 128,-1,12
 263 461 263 461 263 420.515670786 c 128,-1,13
 263 380 263 380 234.997291993 351.997291993 c 128,-1,6
 207 324 207 324 166.5 324 c 128,-1,7
EndSplineSet
EndChar

StartChar: cent
Encoding: 162 162 140
Width: 531
GlyphClass: 1
Flags: W
VStem: 2 154<129.286 299.577> 155 74<-87 -13>
DStem2: 155 -87 229 -87 0.207912 0.978148<15.3855 80.8082 215.627 480.521 622.394 672.729>
LayerCount: 2
Fore
SplineSet
198 114 m 1,0,-1
 255 383 l 1,1,2
 225 370 225 370 203.389911506 343.728912027 c 0,3,4
 174 308 174 308 161.644234559 247.594035623 c 0,5,6
 156 220 156 220 156 196.930070508 c 0,7,8
 156 164 156 164 168.305809003 142.063557864 c 0,9,10
 179 123 179 123 198 114 c 1,0,-1
155 -87 m 1,11,-1
 172 -8 l 1,12,13
 90 6 90 6 45.0058673788 61.7313688148 c 0,14,15
 2 115 2 115 2 194.207313388 c 0,16,17
 2 209 2 209 3.92102261883 226.929544442 c 0,18,19
 5 237 5 237 7.9771336241 253.180074044 c 0,20,21
 28 362 28 362 100.91231911 429.91832465 c 128,-1,22
 174 498 174 498 282 508 c 1,23,-1
 295 571 l 1,24,-1
 368 571 l 1,25,-1
 354 507 l 1,26,27
 407 500 407 500 443.327340755 474.436315765 c 0,28,29
 488 443 488 443 511 381 c 1,30,-1
 378 335 l 1,31,32
 372 358 372 358 359.094554832 371.421662974 c 0,33,34
 347 384 347 384 329 388 c 1,35,-1
 270 109 l 1,36,37
 290 113 290 113 305.954534946 122.572720968 c 0,38,39
 325 134 325 134 341 155 c 1,40,-1
 464 107 l 1,41,42
 420 45 420 45 353.342194466 14.5442785059 c 0,43,44
 304 -8 304 -8 245 -12 c 1,45,-1
 229 -87 l 1,46,-1
 155 -87 l 1,11,-1
EndSplineSet
EndChar

StartChar: sterling
Encoding: 163 163 141
Width: 617
GlyphClass: 1
Flags: W
HStem: -12 125<260.749 498.485> 24 110<163.343 282.803> 295 73<58 133 315 443> 556 123<298.496 445.71>
VStem: 113 158<380.647 530.019> 158 159<217.493 294.75>
LayerCount: 2
Fore
SplineSet
33 -12 m 1,0,-1
 2 104 l 1,1,2
 85 140 85 140 127.104298542 195.946807652 c 0,3,4
 158 237 158 237 158 275.121083422 c 0,5,6
 158 287 158 287 155 295 c 1,7,-1
 43 295 l 1,8,-1
 58 368 l 1,9,-1
 133 368 l 1,10,11
 126 393 126 393 122.144837312 409.606854655 c 0,12,13
 113 449 113 449 113 480.297593425 c 0,14,15
 113 531 113 531 138.39603775 571.739477225 c 0,16,17
 161 608 161 608 203.540419245 633.524251547 c 0,18,19
 241 656 241 656 291.157949048 667.893121939 c 0,20,21
 338 679 338 679 387.611047678 679 c 0,22,23
 565 679 565 679 632 537 c 1,24,-1
 485 487 l 1,25,26
 463 525 463 525 436.216413046 540.967138376 c 0,27,28
 411 556 411 556 371.585208864 556 c 0,29,30
 325 556 325 556 299.155106855 535.898416443 c 0,31,32
 271 514 271 514 271 471.560151258 c 0,33,34
 271 430 271 430 298 368 c 1,35,-1
 458 368 l 1,36,-1
 443 295 l 1,37,-1
 315 295 l 1,38,39
 317 287 317 287 317 278.949223376 c 0,40,41
 317 246 317 246 287.874328787 206.441252531 c 0,42,43
 250 155 250 155 181 117 c 1,44,45
 204 129 204 129 233.251050439 132.323983004 c 0,46,47
 248 134 248 134 264.842856145 134 c 0,48,49
 307 134 307 134 344.146263146 122.694615564 c 0,50,51
 376 113 376 113 406.3918657 113 c 0,52,53
 434 113 434 113 462.588801681 121.316742307 c 0,54,55
 489 129 489 129 517 144 c 1,56,-1
 535 23 l 1,57,58
 497 6 497 6 458.938811558 -2.45804187595 c 0,59,60
 416 -12 416 -12 373.38606525 -12 c 0,61,62
 332 -12 332 -12 277.475488083 3.57843197634 c 0,63,64
 269 6 269 6 263.948092435 7.49072682255 c 0,65,66
 208 24 208 24 173.686192412 24 c 0,67,68
 153 24 153 24 130.245915821 20.1542392936 c 0,69,70
 82 12 82 12 33 -12 c 1,0,-1
EndSplineSet
EndChar

StartChar: currency
Encoding: 164 164 142
Width: 678
GlyphClass: 1
Flags: W
HStem: 102 119<275.619 398.378> 419 120<274.672 399.24>
VStem: 118 120<258.819 382.206> 436 119<259.106 381.832>
DStem2: 144 565 92 513 0.707107 -0.707107<0 99.0648 520.392 619.426> 92 127 144 75 0.707107 0.707107<0 99.0336 520.408 619.426>
LayerCount: 2
Fore
SplineSet
337 221 m 128,-1,1
 378 221 378 221 407.123933887 250.626070679 c 0,2,3
 436 280 436 280 436 320.95610193 c 128,-1,4
 436 362 436 362 406.866152505 390.63153978 c 0,5,6
 378 419 378 419 337.047417656 419 c 128,-1,7
 296 419 296 419 267.117709504 390.615680029 c 0,8,9
 238 362 238 362 238 320.95848 c 128,-1,10
 238 280 238 280 266.868720584 250.633542855 c 0,11,0
 296 221 296 221 337 221 c 128,-1,1
144 75 m 1,12,-1
 92 127 l 1,13,-1
 159 194 l 1,14,15
 140 221 140 221 129.663651591 251.069377191 c 0,16,17
 118 285 118 285 118 321.019878361 c 0,18,19
 118 356 118 356 129.66990925 389.41837649 c 0,20,21
 140 419 140 419 159 446 c 1,22,-1
 92 513 l 1,23,-1
 144 565 l 1,24,-1
 211 498 l 1,25,26
 238 518 238 518 269.756892047 528.420230203 c 0,27,28
 302 539 302 539 337.567169565 539 c 128,-1,29
 373 539 373 539 405.060099495 528.313300168 c 0,30,31
 436 518 436 518 463 498 c 1,32,-1
 530 565 l 1,33,-1
 582 513 l 1,34,-1
 515 446 l 1,35,36
 555 391 555 391 555 320.91029025 c 0,37,38
 555 285 555 285 544.106136655 251.799654566 c 0,39,40
 534 221 534 221 515 194 c 1,41,-1
 582 127 l 1,42,-1
 530 75 l 1,43,-1
 463 142 l 1,44,45
 408 102 408 102 337 102 c 128,-1,46
 266 102 266 102 211 142 c 1,47,-1
 144 75 l 1,12,-1
EndSplineSet
EndChar

StartChar: yen
Encoding: 165 165 143
Width: 700
GlyphClass: 1
Flags: W
HStem: 0 21G<191 358.267> 75 73<99 207 385 499> 212 74<128 225 442 528> 647 20G<82 259.209 542.188 762>
VStem: 558 204<463 667>
DStem2: 339 390 442 286 0.643145 0.765744<0 352.96>
LayerCount: 2
Fore
SplineSet
191 0 m 1,0,-1
 207 75 l 1,1,-1
 83 75 l 1,2,-1
 99 148 l 1,3,-1
 222 148 l 1,4,-1
 236 212 l 1,5,-1
 112 212 l 1,6,-1
 128 286 l 1,7,-1
 225 286 l 1,8,-1
 82 667 l 1,9,-1
 253 667 l 1,10,-1
 339 390 l 1,11,-1
 558 667 l 1,12,-1
 762 667 l 1,13,-1
 442 286 l 1,14,-1
 544 286 l 1,15,-1
 528 212 l 1,16,-1
 398 212 l 1,17,-1
 385 148 l 1,18,-1
 515 148 l 1,19,-1
 499 75 l 1,20,-1
 370 75 l 1,21,-1
 354 0 l 1,22,-1
 191 0 l 1,0,-1
EndSplineSet
EndChar

StartChar: brokenbar
Encoding: 166 166 144
Width: 281
GlyphClass: 1
Flags: W
HStem: -161 21G<59 187> 648 20G<59 187>
VStem: 59 128<-161 150 358 668>
LayerCount: 2
Fore
SplineSet
59 -161 m 1,0,-1
 59 150 l 1,1,-1
 187 150 l 1,2,-1
 187 -161 l 1,3,-1
 59 -161 l 1,0,-1
59 358 m 1,4,-1
 59 668 l 1,5,-1
 187 668 l 1,6,-1
 187 358 l 1,7,-1
 59 358 l 1,4,-1
EndSplineSet
EndChar

StartChar: section
Encoding: 167 167 145
Width: 563
GlyphClass: 1
Flags: W
HStem: -174 120<95.362 213.813> 563 116<305.487 458.89>
VStem: 15 156<262.428 335.869> 147 152<487.986 553.175> 231 157<-36.0229 47.6035> 365 161<198.938 268.896>
LayerCount: 2
Fore
SplineSet
303.999999043 177.000000736 m 1,0,1
 365 202 365 202 365 231.684351253 c 0,2,3
 365 244 365 244 353.826103662 257.834347847 c 0,4,5
 344 270 344 270 320.556081078 287.785041941 c 0,6,7
 315 292 315 292 299.590829654 303.12884525 c 0,8,9
 279 318 279 318 257.595752363 333.900298244 c 0,10,11
 244 344 244 344 233 352 c 1,12,13
 203 346 203 346 186.300680027 331.388095024 c 0,14,15
 171 318 171 318 171 300.820768098 c 0,16,17
 171 278 171 278 203.766596207 252.514869617 c 0,18,19
 207 250 207 250 213.920887614 244.70755653 c 0,20,21
 241 224 241 224 262.309308884 208.449963787 c 0,22,23
 278 197 278 197 303.999999043 177.000000736 c 1,0,1
140.278047465 -174 m 0,24,25
 66 -174 66 -174 13.7914319165 -143.345427914 c 0,26,27
 -43 -110 -43 -110 -59 -49 c 1,28,-1
 81 -2 l 1,29,30
 84 -29 84 -29 108.450970359 -43.2156804412 c 0,31,32
 127 -54 127 -54 151.558149171 -54 c 0,33,34
 181 -54 181 -54 203.336254906 -40.1515219584 c 0,35,36
 231 -23 231 -23 231 3.95612781949 c 0,37,38
 231 26 231 26 208.424782142 48.5752178576 c 0,39,40
 194 63 194 63 160.126569557 85.7875804796 c 0,41,42
 139 100 139 100 118.626428609 115.161727547 c 0,43,44
 96 132 96 132 83.2282406921 142.550583776 c 0,45,46
 50 170 50 170 34.4195113198 194.038468249 c 0,47,48
 15 224 15 224 15 265.457087285 c 128,-1,49
 15 307 15 307 36.003386888 340.92854805 c 0,50,51
 54 370 54 370 89.2185443056 393.840245376 c 0,52,53
 119 414 119 414 159 429 c 1,54,55
 147 458 147 458 147 490.113711965 c 0,56,57
 147 536 147 536 169.93605549 576.255117799 c 0,58,59
 196 622 196 622 241.946572646 648.189546408 c 0,60,61
 296 679 296 679 371.880311851 679 c 0,62,63
 436 679 436 679 482.734878246 660.306048701 c 0,64,65
 546 635 546 635 571 578 c 1,66,-1
 432 532 l 1,67,68
 427 548 427 548 405.733556017 556.394648941 c 0,69,70
 389 563 389 563 367.927699878 563 c 0,71,72
 342 563 342 563 323.20474361 554.258020284 c 0,73,74
 299 543 299 543 299 523.037822422 c 0,75,76
 299 501 299 501 340.452412227 472.194086419 c 0,77,78
 358 460 358 460 387.264057343 437.452283687 c 0,79,80
 419 413 419 413 433.985709612 402.241028996 c 0,81,82
 458 385 458 385 474.532033767 369.67762724 c 0,83,84
 499 347 499 347 511.235277307 325.701554317 c 0,85,86
 526 300 526 300 526 267.894506925 c 0,87,88
 526 221 526 221 500.122697648 183.210923549 c 0,89,90
 463 129 463 129 375 97 c 1,91,92
 388 74 388 74 388 41.2892826573 c 0,93,94
 388 5 388 5 372.678303847 -30.9102253584 c 0,95,96
 356 -70 356 -70 325.339790835 -100.660209165 c 0,97,98
 292 -134 292 -134 248.803476796 -152.579149765 c 0,99,100
 199 -174 199 -174 140.278047465 -174 c 0,24,25
EndSplineSet
EndChar

StartChar: dieresis
Encoding: 168 168 146
Width: 455
GlyphClass: 1
Flags: W
HStem: 578 141<149.781 247.85 343.781 441.478>
VStem: 128 141<599.135 697.22> 322 140<599.25 697.094>
LayerCount: 2
Fore
SplineSet
393 578 m 128,-1,1
 364 578 364 578 343.126510615 598.376501542 c 0,2,3
 322 619 322 619 322 648.043545217 c 128,-1,4
 322 677 322 677 342.99211089 697.99211089 c 128,-1,5
 364 719 364 719 393.00272311 719 c 128,-1,6
 422 719 422 719 442.243469269 697.744357267 c 0,7,8
 462 677 462 677 462 648.088798933 c 128,-1,9
 462 619 462 619 442.10817524 598.610879621 c 0,10,0
 422 578 422 578 393 578 c 128,-1,1
199 578 m 128,-1,12
 170 578 170 578 149.126510615 598.376501542 c 0,13,14
 128 619 128 619 128 648.043545217 c 128,-1,15
 128 677 128 677 148.99211089 697.99211089 c 128,-1,16
 170 719 170 719 199.00272311 719 c 128,-1,17
 228 719 228 719 248.623017213 697.873982367 c 0,18,19
 269 677 269 677 269 648.043637116 c 128,-1,20
 269 619 269 619 248.492294065 598.492294065 c 128,-1,11
 228 578 228 578 199 578 c 128,-1,12
EndSplineSet
EndChar

StartChar: copyright
Encoding: 169 169 147
Width: 814
GlyphClass: 1
Flags: W
HStem: -12 69<300.155 514.653> 145 85<365.307 473.036> 437 85<365.471 468.045> 610 69<300.289 514.613>
VStem: 62 70<226.446 440.87> 227 112<256.975 410.582> 684 70<226.447 440.872>
LayerCount: 2
Fore
SplineSet
404.270130836 145 m 0,0,1
 322 145 322 145 273.812831451 197.752268727 c 0,2,3
 227 249 227 249 227 332.112920238 c 0,4,5
 227 391 227 391 251.486870453 434.763768469 c 0,6,7
 274 475 274 475 313.725916284 497.769732504 c 0,8,9
 356 522 356 522 408.609390251 522 c 0,10,11
 457 522 457 522 495.177829705 504.798999803 c 0,12,13
 548 481 548 481 573 428 c 1,14,-1
 481 394 l 1,15,16
 472 417 472 417 453.670419411 427.782106229 c 0,17,18
 438 437 438 437 418.359541482 437 c 0,19,20
 387 437 387 437 366.578441881 417.003891008 c 0,21,22
 339 390 339 390 339 331.31384416 c 0,23,24
 339 276 339 276 368.005151746 248.770673871 c 0,25,26
 388 230 388 230 419.971232554 230 c 0,27,28
 463 230 463 230 482 264 c 1,29,-1
 572 231 l 1,30,31
 544 183 544 183 492.916760886 161.431521263 c 0,32,33
 454 145 454 145 404.270130836 145 c 0,0,1
407 57 m 128,-1,35
 464 57 464 57 515.840740295 79.0708102246 c 0,36,37
 565 100 565 100 602.744376805 137.744376805 c 0,38,39
 641 176 641 176 661.965202101 225.243846795 c 0,40,41
 684 277 684 277 684 334.350117973 c 0,42,43
 684 391 684 391 661.868873686 442.467735614 c 0,44,45
 641 491 641 491 603.448245508 528.551754492 c 0,46,47
 565 567 565 567 515.692781388 587.992182182 c 0,48,49
 464 610 464 610 406.667340228 610 c 0,50,51
 350 610 350 610 298.824319321 587.772179099 c 0,52,53
 251 567 251 567 213.495282611 529.495282611 c 0,54,55
 175 491 175 491 154.094669497 442.382952318 c 0,56,57
 132 391 132 391 132 333.611216937 c 0,58,59
 132 277 132 277 154.034047358 225.245609693 c 0,60,61
 175 176 175 176 213.094412743 137.905587257 c 128,-1,62
 251 100 251 100 298.721226758 79.2725984788 c 0,63,34
 350 57 350 57 407 57 c 128,-1,35
407.5 -12 m 128,-1,65
 336 -12 336 -12 271.387181819 15.9127374543 c 0,66,67
 211 42 211 42 163.908367577 89.0916324231 c 0,68,69
 116 137 116 137 89.9020049578 197.412025561 c 0,70,71
 62 262 62 262 62 334.08738936 c 0,72,73
 62 405 62 405 89.8571154118 469.484063453 c 0,74,75
 116 530 116 530 163.116923033 577.116923033 c 0,76,77
 211 625 211 625 271.622098175 651.188746412 c 0,78,79
 336 679 336 679 408.02915966 679 c 0,80,81
 479 679 479 679 543.792768477 651.231670653 c 0,82,83
 605 625 605 625 652.323263531 577.676736469 c 0,84,85
 700 530 700 530 726.159623344 469.445316333 c 0,86,87
 754 405 754 405 754 332.952133059 c 0,88,89
 754 262 754 262 726.139127399 197.50723935 c 0,90,91
 700 137 700 137 653.050853967 90.0508539665 c 0,92,93
 605 42 605 42 543.728214948 15.7406635489 c 0,94,64
 479 -12 479 -12 407.5 -12 c 128,-1,65
EndSplineSet
EndChar

StartChar: questiondown
Encoding: 191 191 148
Width: 634
GlyphClass: 1
Flags: W
HStem: -172 128<171.85 338.865> 325 194<303.171 426.095>
VStem: -21 175.047<-28.8893 45.8592> 268 194<360.261 483.162>
LayerCount: 2
Fore
SplineSet
417 265 m 1,0,1
 414 242 414 242 406.399472859 221.842080192 c 0,2,3
 391 181 391 181 354.405014565 147.587187212 c 0,4,5
 322 118 322 118 260.759838359 90.3988003873 c 0,6,7
 251 86 251 86 246.712786785 84.0860655291 c 0,8,9
 195 61 195 61 176.018838951 46.7641292133 c 0,10,11
 155 31 155 31 154.046506699 8.11616078338 c 0,12,13
 153 -17 153 -17 177.092280801 -30.5519079505 c 128,-1,14
 201 -44 201 -44 244.778491637 -44 c 0,15,16
 294 -44 294 -44 329.039790611 -27.4534322114 c 0,17,18
 366 -10 366 -10 379 22 c 1,19,-1
 517 -33 l 1,20,21
 474 -109 474 -109 394.664818384 -143.233674259 c 0,22,23
 328 -172 328 -172 236.338251277 -172 c 0,24,25
 188 -172 188 -172 145.694491332 -164.479020681 c 0,26,27
 98 -156 98 -156 63.4511134084 -139.659310396 c 0,28,29
 24 -121 24 -121 2.99433570852 -93.926032691 c 0,30,31
 -21 -63 -21 -63 -21 -15.9843263632 c 0,32,33
 -21 28 -21 28 1.30066611398 64.6368086158 c 0,34,35
 21 97 21 97 61.8336431795 124.605843276 c 0,36,37
 92 145 92 145 137.600562326 164.703946684 c 0,38,39
 173 180 173 180 193.454966443 192.272979866 c 0,40,41
 223 210 223 210 238.752180118 231.753010639 c 0,42,43
 244 239 244 239 248.482728264 247.965456528 c 0,44,45
 252 255 252 255 256 265 c 1,46,-1
 417 265 l 1,0,1
364.5 325 m 128,-1,48
 324 325 324 325 295.91304264 353.08695736 c 128,-1,49
 268 381 268 381 268 421.468506675 c 128,-1,50
 268 462 268 462 295.968501789 490.467939321 c 128,-1,51
 324 519 324 519 364.511383576 519 c 128,-1,52
 405 519 405 519 433.410572936 490.589427064 c 128,-1,53
 462 462 462 462 462 421.468279605 c 128,-1,54
 462 381 462 381 433.379473858 352.881588352 c 0,55,47
 405 325 405 325 364.5 325 c 128,-1,48
EndSplineSet
EndChar

StartChar: germandbls
Encoding: 223 223 149
Width: 631
GlyphClass: 1
Flags: W
HStem: -13 125<253.375 386.719> 0 21G<-23 138.245> 298 117<302 393.57> 566 113<282.92 434.298>
VStem: -23 157<0 157> 424 162<146.803 268.735> 449.754 152.246<449.807 548.928>
DStem2: -25.7632 -13 131.237 -13 0.207912 0.978148<45.9326 594.477>
LayerCount: 2
Fore
SplineSet
301.738678951 -13 m 0,0,1
 290 -13 290 -13 277.818868541 -12.5127547416 c 0,2,3
 265 -12 265 -12 253 -11 c 1,4,-1
 241 123 l 1,5,6
 282 112 282 112 314.13009216 112 c 0,7,8
 364 112 364 112 393.201774636 137.794900929 c 0,9,10
 424 165 424 165 424 210.098781687 c 0,11,12
 424 298 424 298 307 298 c 2,13,-1
 277 298 l 1,14,-1
 302 415 l 1,15,-1
 328 415 l 2,16,17
 382 415 382 415 415.029341605 438.739839279 c 0,18,19
 446 461 446 461 449.754049773 494.78644796 c 0,20,21
 453 524 453 524 436.463847541 542.276800086 c 0,22,23
 415 566 415 566 363.224028421 566 c 0,24,25
 305 566 305 566 274.525575874 537.430227382 c 0,26,27
 241 506 241 506 224 424 c 2,28,-1
 134 0 l 1,29,-1
 -23 0 l 1,30,-1
 70 435 l 2,31,32
 90 526 90 526 129.343220176 579.970827678 c 0,33,34
 168 633 168 633 232.471556902 657.111313963 c 0,35,36
 291 679 291 679 369.135413482 679 c 0,37,38
 439 679 439 679 489.704986657 661.601230069 c 0,39,40
 541 644 541 644 569.451623819 611.350595617 c 0,41,42
 602 574 602 574 602 516.628460117 c 0,43,44
 602 470 602 470 580.427063194 432.874480846 c 0,45,46
 559 396 559 396 516 368 c 1,47,48
 548 352 548 352 566.466113107 317.49752551 c 0,49,50
 586 281 586 281 586 225.210045352 c 0,51,52
 586 150 586 150 549.924312411 94.6161979266 c 0,53,54
 515 41 515 41 450.620931125 13.6262226832 c 0,55,56
 388 -13 388 -13 301.738678951 -13 c 0,0,1
EndSplineSet
EndChar

StartChar: AE
Encoding: 198 198 150
Width: 1016
GlyphClass: 1
Flags: W
HStem: 0 139<602 929> 119 128<354 437> 275 138<660 849> 529 139<685 1042>
DStem2: -65 0 136 0 0.679101 0.734045<136.499 295.156 465.852 630.421>
AnchorPoint: "Anchor-0" 763 668 basechar 0
LayerCount: 2
Fore
SplineSet
354 247 m 1,0,-1
 464 247 l 1,1,-1
 501 421 l 1,2,-1
 354 247 l 1,0,-1
-65 0 m 1,3,-1
 553 668 l 1,4,-1
 1071 668 l 1,5,-1
 1042 529 l 1,6,-1
 685 529 l 1,7,-1
 660 413 l 1,8,-1
 879 413 l 1,9,-1
 849 275 l 1,10,-1
 631 275 l 1,11,-1
 602 139 l 1,12,-1
 959 139 l 1,13,-1
 929 0 l 1,14,-1
 411 0 l 1,15,-1
 437 119 l 1,16,-1
 241 119 l 1,17,-1
 136 0 l 1,18,-1
 -65 0 l 1,3,-1
EndSplineSet
EndChar

StartChar: florin
Encoding: 279 402 151
Width: 390
GlyphClass: 1
Flags: W
HStem: -173 140<-60.0687 18.8363> 381 115<53 111 287 371> 608 121<323.353 419>
DStem2: -7.06199 -173 145.629 -173 0.207912 0.978148<165.366 566.44 715.52 824.579>
LayerCount: 2
Fore
SplineSet
-10.8068537326 -173 m 0,0,1
 -30 -173 -30 -173 -51.2309573561 -170.34613033 c 0,2,3
 -70 -168 -70 -168 -87 -164 c 1,4,-1
 -59 -31 l 1,5,6
 -53 -32 -53 -32 -46.2496290793 -32.5192593016 c 0,7,8
 -40 -33 -40 -33 -33.9615847078 -33 c 0,9,10
 4 -33 4 -33 20.1454774523 -10.2767354375 c 0,11,12
 31 5 31 5 38 39 c 2,13,-1
 111 381 l 1,14,-1
 29 381 l 1,15,-1
 53 496 l 1,16,-1
 135 496 l 1,17,-1
 153 578 l 2,18,19
 166 637 166 637 193.532174697 670.140580653 c 0,20,21
 220 702 220 702 266.268455598 716.036497766 c 0,22,23
 309 729 309 729 376 729 c 2,24,-1
 445 729 l 1,25,-1
 419 608 l 1,26,-1
 377 608 l 2,27,28
 337 608 337 608 322.906661795 600.224365128 c 0,29,30
 308 592 308 592 302 564 c 2,31,-1
 287 496 l 1,32,-1
 395 496 l 1,33,-1
 371 381 l 1,34,-1
 263 381 l 1,35,-1
 179 -16 l 2,36,37
 163 -95 163 -95 112.851939018 -134.913762823 c 0,38,39
 65 -173 65 -173 -10.8068537326 -173 c 0,0,1
EndSplineSet
EndChar

StartChar: integral
Encoding: 280 8747 152
Width: 344
GlyphClass: 1
Flags: W
HStem: 536 144<264.919 324.287>
VStem: -45 112<-104.481 -47.0251> 85 138.354<316.531 561.773> 93 135<-56.3858 506.229> 246 111.434<552.778 610.718>
LayerCount: 2
Fore
SplineSet
57.88776085 -174 m 0,0,1
 29 -174 29 -174 5.09569736132 -162.567507434 c 0,2,3
 -17 -152 -17 -152 -30.4184634558 -134.268459005 c 0,4,5
 -45 -115 -45 -115 -45 -90.2877265277 c 0,6,7
 -45 -64 -45 -64 -27.8889267972 -46.3704094274 c 0,8,9
 -12 -30 -12 -30 10.9546614295 -30 c 128,-1,10
 34 -30 34 -30 50.5081233695 -46.5081233695 c 128,-1,11
 67 -63 67 -63 67 -86.1334392724 c 0,12,13
 67 -96 67 -96 64 -105 c 1,14,15
 81 -97 81 -97 87.5642689174 -68.0078122815 c 0,16,17
 93 -44 93 -44 93 -2.01009229715 c 0,18,19
 93 16 93 16 91.8883214817 56.0204266578 c 0,20,21
 91 88 91 88 89.6619328257 151.558190781 c 0,22,23
 89 183 89 183 88.3292846199 216.535769004 c 0,24,25
 87 283 87 283 86.268654751 314.813518333 c 0,26,27
 85 370 85 370 85 395.797066141 c 0,28,29
 85 508 85 508 111.47596822 575.844668563 c 0,30,31
 133 631 133 631 175.051211778 657.75986204 c 0,32,33
 210 680 210 680 254.204637014 680 c 0,34,35
 302 680 302 680 332.085490251 652.063473338 c 0,36,37
 358 628 358 628 357.434446048 594.632316853 c 0,38,39
 357 569 357 569 340.760199213 552.252705438 c 0,40,41
 325 536 325 536 301.66112746 536 c 0,42,43
 280 536 280 536 264.431033771 548.821501601 c 0,44,45
 246 564 246 564 246 591.076204425 c 0,46,47
 246 602 246 602 249 611 c 1,48,49
 220 597 220 597 220 506.757594084 c 0,50,51
 220 490 220 490 221.083292795 451.543105766 c 0,52,53
 222 419 222 419 223.354352199 354.668270548 c 0,54,55
 224 324 224 324 224.665174568 290.741271578 c 0,56,57
 226 224 226 224 226.723573704 192.524543892 c 0,58,59
 228 137 228 137 228 110.951425249 c 0,60,61
 228 -2 228 -2 201.686337204 -69.4287609142 c 0,62,63
 180 -125 180 -125 136.032504998 -152.270977912 c 0,64,65
 101 -174 101 -174 57.88776085 -174 c 0,0,1
EndSplineSet
EndChar

StartChar: approxequal
Encoding: 281 8776 153
Width: 556
GlyphClass: 1
Flags: W
HStem: 59 123<283.13 370.444> 118 125<151.19 248.292> 257 123<282.633 370.428> 317 124<151.119 247.354>
LayerCount: 2
Fore
SplineSet
357.661004072 59 m 0,0,1
 319 59 319 59 270.064574432 84.7554871412 c 0,2,3
 262 89 262 89 257.05295691 91.7068726339 c 0,4,5
 209 118 209 118 181.913505972 118 c 0,6,7
 164 118 164 118 154.562855959 108.562855959 c 0,8,9
 141 95 141 95 140 57 c 1,10,-1
 36 95 l 1,11,12
 43 163 43 163 69.8577943704 198.810392494 c 0,13,14
 103 243 103 243 169.345670468 243 c 0,15,16
 208 243 208 243 251.042157841 221.478921079 c 0,17,18
 268 213 268 213 281.498492119 204.630934886 c 0,19,20
 318 182 318 182 340.567079935 182 c 0,21,22
 357 182 357 182 366.597981039 191.597981039 c 0,23,24
 381 206 381 206 382 244 c 1,25,-1
 486 206 l 1,26,27
 479 137 479 137 451.867144312 101.129445023 c 0,28,29
 420 59 420 59 357.661004072 59 c 0,0,1
357.509127013 257 m 0,30,31
 319 257 319 257 272.579060224 281.432073566 c 0,32,33
 262 287 262 287 254.689696805 291.137907469 c 0,34,35
 209 317 209 317 182.002694472 317 c 0,36,37
 164 317 164 317 154.549033676 307.549033676 c 0,38,39
 141 294 141 294 140 256 c 1,40,-1
 36 294 l 1,41,42
 43 362 43 362 69.9658775169 397.505072064 c 0,43,44
 103 441 103 441 169.151964182 441 c 0,45,46
 208 441 208 441 251.072546178 419.463726911 c 0,47,48
 268 411 268 411 281.489656597 402.63641291 c 0,49,50
 318 380 318 380 340.56823063 380 c 0,51,52
 357 380 357 380 366.676789442 389.676789442 c 0,53,54
 381 404 381 404 382 441 c 1,55,-1
 486 404 l 1,56,57
 479 336 479 336 452.116640156 300.003636819 c 0,58,59
 420 257 420 257 357.509127013 257 c 0,30,31
EndSplineSet
EndChar

StartChar: notequal
Encoding: 282 8800 154
Width: 661
GlyphClass: 1
Flags: W
HStem: 0 21G<64 231.167> 96 129<58 131 374 570> 283 127<58 262 504 570> 475 20G<397.118 564>
LayerCount: 2
Fore
SplineSet
64 0 m 1,0,-1
 131 96 l 1,1,-1
 58 96 l 1,2,-1
 58 225 l 1,3,-1
 221 225 l 1,4,-1
 262 283 l 1,5,-1
 58 283 l 1,6,-1
 58 410 l 1,7,-1
 352 410 l 1,8,-1
 411 495 l 1,9,-1
 564 495 l 1,10,-1
 504 410 l 1,11,-1
 570 410 l 1,12,-1
 570 283 l 1,13,-1
 414 283 l 1,14,-1
 374 225 l 1,15,-1
 570 225 l 1,16,-1
 570 96 l 1,17,-1
 285 96 l 1,18,-1
 217 0 l 1,19,-1
 64 0 l 1,0,-1
EndSplineSet
EndChar

StartChar: lessequal
Encoding: 283 8804 155
Width: 676
GlyphClass: 1
Flags: W
HStem: 0 128<53 565> 490 20G<482.419 565>
LayerCount: 2
Fore
SplineSet
53 0 m 1,0,-1
 53 128 l 1,1,-1
 565 128 l 1,2,-1
 565 0 l 1,3,-1
 53 0 l 1,0,-1
565 136 m 1,4,-1
 53 260 l 1,5,-1
 53 386 l 1,6,-1
 565 510 l 1,7,-1
 565 381 l 1,8,-1
 228 324 l 1,9,-1
 565 265 l 1,10,-1
 565 136 l 1,4,-1
EndSplineSet
EndChar

StartChar: greaterequal
Encoding: 284 8805 156
Width: 702
GlyphClass: 1
Flags: W
HStem: 0 128<79 591> 490 20G<79 161.581>
LayerCount: 2
Fore
SplineSet
79 0 m 1,0,-1
 79 128 l 1,1,-1
 591 128 l 1,2,-1
 591 0 l 1,3,-1
 79 0 l 1,0,-1
79 136 m 1,4,-1
 79 265 l 1,5,-1
 416 324 l 1,6,-1
 79 381 l 1,7,-1
 79 510 l 1,8,-1
 591 386 l 1,9,-1
 591 260 l 1,10,-1
 79 136 l 1,4,-1
EndSplineSet
EndChar

StartChar: lozenge
Encoding: 285 9674 157
Width: 607
GlyphClass: 1
Flags: W
DStem2: 38 313 176 313 0.546521 0.837445<75.4199 302.012> 176 313 38 313 0.545572 -0.838064<0 226.591> 301 716 301 502 0.545061 -0.838396<179.417 405.461> 301 124 301 -91 0.544112 0.839013<0 226.043>
LayerCount: 2
Fore
SplineSet
301 124 m 1,0,-1
 425 313 l 1,1,-1
 301 502 l 1,2,-1
 176 313 l 1,3,-1
 301 124 l 1,0,-1
301 -91 m 1,4,-1
 38 313 l 1,5,-1
 301 716 l 1,6,-1
 563 313 l 1,7,-1
 301 -91 l 1,4,-1
EndSplineSet
EndChar

StartChar: summation
Encoding: 286 8721 158
Width: 793
GlyphClass: 1
Flags: W
HStem: -162 128<283 648> 540 128<283 648>
DStem2: 283 540 113 540 0.641239 -0.767341<0 262.423> 113 -34 283 -34 0.638606 0.769534<108.563 372.975>
LayerCount: 2
Fore
SplineSet
113 -162 m 1,0,-1
 113 -34 l 1,1,-1
 350 254 l 1,2,-1
 113 540 l 1,3,-1
 113 668 l 1,4,-1
 648 668 l 1,5,-1
 648 540 l 1,6,-1
 283 540 l 1,7,-1
 522 254 l 1,8,-1
 283 -34 l 1,9,-1
 648 -34 l 1,10,-1
 648 -162 l 1,11,-1
 113 -162 l 1,0,-1
EndSplineSet
EndChar

StartChar: minus
Encoding: 287 8722 159
Width: 645
GlyphClass: 1
Flags: W
HStem: 184 128<39 551>
LayerCount: 2
Fore
SplineSet
39 184 m 1,0,-1
 39 312 l 1,1,-1
 551 312 l 1,2,-1
 551 184 l 1,3,-1
 39 184 l 1,0,-1
EndSplineSet
EndChar

StartChar: uni2215
Encoding: 288 8725 160
Width: 482
GlyphClass: 1
Flags: W
HStem: 0 21G<-55 85.982> 648 20G<398.988 539>
VStem: -55 127<0 127> 413 126<542 668>
DStem2: -55 0 72 0 0.573791 0.819001<72.8715 815.627>
LayerCount: 2
Fore
SplineSet
-55 0 m 1,0,-1
 413 668 l 1,1,-1
 539 668 l 1,2,-1
 72 0 l 1,3,-1
 -55 0 l 1,0,-1
EndSplineSet
EndChar

StartChar: uni2219
Encoding: 289 8729 161
Width: 281
GlyphClass: 1
Flags: W
HStem: 157 194<64.3738 185.302>
VStem: 27 195<194.426 315.792>
LayerCount: 2
Fore
SplineSet
125 157 m 128,-1,1
 85 157 85 157 56 186 c 128,-1,2
 27 215 27 215 27 255.5 c 128,-1,3
 27 296 27 296 56.4750670007 323.95049457 c 0,4,5
 85 351 85 351 124.834828108 351 c 0,6,7
 165 351 165 351 193.098960935 323.886967519 c 0,8,9
 222 296 222 296 222 255.358519283 c 0,10,11
 222 215 222 215 193.560339324 186.061397909 c 128,-1,0
 165 157 165 157 125 157 c 128,-1,1
EndSplineSet
EndChar

StartChar: radical
Encoding: 290 8730 162
Width: 615
GlyphClass: 1
Flags: W
HStem: -162 21G<262.373 432.277> 93 132<19 161> 648 20G<496.679 646>
VStem: 502 144<524 668>
DStem2: 332 29 427 -162 0.255124 0.966908<0 661.226>
LayerCount: 2
Fore
SplineSet
271 -162 m 1,0,-1
 161 93 l 1,1,-1
 19 93 l 1,2,-1
 19 225 l 1,3,-1
 252 225 l 1,4,-1
 332 29 l 1,5,-1
 502 668 l 1,6,-1
 646 668 l 1,7,-1
 427 -162 l 1,8,-1
 271 -162 l 1,0,-1
EndSplineSet
EndChar

StartChar: infinity
Encoding: 291 8734 163
Width: 757
GlyphClass: 1
Flags: W
HStem: 97 107<162.59 265.734 459.212 562.051> 306 106<164.054 266.813 458.202 562.128>
VStem: 29 120<217.531 293.835> 576 120<217.374 293.533>
LayerCount: 2
Fore
SplineSet
516.221326346 204 m 0,0,1
 543 204 543 204 559.917580175 219.379618341 c 0,2,3
 576 234 576 234 576 256.02490358 c 0,4,5
 576 279 576 279 557.905991626 292.958235031 c 0,6,7
 541 306 541 306 516.391456382 306 c 0,8,9
 490 306 490 306 463.865685127 288.18114895 c 0,10,11
 446 276 446 276 429 256 c 1,12,13
 446 235 446 235 463.213063842 222.590581882 c 0,14,15
 489 204 489 204 516.221326346 204 c 0,0,1
208.778673654 204 m 0,16,17
 236 204 236 204 261.786936158 222.590581882 c 0,18,19
 279 235 279 235 296 256 c 1,20,21
 279 276 279 276 261.75059809 288.034466449 c 0,22,23
 236 306 236 306 208.681338375 306 c 0,24,25
 185 306 185 306 168.161583836 293.371187877 c 0,26,27
 149 279 149 279 149 255.65918955 c 0,28,29
 149 234 149 234 165.018065662 219.438122126 c 0,30,31
 182 204 182 204 208.778673654 204 c 0,16,17
202.218760044 97 m 0,32,33
 153 97 153 97 113.591675562 117.209397148 c 0,34,35
 75 137 75 137 52.7158420905 171.879551511 c 0,36,37
 29 209 29 209 29 255.10514255 c 0,38,39
 29 301 29 301 53.4446830211 337.406974712 c 0,40,41
 76 371 76 371 114.692415102 390.82986274 c 0,42,43
 156 412 156 412 205.308666545 412 c 0,44,45
 255 412 255 412 298.639118235 387.309446262 c 0,46,47
 331 369 331 369 362 336 c 1,48,49
 394 369 394 369 426.838118379 387.338170004 c 0,50,51
 471 412 471 412 522.785667212 412 c 0,52,53
 570 412 570 412 610.209883166 391.131579623 c 0,54,55
 649 371 649 371 671.322759441 337.753337003 c 0,56,57
 696 301 696 301 696 254.190631105 c 0,58,59
 696 209 696 209 672.336003381 171.960700945 c 0,60,61
 650 137 650 137 612.327359599 117.429797194 c 0,62,63
 573 97 573 97 523.0252379 97 c 0,64,65
 470 97 470 97 424.060287784 124.444503402 c 0,66,67
 393 143 393 143 362 176 c 1,68,69
 331 143 331 143 300.575377647 124.585096997 c 0,70,71
 255 97 255 97 202.218760044 97 c 0,32,33
EndSplineSet
EndChar

StartChar: uni03A9
Encoding: 292 937 164
Width: 744
GlyphClass: 1
Flags: W
HStem: 0 115<53 190 502 639> 564 116<261.465 429.016>
VStem: 53 121<309.316 476.688> 371 268<0 115> 517 122<308.787 476.634>
LayerCount: 2
Fore
SplineSet
53 0 m 1,0,-1
 53 115 l 1,1,-1
 190 115 l 1,2,-1
 190 139 l 1,3,4
 129 178 129 178 92.4429268378 241.012849793 c 0,5,6
 53 309 53 309 53 387.620035966 c 0,7,8
 53 447 53 447 75.9411882157 501.039243352 c 0,9,10
 98 553 98 553 138.466852197 593.466852197 c 128,-1,11
 179 634 179 634 230.105387265 656.177809568 c 0,12,13
 285 680 285 680 346.535616581 680 c 0,14,15
 407 680 407 680 461.78872426 656.22376117 c 0,16,17
 513 634 513 634 552.985055283 594.014944717 c 0,18,19
 594 553 594 553 615.978509749 501.228399259 c 0,20,21
 639 447 639 447 639 386.375000528 c 0,22,23
 639 309 639 309 600.466058655 241.694049118 c 0,24,25
 564 178 564 178 502 139 c 1,26,-1
 502 115 l 1,27,-1
 639 115 l 1,28,-1
 639 0 l 1,29,-1
 371 0 l 1,30,-1
 371 223 l 1,31,32
 413 229 413 229 446.651360502 253.473716729 c 0,33,34
 479 277 479 277 497.60118688 312.733859007 c 0,35,36
 517 350 517 350 517 393.085480168 c 0,37,38
 517 440 517 440 493.516505855 479.819837898 c 0,39,40
 471 518 471 518 433.044601938 540.383952703 c 0,41,42
 393 564 393 564 345.689425756 564 c 0,43,44
 299 564 299 564 258.909299132 540.656047596 c 0,45,46
 220 518 220 518 197.589665321 479.999867283 c 0,47,48
 174 440 174 440 174 392.859680937 c 0,49,50
 174 350 174 350 193.996944661 312.569821533 c 0,51,52
 213 277 213 277 245.976095855 253.375334313 c 0,53,54
 280 229 280 229 321 223 c 1,55,-1
 321 0 l 1,56,-1
 53 0 l 1,0,-1
EndSplineSet
EndChar

StartChar: estimated
Encoding: 293 8494 165
Width: 610
GlyphClass: 1
Flags: W
HStem: -12 70<201.978 380.246> 249 66<167 415> 440 70<202.268 380.205>
VStem: 30 137<144.997 249 315 352.694>
LayerCount: 2
Fore
SplineSet
167 315 m 1,0,-1
 415 315 l 1,1,-1
 415 394 l 1,2,3
 363 440 363 440 292.174434901 440 c 0,4,5
 256 440 256 440 223.425306414 427.784489905 c 0,6,7
 192 416 192 416 167 394 c 1,8,-1
 167 315 l 1,0,-1
291.33021571 -12 m 0,9,10
 220 -12 220 -12 159.265813559 23.7259920241 c 0,11,12
 101 58 101 58 66.6309483157 115.604466907 c 0,13,14
 30 177 30 177 30 249.564482276 c 0,15,16
 30 321 30 321 66.5605245329 381.7625619 c 0,17,18
 101 439 101 439 158.15495984 473.100858392 c 0,19,20
 220 510 220 510 292.69577899 510 c 0,21,22
 364 510 364 510 424.812601846 473.409366686 c 0,23,24
 482 439 482 439 515.691113814 382.206408143 c 0,25,26
 552 321 552 321 552 249 c 1,27,-1
 167 249 l 1,28,-1
 167 104 l 1,29,30
 192 82 192 82 223.463964463 70.2010133263 c 0,31,32
 256 58 256 58 291.588814276 58 c 0,33,34
 336 58 336 58 375.789138172 77.6361980588 c 0,35,36
 413 96 413 96 439 128 c 1,37,-1
 507 103 l 1,38,39
 472 51 472 51 417.611482062 20.6771979635 c 0,40,41
 359 -12 359 -12 291.33021571 -12 c 0,9,10
EndSplineSet
EndChar

StartChar: partialdiff
Encoding: 294 8706 166
Width: 594
GlyphClass: 1
Flags: W
HStem: -12 119<213.095 338.485> 315 120<211.906 339.564> 660 20G<152 164.5>
VStem: 21 151<147.986 275.102> 379 157<161.759 364.626>
LayerCount: 2
Fore
SplineSet
276 107 m 128,-1,1
 319 107 319 107 349.123969059 137.62603521 c 0,2,3
 379 168 379 168 379 211.454968125 c 128,-1,4
 379 255 379 255 348.905534044 285.094465956 c 128,-1,5
 319 315 319 315 276.033903701 315 c 128,-1,6
 233 315 233 315 202.79531215 285.290470968 c 0,7,8
 172 255 172 255 172 211.395210966 c 0,9,10
 172 168 172 168 202.569760797 137.430239203 c 128,-1,0
 233 107 233 107 276 107 c 128,-1,1
271.28992732 -12 m 0,11,12
 197 -12 197 -12 140.130936975 15.9267720211 c 0,13,14
 85 43 85 43 54.242595722 91.0584441844 c 0,15,16
 21 143 21 143 21 210.180274083 c 0,17,18
 21 274 21 274 52.000075304 326.183460095 c 0,19,20
 81 375 81 375 130.236498509 403.962646182 c 0,21,22
 183 435 183 435 251.606414469 435 c 0,23,24
 315 435 315 435 369.438810201 401.836127119 c 0,25,26
 402 382 402 382 422 356 c 1,27,28
 414 475 414 475 339.350740983 524.055227354 c 0,29,30
 274 567 274 567 152 560 c 1,31,-1
 152 680 l 1,32,33
 177 680 177 680 194.368621413 679.536836762 c 0,34,35
 252 678 252 678 292.187123219 670.147343739 c 0,36,37
 339 661 339 661 376.971874758 641.790698652 c 0,38,39
 424 618 424 618 456.474258446 580.886561776 c 0,40,41
 494 538 494 538 513.508926489 478.544224033 c 0,42,43
 536 410 536 410 536 319.252812683 c 0,44,45
 536 218 536 218 508.886535902 146.34298774 c 0,46,47
 480 70 480 70 422.674472503 30.163616485 c 0,48,49
 362 -12 362 -12 271.28992732 -12 c 0,11,12
EndSplineSet
EndChar

StartChar: uni0394
Encoding: 295 916 167
Width: 715
GlyphClass: 1
Flags: W
HStem: 0 115<159 415> 660 20G<277.706 296.324>
DStem2: -29 0 159 115 0.421425 0.906863<183.517 512.239> 287 680 287 418 0.422521 -0.906353<237.465 566.172>
LayerCount: 2
Fore
SplineSet
159 115 m 1,0,-1
 415 115 l 1,1,-1
 287 418 l 1,2,-1
 159 115 l 1,0,-1
-29 0 m 1,3,-1
 287 680 l 1,4,-1
 604 0 l 1,5,-1
 -29 0 l 1,3,-1
EndSplineSet
EndChar

StartChar: product
Encoding: 296 8719 168
Width: 790
GlyphClass: 1
Flags: W
HStem: -161 21G<113 241 517 645> 552 116<241 517>
VStem: 113 128<-161 552> 517 128<-161 552>
LayerCount: 2
Fore
SplineSet
113 -161 m 1,0,-1
 113 668 l 1,1,-1
 645 668 l 1,2,-1
 645 -161 l 1,3,-1
 517 -161 l 1,4,-1
 517 552 l 1,5,-1
 241 552 l 1,6,-1
 241 -161 l 1,7,-1
 113 -161 l 1,0,-1
EndSplineSet
EndChar

StartChar: pi
Encoding: 297 960 169
Width: 638
GlyphClass: 1
Flags: W
HStem: 1 104<487.553 536> 380 116<53 117 248 398 529 617>
VStem: 36 131<0 131> 338 139<66.0221 200.875>
DStem2: 36 0 167 0 0.207912 0.978148<27.2364 388.537> 316.918 0 447.691 0 0.207912 0.978148<161.985 388.554>
LayerCount: 2
Fore
SplineSet
36 0 m 1,0,-1
 117 380 l 1,1,-1
 28 380 l 1,2,-1
 53 496 l 1,3,-1
 642 496 l 1,4,-1
 617 380 l 1,5,-1
 529 380 l 1,6,-1
 480 152 l 2,7,8
 477 139 477 139 477 131.336707498 c 0,9,10
 477 117 477 117 487.211937823 111.164606958 c 0,11,12
 498 105 498 105 526 105 c 2,13,-1
 559 105 l 1,14,-1
 536 1 l 1,15,-1
 458 1 l 2,16,17
 393 1 393 1 363.194527527 25.3862956595 c 0,18,19
 338 46 338 46 338 86.0442545326 c 0,20,21
 338 102 338 102 342 118 c 2,22,-1
 398 380 l 1,23,-1
 248 380 l 1,24,-1
 167 0 l 1,25,-1
 36 0 l 1,0,-1
EndSplineSet
EndChar

StartChar: hungarumlaut
Encoding: 298 733 170
Width: 502
GlyphClass: 1
Flags: W
HStem: 572 154<222.668 248.622 429.668 455.622>
LayerCount: 2
Fore
SplineSet
297 572 m 1,0,-1
 311 586 l 2,1,2
 325 600 325 600 346 621 c 128,-1,3
 367 642 367 642 388 663 c 2,4,-1
 409 684 l 2,5,6
 438 713 438 713 442.406967786 716.819372081 c 0,7,8
 453 726 453 726 472.105058327 726 c 0,9,10
 501 726 501 726 517.570309533 704.858570596 c 0,11,12
 530 689 530 689 530 668.128700221 c 0,13,14
 530 641 530 641 511.502389771 628.132097232 c 0,15,16
 507 625 507 625 490.227572546 614.816740474 c 0,17,18
 479 608 479 608 468.098070499 601.266455308 c 0,19,20
 445 587 445 587 419.000000304 572.000000175 c 0,21,22
 419.000000304 572 419.000000304 572 297 572 c 1,0,-1
89 572 m 1,23,24
 118 600 118 600 160 642 c 2,25,-1
 181 663 l 1,26,-1
 202 684 l 2,27,28
 231 713 231 713 235.406967786 716.819372081 c 0,29,30
 246 726 246 726 265.105058327 726 c 0,31,32
 294 726 294 726 310.570309533 704.858570596 c 0,33,34
 323 689 323 689 323 668.128700221 c 0,35,36
 323 641 323 641 304.502389771 628.132097232 c 0,37,38
 300 625 300 625 283.227572546 614.816740474 c 0,39,40
 272 608 272 608 261.098070499 601.266455308 c 0,41,42
 238 587 238 587 212.000000304 572.000000175 c 0,43,44
 212.000000304 572 212.000000304 572 89 572 c 1,23,24
EndSplineSet
EndChar

StartChar: tilde
Encoding: 299 732 171
Width: 461
GlyphClass: 1
Flags: W
HStem: 568 80<307.934 413.201> 607 82<186.223 295.765>
LayerCount: 2
Fore
SplineSet
369.249481326 568 m 0,0,1
 342 568 342 568 318.562675076 575.60129457 c 0,2,3
 305 580 305 580 288.752296759 588.704126736 c 0,4,5
 277 595 277 595 269.241741376 598.324967982 c 0,6,7
 249 607 249 607 231.714148738 607 c 0,8,9
 198 607 198 607 178 574 c 1,10,-1
 89 574 l 1,11,12
 98 603 98 603 116.434154892 628.051543827 c 0,13,14
 137 656 137 656 162.866791239 671.520074743 c 0,15,16
 192 689 192 689 233.563164587 689 c 0,17,18
 265 689 265 689 295.804254538 675.606845853 c 0,19,20
 311 669 311 669 321.861106436 662.088386814 c 0,21,22
 344 648 344 648 367.951358678 648 c 0,23,24
 386 648 386 648 400.540566183 658.574957224 c 0,25,26
 408 664 408 664 413.800251638 670.444724042 c 0,27,28
 426 684 426 684 441.941889355 688.428302599 c 0,29,30
 444 689 444 689 446.420650898 689.403441816 c 0,31,32
 450 690 450 690 453.524662996 690 c 0,33,34
 469 690 469 690 480.404146481 678.595853519 c 128,-1,35
 492 667 492 667 492 650.926519762 c 0,36,37
 492 636 492 636 482.362402103 622.507362945 c 0,38,39
 472 608 472 608 456.271397209 596.129356384 c 0,40,41
 419 568 419 568 369.249481326 568 c 0,0,1
EndSplineSet
EndChar

StartChar: endash
Encoding: 300 8211 172
Width: 536
GlyphClass: 1
Flags: W
HStem: 185 128<38 464>
LayerCount: 2
Fore
SplineSet
38 185 m 1,0,-1
 38 313 l 1,1,-1
 464 313 l 1,2,-1
 464 185 l 1,3,-1
 38 185 l 1,0,-1
EndSplineSet
EndChar

StartChar: emdash
Encoding: 301 8212 173
Width: 870
GlyphClass: 1
Flags: W
HStem: 185 128<38 798>
LayerCount: 2
Fore
SplineSet
38 185 m 1,0,-1
 38 313 l 1,1,-1
 798 313 l 1,2,-1
 798 185 l 1,3,-1
 38 185 l 1,0,-1
EndSplineSet
EndChar

StartChar: trademark
Encoding: 302 8482 174
Width: 1013
GlyphClass: 1
Flags: W
HStem: 301 367<234 343 487 594 859 966> 575 93<113 234 343 463>
VStem: 234 109<301 575> 487 107<301 558> 859 107<301 558>
DStem2: 726 432 775 301 0.310675 0.950516<0 161.085>
LayerCount: 2
Fore
SplineSet
234 301 m 1,0,-1
 234 575 l 1,1,-1
 113 575 l 1,2,-1
 113 668 l 1,3,-1
 463 668 l 1,4,-1
 463 575 l 1,5,-1
 343 575 l 1,6,-1
 343 301 l 1,7,-1
 234 301 l 1,0,-1
487 301 m 1,8,-1
 487 668 l 1,9,-1
 660 668 l 1,10,-1
 726 432 l 1,11,-1
 793 668 l 1,12,-1
 966 668 l 1,13,-1
 966 301 l 1,14,-1
 859 301 l 1,15,-1
 859 558 l 1,16,-1
 775 301 l 1,17,-1
 678 301 l 1,18,-1
 594 558 l 1,19,-1
 594 301 l 1,20,-1
 487 301 l 1,8,-1
EndSplineSet
EndChar

StartChar: Euro
Encoding: 303 8364 175
Width: 704
GlyphClass: 1
Flags: W
HStem: -12 130<302.353 459.424> 231 74<43 96.2293 250 314> 366 74<71 103 279 418> 553 127<360.29 519.323>
LayerCount: 2
Fore
SplineSet
370.17883593 -12 m 0,0,1
 293 -12 293 -12 234.890928148 13.880510993 c 0,2,3
 174 41 174 41 138.677780567 93.2575301201 c 0,4,5
 101 149 101 149 94 231 c 1,6,-1
 -13 231 l 1,7,-1
 43 305 l 1,8,-1
 94 305 l 1,9,10
 97 332 97 332 103 366 c 1,11,-1
 15 366 l 1,12,-1
 71 440 l 1,13,-1
 123 440 l 1,14,15
 164 555 164 555 252.430956435 618.164968882 c 0,16,17
 339 680 339 680 451.455250188 680 c 0,18,19
 504 680 504 680 547.294815398 667.948865817 c 0,20,21
 601 653 601 653 636.914418984 622.540935798 c 0,22,23
 680 586 680 586 700 525 c 1,24,-1
 561 475 l 1,25,26
 543 519 543 519 509.110656775 537.889142126 c 0,27,28
 482 553 482 553 443.622297587 553 c 0,29,30
 390 553 390 553 347.131956279 523.244534359 c 0,31,32
 305 494 305 494 279 440 c 1,33,-1
 474 440 l 1,34,-1
 418 366 l 1,35,-1
 254 366 l 1,36,37
 250 348 250 348 247.75 327.75 c 0,38,39
 247 321 247 321 245 305 c 1,40,-1
 370 305 l 1,41,-1
 314 231 l 1,42,-1
 250 231 l 1,43,44
 261 175 261 175 295.66398335 145.06292347 c 0,45,46
 327 118 327 118 372.85870179 118 c 0,47,48
 407 118 407 118 437.319422783 129.369783544 c 0,49,50
 487 148 487 148 518 194 c 1,51,-1
 647 140 l 1,52,53
 603 68 603 68 536.887155567 29.6737133723 c 0,54,55
 465 -12 465 -12 370.17883593 -12 c 0,0,1
EndSplineSet
EndChar

StartChar: uni2113
Encoding: 304 8467 176
Width: 506
GlyphClass: 1
Flags: W
HStem: -12 122<198.565 325.348> 573 107<316.145 383.111>
VStem: 385 125<471.031 571.935>
DStem2: 33.0779 -12 187.851 -12 0.207912 0.978148<283.197 335.302 425.846 611.807>
LayerCount: 2
Fore
SplineSet
270 373 m 1,0,1
 301 392 301 392 327.457949336 421.001982926 c 0,2,3
 353 449 353 449 368.088345315 478.705179838 c 0,4,5
 385 512 385 512 385 537.914398423 c 0,6,7
 385 573 385 573 352.95360705 573 c 0,8,9
 330 573 330 573 316.210885503 553.907379927 c 0,10,11
 304 537 304 537 296 501 c 2,12,-1
 270 373 l 1,0,1
221.12926473 -12 m 0,13,14
 176 -12 176 -12 142.886601352 -0.173786197131 c 0,15,16
 106 13 106 13 86.2982646663 38.7998915084 c 0,17,18
 64 68 64 68 64 111.672829728 c 0,19,20
 64 123 64 123 66.0199256309 137.81278796 c 0,21,22
 67 145 67 145 69 157 c 1,23,-1
 -5 112 l 1,24,-1
 18 218 l 1,25,-1
 92 265 l 1,26,-1
 132 452 l 2,27,28
 158 576 158 576 218.82697135 631.491272109 c 0,29,30
 272 680 272 680 359.885612081 680 c 0,31,32
 429 680 429 680 468.064076157 651.063647291 c 0,33,34
 510 620 510 620 510 556.550190295 c 0,35,36
 510 499 510 499 472.659230694 445.424113604 c 0,37,38
 441 400 441 400 365.790093774 344.382590354 c 0,39,40
 322 312 322 312 247 264 c 1,41,-1
 231 191 l 2,42,43
 221 145 221 145 233.876650626 126.221551171 c 0,44,45
 245 110 245 110 275.948029156 110 c 0,46,47
 299 110 299 110 324.405809448 120.634990001 c 0,48,49
 342 128 342 128 362 141 c 1,50,-1
 400 52 l 1,51,52
 373 32 373 32 342.435863501 17.3823695007 c 0,53,54
 281 -12 281 -12 221.12926473 -12 c 0,13,14
EndSplineSet
EndChar

StartChar: Lslash
Encoding: 305 321 177
Width: 595
GlyphClass: 1
Flags: W
HStem: 0 140<219 510> 648 20G<166.75 331>
VStem: 171 160<508 668>
DStem2: 11 300 76 225 0.883116 0.469155<0 22.2159 308.235 426.159> 28.1748 0 189.242 0 0.207912 0.978148<176.615 230.027 355.952 362.747 488.257 683.098>
LayerCount: 2
Fore
SplineSet
28 0 m 1,0,-1
 76 225 l 1,1,-1
 -15 177 l 1,2,-1
 11 300 l 1,3,-1
 103 348 l 1,4,-1
 171 668 l 1,5,-1
 331 668 l 1,6,-1
 283 445 l 1,7,-1
 459 538 l 1,8,-1
 433 414 l 1,9,-1
 258 322 l 1,10,-1
 219 140 l 1,11,-1
 539 140 l 1,12,-1
 510 0 l 1,13,-1
 28 0 l 1,0,-1
EndSplineSet
EndChar

StartChar: lslash
Encoding: 306 322 178
Width: 342
GlyphClass: 1
Flags: W
HStem: 0 124<208.033 269> 487 20G<338.462 371.738> 648 20G<141.799 301>
VStem: 29 168<70.3933 189.128> 146 155<513 668>
DStem2: 4.24208 0 160.551 0 0.207912 0.978148<197.396 233.155 356.917 360.715 484.269 682.876>
LayerCount: 2
Fore
SplineSet
172 0 m 2,0,1
 107 0 107 0 72.1615292268 19.2058236314 c 0,2,3
 29 43 29 43 29 97.7865756955 c 0,4,5
 29 108 29 108 30.9455636272 121.61894539 c 0,6,7
 32 129 32 129 34 140 c 2,8,-1
 53 228 l 1,9,-1
 -23 188 l 1,10,-1
 3 309 l 1,11,-1
 79 349 l 1,12,-1
 146 668 l 1,13,-1
 301 668 l 1,14,-1
 254 442 l 1,15,-1
 376 507 l 1,16,-1
 350 385 l 1,17,-1
 229 321 l 1,18,-1
 204 205 l 2,19,20
 201 192 201 192 199.370813947 182.632180193 c 0,21,22
 197 169 197 169 197 160.568876589 c 0,23,24
 197 142 197 142 207.641610645 133.671782974 c 0,25,26
 220 124 220 124 252 124 c 2,27,-1
 294 124 l 1,28,-1
 269 0 l 1,29,-1
 172 0 l 2,0,1
EndSplineSet
EndChar

StartChar: oslash
Encoding: 248 248 179
Width: 577
GlyphClass: 1
Flags: W
HStem: -12 118<189.641 315.101> 392 118<228.956 350.51>
VStem: 5 156<201.049 311.819> 382 156<182.606 304.827>
DStem2: 38 85 88 32 0.731777 0.681544<-85.1142 4.97188 168.386 402.353 562.948 650.931>
AnchorPoint: "Anchor-1" 317 496 basechar 0
LayerCount: 2
Fore
SplineSet
247.332894569 106 m 0,0,1
 297 106 297 106 331.835110497 141.371035273 c 0,2,3
 362 172 362 172 374.482933254 223.400313401 c 0,4,5
 379 242 379 242 380.940097708 262.371025936 c 0,6,7
 383 284 383 284 382 306 c 1,8,-1
 189 125 l 1,9,10
 200 116 200 116 212.922155951 111.384944303 c 0,11,12
 228 106 228 106 247.332894569 106 c 0,0,1
161 200 m 1,13,-1
 351 376 l 1,14,15
 329 392 329 392 295.340203055 392 c 0,16,17
 247 392 247 392 212.801168794 357.275032929 c 0,18,19
 182 326 182 326 168.952929949 271.509295668 c 0,20,21
 165 255 165 255 162.893410975 234.987404259 c 0,22,23
 161 217 161 217 161 200 c 1,13,-1
242.679807849 -12 m 0,24,25
 149 -12 149 -12 88 32 c 1,26,-1
 26 -27 l 1,27,-1
 -25 27 l 1,28,-1
 38 85 l 1,29,30
 22 110 22 110 13.6642571829 139.420268766 c 0,31,32
 5 170 5 170 5 209.605053837 c 0,33,34
 5 292 5 292 42.2968380579 360.626182026 c 0,35,36
 80 430 80 430 145.567042759 468.854543857 c 0,37,38
 215 510 215 510 302.743324095 510 c 0,39,40
 346 510 346 510 383.129597245 500.098774068 c 0,41,42
 421 490 421 490 451 470 c 1,43,-1
 514 529 l 1,44,-1
 565 475 l 1,45,-1
 503 418 l 1,46,47
 520 393 520 393 528.590060351 364.366465497 c 0,48,49
 538 333 538 333 538 290.568421662 c 0,50,51
 538 207 538 207 501.827605829 138.1237974 c 0,52,53
 465 68 465 68 400.382953097 29.1326033668 c 0,54,55
 332 -12 332 -12 242.679807849 -12 c 0,24,25
EndSplineSet
EndChar

StartChar: Oslash
Encoding: 216 216 180
Width: 761
GlyphClass: 1
Flags: W
HStem: -12 130<268.605 435.525> 550 130<326.685 489.847>
VStem: 30 169<233.224 401.979> 562 168<264.082 448.772>
DStem2: 4 43 55 -11 0.731548 0.68179<0.492286 99.1136 275.949 678.327 848.572 943.891>
AnchorPoint: "Anchor-1" 456 668 basechar 0
LayerCount: 2
Fore
SplineSet
348.437416156 118 m 0,0,1
 404 118 404 118 450.576027419 148.53317353 c 0,2,3
 494 177 494 177 522.428231791 226.147112587 c 0,4,5
 553 279 553 279 560.080334356 345.378134589 c 0,6,7
 561 354 561 354 561.498934791 362.980826239 c 128,-1,8
 562 372 562 372 562 380.123277263 c 0,9,10
 562 400 562 400 558.692191297 419.295550765 c 0,11,12
 556 435 556 435 551 451 c 1,13,-1
 241 163 l 1,14,15
 260 142 260 142 284.792205729 130.773340802 c 0,16,17
 313 118 313 118 348.437416156 118 c 0,0,1
206 231 m 1,18,-1
 510 514 l 1,19,20
 490 532 490 532 463.379419158 541.395499121 c 0,21,22
 439 550 439 550 411.441677089 550 c 0,23,24
 364 550 364 550 321.355010036 525.834505687 c 0,25,26
 274 499 274 499 243.93569691 450.324461664 c 0,27,28
 211 397 211 397 201.6615475 324.839230682 c 0,29,30
 200 312 200 312 199.406392183 301.315059288 c 0,31,32
 199 294 199 294 199 286.427581414 c 0,33,34
 199 255 199 255 206 231 c 1,18,-1
333.838541588 -12 m 0,35,36
 268 -12 268 -12 212.829584323 6.21664668574 c 0,37,38
 162 23 162 23 124 54 c 1,39,-1
 55 -11 l 1,40,-1
 4 43 l 1,41,-1
 75 109 l 1,42,43
 30 177 30 177 30 265.789355677 c 0,44,45
 30 282 30 282 31.9775557359 299.138816378 c 0,46,47
 33 308 33 308 34.6311025409 321.266300666 c 0,48,49
 48 430 48 430 103.413073609 512.606526398 c 0,50,51
 156 591 156 591 237.908323351 634.651741187 c 0,52,53
 323 680 323 680 428.118684039 680 c 0,54,55
 547 680 547 680 626 622 c 1,56,-1
 695 686 l 1,57,-1
 746 633 l 1,58,-1
 678 569 l 1,59,60
 730 500 730 500 730 395.983867012 c 0,61,62
 730 371 730 371 727.332031462 346.035437252 c 0,63,64
 716 240 716 240 662.197595248 158.28125316 c 0,65,66
 610 79 610 79 527.157439396 34.6548646179 c 0,67,68
 440 -12 440 -12 333.838541588 -12 c 0,35,36
EndSplineSet
EndChar

StartChar: Thorn
Encoding: 222 222 181
Width: 623
GlyphClass: 1
Flags: W
HStem: 0 21G<-23 143.219> 128 141<196 403.025> 426 137<259 421.194> 648 20G<114.749 280>
VStem: 444 168<307.156 411.083>
DStem2: -23 0 139 0 0.207912 0.978148<33.6817 164.498 308.654 469.293 609.328 682.926>
LayerCount: 2
Fore
SplineSet
196 269 m 1,0,-1
 294 269 l 2,1,2
 350 269 350 269 383.673933156 281.347108824 c 0,3,4
 410 291 410 291 424.967845827 310.402763109 c 0,5,6
 437 326 437 326 441.73256433 349.662821652 c 0,7,8
 444 361 444 361 444 370.006154237 c 0,9,10
 444 399 444 399 421.984354753 411.647285567 c 0,11,12
 397 426 397 426 332 426 c 2,13,-1
 230 426 l 1,14,-1
 196 269 l 1,0,-1
-23 0 m 1,15,-1
 119 668 l 1,16,-1
 280 668 l 1,17,-1
 259 563 l 1,18,-1
 347 563 l 2,19,20
 426 563 426 563 480.526577533 548.795597449 c 0,21,22
 545 532 545 532 576.781629393 496.423549187 c 0,23,24
 612 457 612 457 612 388.107136783 c 0,25,26
 612 368 612 368 608.890503492 344.798372209 c 0,27,28
 599 271 599 271 560.47671124 223.671388095 c 0,29,30
 529 185 529 185 473.227350078 161.488000523 c 0,31,32
 427 142 427 142 358.647364478 133.750543989 c 0,33,34
 311 128 311 128 255 128 c 2,35,-1
 166 128 l 1,36,-1
 139 0 l 1,37,-1
 -23 0 l 1,15,-1
EndSplineSet
EndChar

StartChar: ae
Encoding: 230 230 182
Width: 886
GlyphClass: 1
Flags: W
HStem: -13 104.281<159.121 274.81> -12 118<499.02 657.801> 209 90<170.407 332 487 716> 398 112<545.496 687.912> 407 103<212.175 339.162>
VStem: 716 134<299 370.137>
AnchorPoint: "Anchor-1" 451 496 basechar 0
LayerCount: 2
Fore
SplineSet
215.189037536 91.281385665 m 0,0,1
 246 94 246 94 270.166043516 109.736028336 c 0,2,3
 289 122 289 122 303.706675809 143.494372336 c 0,4,5
 315 160 315 160 325.84797828 190.875015105 c 0,6,7
 328 197 328 197 332 209 c 1,8,9
 245 210 245 210 206.03177445 201.475700661 c 0,10,11
 149 189 149 189 144.013035627 145.987432287 c 0,12,13
 141 120 141 120 158.507474834 104.858400144 c 0,14,15
 178 88 178 88 215.189037536 91.281385665 c 0,0,1
487 299 m 1,16,-1
 715 299 l 1,17,18
 716 303 716 303 716 309 c 0,19,20
 716 356 716 356 684.516437721 379.612671709 c 0,21,22
 660 398 660 398 623.329383279 398 c 0,23,24
 581 398 581 398 545.66477282 376.357173352 c 0,25,26
 501 349 501 349 487 299 c 1,16,-1
162.153043012 -13 m 0,27,28
 113 -13 113 -13 72.8956470313 1.49554926578 c 0,29,30
 30 17 30 17 7.01110387589 44.7782494833 c 0,31,32
 -18 75 -18 75 -18 121.730668633 c 0,33,34
 -18 175 -18 175 17.0505790226 213.286017086 c 0,35,36
 47 246 47 246 104.511194559 266.617220691 c 0,37,38
 153 284 153 284 225.076132046 292.380945587 c 0,39,40
 282 299 282 299 345 299 c 1,41,42
 350 324 350 324 351.76607376 334.154924123 c 0,43,44
 354 347 354 347 354 355.936850752 c 0,45,46
 354 382 354 382 334.274210285 394.977493234 c 0,47,48
 316 407 316 407 285.021254092 407 c 0,49,50
 251 407 251 407 224.787016626 393.425419324 c 0,51,52
 195 378 195 378 181 348 c 1,53,-1
 63 394 l 1,54,55
 101 452 101 452 159.280380766 480.646288851 c 0,56,57
 219 510 219 510 295.511862386 510 c 0,58,59
 352 510 352 510 390.987670534 492.672146429 c 0,60,61
 424 478 424 478 442 452 c 1,62,63
 477 480 477 480 517.989020117 493.973529585 c 0,64,65
 565 510 565 510 623.228269791 510 c 0,66,67
 734 510 734 510 793.92432245 450.07567755 c 0,68,69
 850 394 850 394 850 298.166234163 c 0,70,71
 850 276 850 276 846.639049237 251.353027734 c 0,72,73
 844 232 844 232 839 209 c 1,74,-1
 473 209 l 1,75,76
 472 203 472 203 471.527864045 198.27864045 c 0,77,78
 471 193 471 193 471 187.344002526 c 0,79,80
 471 144 471 144 506.386602861 122.311436956 c 0,81,82
 533 106 533 106 572.259987251 106 c 0,83,84
 603 106 603 106 631.64112826 115.876251124 c 0,85,86
 661 126 661 126 678 143 c 1,87,-1
 791 98 l 1,88,89
 749 45 749 45 687.561033009 16.7578942059 c 0,90,91
 625 -12 625 -12 552.550362208 -12 c 0,92,93
 485 -12 485 -12 436.643347256 15.4753708774 c 0,94,95
 397 38 397 38 372 78 c 1,96,97
 329 30 329 30 271.278723349 7.01838059251 c 0,98,99
 221 -13 221 -13 162.153043012 -13 c 0,27,28
EndSplineSet
EndChar

StartChar: eth
Encoding: 240 240 183
Width: 581
GlyphClass: 1
Flags: W
HStem: -12 113<176.997 310.293> 338 118<192.751 325.583> 604 122<233 314.336>
VStem: 2 139<136.598 284.191> 409.335 137.203<384.657 514.628>
DStem2: 252 530 289 483 0.769758 0.638336<0 82.9649 233.556 317.422>
LayerCount: 2
Fore
SplineSet
243.211887125 101 m 0,0,1
 299 101 299 101 329.955417606 143.163413636 c 0,2,3
 357 180 357 180 357 233.016979218 c 0,4,5
 357 285 357 285 330.040520373 312.477931158 c 0,6,7
 305 338 305 338 261.603377308 338 c 0,8,9
 209 338 209 338 174.997299356 300.497021348 c 128,-1,10
 141 263 141 263 141 208.536308745 c 0,11,12
 141 160 141 160 167.447610804 131.103536343 c 0,13,14
 195 101 195 101 243.211887125 101 c 0,0,1
224.729185041 -12 m 0,15,16
 166 -12 166 -12 119.938510254 7.5893692023 c 0,17,18
 79 25 79 25 50.9080720586 57.8622553276 c 0,19,20
 26 87 26 87 13.1936786415 127.553350968 c 0,21,22
 2 163 2 163 2 204.026246651 c 0,23,24
 2 275 2 275 35.9313734132 333.240417053 c 0,25,26
 69 390 69 390 125.776856231 422.027970182 c 0,27,28
 186 456 186 456 252.566951149 456 c 0,29,30
 303 456 303 456 345.513243819 436.720738268 c 0,31,32
 389 417 389 417 409 384 c 1,33,34
 411 405 411 405 409.33549824 428.303024642 c 0,35,36
 407 461 407 461 399.687797378 485.780242218 c 0,37,38
 389 522 389 522 366 547 c 1,39,-1
 289 483 l 1,40,-1
 252 530 l 1,41,-1
 315 584 l 1,42,43
 296 593 296 593 271.217269744 598.048333941 c 0,44,45
 242 604 242 604 207 604 c 1,46,-1
 233 726 l 1,47,48
 295 724 295 724 345.16483486 709.057283233 c 0,49,50
 389 696 389 696 424 673 c 1,51,-1
 498 734 l 1,52,-1
 535 686 l 1,53,-1
 470 633 l 1,54,55
 515 584 515 584 534.690079055 510.029162468 c 0,56,57
 552 445 552 445 546.538476499 356.775389598 c 0,58,59
 539 235 539 235 491.342543316 146.493294731 c 0,60,61
 448 66 448 66 376.414039492 25.5383701477 c 0,62,63
 310 -12 310 -12 224.729185041 -12 c 0,15,16
EndSplineSet
EndChar

StartChar: thorn
Encoding: 254 254 184
Width: 589
GlyphClass: 1
Flags: W
HStem: -161 21G<-55 105.237> -12 119<209.026 331.566> 392 119<287.934 388.446> 648 20G<116.754 276>
VStem: -55 156<-161 -5> 121 155<513 668> 393 158<179.809 363.369>
DStem2: -55 -161 101 -161 0.207912 0.978148<32.4342 273.673 640.629 847.477>
LayerCount: 2
Fore
SplineSet
267.905677459 107 m 0,0,1
 301 107 301 107 328.610255293 126.489591971 c 0,2,3
 352 143 352 143 368.211700894 173.187305113 c 0,4,5
 381 197 381 197 387.869914182 229.059599517 c 0,6,7
 393 253 393 253 393 280.266367355 c 0,8,9
 393 338 393 338 368.954650929 366.227148909 c 0,10,11
 347 392 347 392 305.488387705 392 c 0,12,13
 263 392 263 392 230.766066061 362.497755378 c 0,14,15
 204 338 204 338 188.122134679 296.000485281 c 0,16,17
 173 256 173 256 173 215.763923606 c 0,18,19
 173 162 173 162 201.718818984 132.749351035 c 0,20,21
 227 107 227 107 267.905677459 107 c 0,0,1
-55 -161 m 1,22,-1
 121 668 l 1,23,-1
 276 668 l 1,24,-1
 227 434 l 1,25,26
 255 475 255 475 299.296607611 494.933473425 c 0,27,28
 335 511 335 511 373.891686922 511 c 0,29,30
 403 511 403 511 429.259834562 503.251196359 c 0,31,32
 464 493 464 493 489.152015716 471.574208835 c 0,33,34
 518 447 518 447 533.133811452 410.770572584 c 0,35,36
 551 368 551 368 551 306.115656824 c 0,37,38
 551 244 551 244 533.152022783 187.481405478 c 0,39,40
 515 130 515 130 481.339385782 86.0948510199 c 0,41,42
 446 40 446 40 399.950666866 15.3137595568 c 0,43,44
 349 -12 349 -12 294.679597268 -12 c 0,45,46
 261 -12 261 -12 232.190361813 -1.19638567989 c 0,47,48
 205 9 205 9 184.459372723 27.2064650862 c 0,49,50
 161 48 161 48 151 75 c 1,51,-1
 101 -161 l 1,52,-1
 -55 -161 l 1,22,-1
EndSplineSet
EndChar

StartChar: multiply
Encoding: 215 215 185
Width: 618
GlyphClass: 1
Flags: W
DStem2: 58 112 149 22 0.706133 0.708079<0.531059 192.158 318.904 513.89> 284 337 194 248 0.706133 -0.708079<-195.692 -0.533004 126.746 317.667>
LayerCount: 2
Fore
SplineSet
149 22 m 1,0,-1
 58 112 l 1,1,-1
 194 248 l 1,2,-1
 55 385 l 1,3,-1
 146 476 l 1,4,-1
 284 337 l 1,5,-1
 421 476 l 1,6,-1
 512 385 l 1,7,-1
 373 248 l 1,8,-1
 509 112 l 1,9,-1
 418 22 l 1,10,-1
 284 158 l 1,11,-1
 149 22 l 1,0,-1
EndSplineSet
EndChar

StartChar: divide
Encoding: 247 247 186
Width: 645
GlyphClass: 1
Flags: W
HStem: -12 159<242.147 349.283> 186 128<40 552> 351 159<242.255 349.752>
VStem: 217 158<13.6399 121.273 376.576 485.078>
LayerCount: 2
Fore
SplineSet
296 -12 m 128,-1,1
 264 -12 264 -12 240.680779928 11.3192200716 c 0,2,3
 217 35 217 35 217 67.5622644353 c 128,-1,4
 217 100 217 100 240.579820499 123.579820499 c 128,-1,5
 264 147 264 147 295.972780818 147 c 128,-1,6
 328 147 328 147 351.504995148 123.495004852 c 128,-1,7
 375 100 375 100 375 67.5017272293 c 128,-1,8
 375 35 375 35 351.408601143 11.4086011434 c 128,-1,0
 328 -12 328 -12 296 -12 c 128,-1,1
40 186 m 1,9,-1
 40 314 l 1,10,-1
 552 314 l 1,11,-1
 552 186 l 1,12,-1
 40 186 l 1,9,-1
296 351 m 128,-1,14
 264 351 264 351 240.680779928 374.319220072 c 0,15,16
 217 398 217 398 217 431.06322235 c 128,-1,17
 217 464 217 464 240.795850529 487.289555837 c 0,18,19
 264 510 264 510 295.898645923 510 c 0,20,21
 328 510 328 510 351.211460619 487.282400245 c 0,22,23
 375 464 375 464 375 430.899321397 c 0,24,25
 375 398 375 398 351.337170351 374.337170351 c 0,26,13
 328 351 328 351 296 351 c 128,-1,14
EndSplineSet
EndChar

StartChar: OE
Encoding: 307 338 187
Width: 1095
GlyphClass: 1
Flags: W
HStem: -12 131<269.199 436.933> 0 140<681 1008> 275 138<739 928> 529 139<764 1120> 550 130<326.621 491.971>
VStem: 31 169<192.509 401.984>
LayerCount: 2
Fore
SplineSet
348.461004955 119 m 0,0,1
 404 119 404 119 450.402613251 148.575291962 c 0,2,3
 495 177 495 177 524.016737045 227.656337553 c 0,4,5
 554 280 554 280 561.045506689 345.170936872 c 0,6,7
 562 354 562 354 562.505379482 363.096830673 c 128,-1,8
 563 372 563 372 563 380.823915175 c 0,9,10
 563 439 563 439 539.66325198 479.703630268 c 0,11,12
 520 514 520 514 484.761784058 532.655526087 c 0,13,14
 452 550 452 550 412.678352 550 c 0,15,16
 365 550 365 550 322.299175793 525.802866283 c 0,17,18
 275 499 275 499 244.944968036 450.339472058 c 0,19,20
 212 397 212 397 202.661350253 324.837706502 c 0,21,22
 201 312 201 312 200.406406503 301.315317046 c 0,23,24
 200 294 200 294 200 286.810432808 c 0,25,26
 200 241 200 241 215.898923362 204.384297711 c 0,27,28
 233 165 233 165 264.127239319 143.305257444 c 0,29,30
 299 119 299 119 348.461004955 119 c 0,0,1
322.720116024 -12 m 0,31,32
 235 -12 235 -12 167.338180658 24.6289548318 c 0,33,34
 102 60 102 60 66.5541208353 123.403192309 c 128,-1,35
 31 187 31 187 31 269.914909335 c 0,36,37
 31 294 31 294 34.6598838398 323.494358003 c 0,38,39
 48 431 48 431 103.147706981 513.210933555 c 0,40,41
 156 592 156 592 238.379251818 635.409426108 c 0,42,43
 323 680 323 680 423.331637833 680 c 0,44,45
 493 680 493 680 549.436103762 659.079720157 c 0,46,47
 609 637 609 637 642 596 c 1,48,-1
 657 668 l 1,49,-1
 1150 668 l 1,50,-1
 1120 529 l 1,51,-1
 764 529 l 1,52,-1
 739 413 l 1,53,-1
 957 413 l 1,54,-1
 928 275 l 1,55,-1
 710 275 l 1,56,-1
 681 140 l 1,57,-1
 1037 140 l 1,58,-1
 1008 0 l 1,59,-1
 515 0 l 1,60,-1
 528 59 l 1,61,62
 491 22 491 22 433.096894029 3.77124441655 c 0,63,64
 383 -12 383 -12 322.720116024 -12 c 0,31,32
EndSplineSet
EndChar

